<svg width="200" height="200" viewBox="0 0 200 200" fill="none" xmlns="http://www.w3.org/2000/svg">
<g clip-path="url(#clip0_2013_38584)">
<rect width="200" height="200" rx="100" fill="#BAD0AC"/>
<mask id="mask0_2013_38584" style="mask-type:luminance" maskUnits="userSpaceOnUse" x="-44" y="12" width="288" height="288">
<path d="M244 12H-44V300H244V12Z" fill="white"/>
</mask>
<g mask="url(#mask0_2013_38584)">
<path d="M58.581 88.8394L34.2882 105.565L32.7114 125.444L49.329 154.979L163.651 144.776L160.13 100.395L148.012 93.0514L58.581 88.8394Z" fill="#B8C645"/>
<path d="M148.012 93.0514L58.581 88.8394L34.2882 105.565L32.7114 125.444L46.665 115.839L150.194 107.235L160.13 100.395L148.012 93.0514Z" fill="#E8EF78"/>
<g opacity="0.99">
<path d="M150.864 122.689L147.319 56.904L133.042 52.1245L100.293 31.5057L65.5734 56.7746L55.5733 61.5409L53.2358 118.278L150.864 122.689Z" fill="#2B2B2B"/>
</g>
<path d="M157.704 263.072L154.745 183.058L150.195 155.914L108.593 138.994L54.84 168.021L35.3618 273.102L53.5706 288.963L158.431 289.237L174.905 285.68L157.704 263.072Z" fill="#446024"/>
<path d="M55.0635 167.931L43.0575 155.806L26.1519 285.68L38.2407 277.752L44.4471 266.542L55.0635 167.931Z" fill="#5A753C"/>
<path d="M141.663 123.68L150.195 107.055L180.701 152.956L140.713 168.53L137.659 159.702L141.663 123.68Z" fill="#5A753C"/>
<path d="M65.6812 108.761L93.4732 123.32L118.695 142.767L105.131 195.132H68.6908V182.878L53.5708 143.854L65.6812 108.761Z" fill="#5A753C"/>
<path d="M108.593 138.814L105.101 182.878L105.13 195.133H141.663L141.763 178.018L150.195 107.055L132.375 105.385L131.741 112.794L124.167 112.441L120.185 129.562L108.593 138.814Z" fill="#6F9D52"/>
<path d="M105.131 195.312L87.483 250.896L105.957 265.643L141.854 250.716L141.663 196.767L125.139 200.618L105.131 195.312Z" fill="#5A753C"/>
<path d="M67.7997 208.431L62.7594 255.681L105.959 265.642L105.132 195.313L67.7997 208.431Z" fill="#6F9D52"/>
<path d="M68.6931 195.312L141.665 195.312L141.665 209.021L67.8002 208.431L68.6931 195.312Z" fill="#99C26C"/>
<path d="M43.0566 155.627L46.6634 115.659L74.7146 106.206L67.738 131.096L70.2366 160.702L43.0566 155.627Z" fill="#738D56"/>
<path d="M108.271 132.176L118.337 121.729L124.169 112.441L134.782 113.981L133.853 129.656L108.595 138.814L102.605 133.457L108.271 132.176Z" fill="#35785D"/>
<path d="M108.27 132.176L108.594 138.814L67.7408 131.096L65.6816 109.301L74.7176 106.745L84.956 117.315L108.27 132.176Z" fill="#53AF8A"/>
<path d="M134.781 114.162L87.4841 111.937L74.0921 102.368L67.7422 29.7415L141.679 26.5595L134.781 114.162Z" fill="#DFBCA4"/>
<path d="M127.659 113.83L79.2684 107.465L73.4578 36.8189L64.7603 22.9805L72.3629 111.418L74.0915 122.42L108.268 132.356L126.054 123.608L127.659 113.83Z" fill="#C3977A"/>
<path d="M110.228 126.739L127.66 113.829L72.3638 111.417L110.228 126.739Z" fill="#8A6651"/>
<path d="M84.4401 12.0007L72.3656 21.2015L56.9792 25.0397L55.5095 61.8605L68.8078 72.2862L74.6401 27.7542L109.157 43.2913L141.075 32.8443L139.166 58.4979L147.418 57.0731L150.521 29.7412L134.782 22.981L125.674 12.0009L84.4401 12.0007Z" fill="#4F5252"/>
<path d="M84.4403 12.0002L56.9794 25.0399L73.4601 36.8185L109.158 43.2915L84.4403 12.0002Z" fill="#6E7073"/>
<path d="M77.8145 89.7378L136.437 93.1438L134.781 114.161L79.2399 111.719L77.8145 89.7378Z" fill="#C3977A"/>
<path d="M125.673 12.0008L109.156 43.2919L140.793 36.5745L150.52 29.7418L125.673 12.0008Z" fill="#464646"/>
<path d="M77.8151 89.7384L70.2407 86.7L72.3646 111.418L79.2406 111.72L77.8151 89.7384Z" fill="#8A6651"/>
<path d="M89.9238 98.0371L92.7174 100.824L109.328 100.824" fill="#8A6651"/>
<path d="M89.9238 98.0371L92.7174 100.824L109.328 100.824" stroke="#8A6651" stroke-width="2.88" stroke-miterlimit="10"/>
<path d="M88.1011 96.2296L93.4723 95.6104L87.4819 101.428L88.1011 96.2296Z" fill="#8A6651"/>
<path d="M100.932 84.324L107.866 89.076L114.807 84.3241L100.932 84.324Z" fill="#8A6651"/>
<path d="M79.2397 66.1228L93.7477 70.5796L100.933 84.3245L105.023 62.1197L84.3589 60.2476L79.2397 66.1228Z" fill="#C3977A"/>
<path d="M114.808 84.3244L125.119 70.5796L136.495 66.1229L131.383 62.9045L121.993 61.8604L110.711 62.1196L110.711 75.886L114.808 84.3244Z" fill="#C3977A"/>
<path d="M114.808 84.3238L107.868 86.0733L100.934 84.3237L105.024 62.1189L110.712 62.119L114.808 84.3238Z" fill="#E8C9B6"/>
<path d="M110.711 62.1194L131.383 62.9043L136.495 66.1227L131.383 57.5907L121.839 59.6815L110.711 62.1194Z" fill="#464646"/>
<path d="M105.023 62.1195L84.3589 62.9042L79.2397 66.1226L84.3589 57.5906L105.023 62.1195Z" fill="#464646"/>
<path d="M121.993 67.0664C123.932 67.0664 125.506 68.6397 125.506 70.5801C125.506 72.5205 123.932 74.0936 121.993 74.0936C120.052 74.0936 118.478 72.5204 118.478 70.58C118.478 68.6396 120.052 67.0664 121.993 67.0664Z" fill="#2B2B2B"/>
<path d="M90.478 67.0659C92.4184 67.066 93.9915 68.6392 93.9915 70.5796C93.9915 72.52 92.4183 74.0932 90.4779 74.0931C88.5375 74.0931 86.9643 72.5199 86.9643 70.5795C86.9643 68.6391 88.5376 67.0659 90.478 67.0659Z" fill="#2B2B2B"/>
<path d="M125.386 126.74H133.313V289.367H125.386V126.74Z" fill="#C4C4C4"/>
<path d="M129.345 118.878C133.417 118.878 136.717 122.179 136.717 126.251C136.717 130.323 133.417 133.624 129.345 133.624C125.274 133.624 121.972 130.323 121.972 126.251C121.972 122.179 125.274 118.878 129.345 118.878Z" fill="#DDDDDC"/>
<path d="M116.349 292.196L129.057 298.057L136.718 285.5L133.313 175.88L116.349 175.973V292.196Z" fill="#C4C4C4"/>
<path d="M141.766 175.972H129.346L129.058 298.056L141.766 292.195V175.972Z" fill="#9DA0A1"/>
<path d="M154.747 182.879L162.322 174.146L154.747 166.571L147.569 173.75H134.782L129.345 168.306L123.909 173.75H112.282L105.104 166.571L96.376 174.146L105.104 182.879L109.322 178.019H123.909L129.345 183.455L134.782 178.019H150.534L154.747 182.879Z" fill="#DDDDDC"/>
<path d="M43.0615 155.627L68.6938 182.879L111.253 175.786L112.7 162.949L107.127 157.369L43.0615 155.627Z" fill="#53AF8A"/>
<path d="M180.699 152.955L144.237 157.182L137.657 164.648L142.264 173.749L160.351 176.334L180.699 152.955Z" fill="#53AF8A"/>
<path d="M111.25 175.786L107.124 157.369L125.203 151.925L111.25 175.786Z" fill="#DFBCA4"/>
<path d="M125.203 151.925L121.97 163.856L123.489 173.749H142.266L144.238 157.182L125.203 151.925Z" fill="#DFBCA4"/>
<path d="M125.204 151.925L123.49 173.749L111.25 175.786L113.46 161.954L125.204 151.925Z" fill="#C3977A"/>
</g>
</g>
<defs>
<clipPath id="clip0_2013_38584">
<rect width="200" height="200" rx="100" fill="white"/>
</clipPath>
</defs>
</svg>
