<svg width="200" height="200" viewBox="0 0 200 200" fill="none" xmlns="http://www.w3.org/2000/svg">
<g clip-path="url(#clip0_2013_38723)">
<rect width="200" height="200" rx="100" fill="#BAD0AC"/>
<mask id="mask0_2013_38723" style="mask-type:luminance" maskUnits="userSpaceOnUse" x="-44" y="12" width="288" height="288">
<path d="M244 12H-44V300H244V12Z" fill="white"/>
</mask>
<g mask="url(#mask0_2013_38723)">
<path d="M162.706 147.63L168.747 131.48L178.258 134.814L186.776 142.59L169.798 157.688L162.319 158.53L162.706 147.63Z" fill="#DFBCA4"/>
<path d="M172.586 142.301L166.74 126.209L161.656 126.31L162.708 147.629L159.306 159.29L167.395 152.857L172.586 142.301Z" fill="#C3977A"/>
<path d="M168.747 131.479L183.637 115.97L193.069 124.79L186.776 142.588L168.747 131.479Z" fill="#C3977A"/>
<path d="M119.628 131.192L134.972 144.491L131.673 153.735L122.321 164.708L99.6182 187.997L106.038 153.026L119.628 131.192Z" fill="#3E8F6E"/>
<path d="M134.972 144.49L155.167 160.87L151.502 168.482L132.474 171.836L122.322 164.708L134.972 144.49Z" fill="#99C26C"/>
<path d="M132.475 171.834L162.743 147.297L178.447 163.612L149.668 183.801L132.475 171.834Z" fill="#738D56"/>
<path d="M121.097 200.433L138.513 253.181L125.878 264.685L111.449 263.303L104.984 243.734L92.7798 235.785L75.6582 263.303L64.6141 270.309L46.4478 261.936L46.6278 209.217L56.1541 183.254L121.097 200.433Z" fill="#53AF8A"/>
<path d="M10.1108 184.119L38.6372 203.415L46.4132 187.849L10.1108 184.119Z" fill="#4F5252"/>
<path d="M19.563 107.36L81.159 107.907L99.501 109.153L71.1654 120.73L47.643 121.666L19.563 107.36Z" fill="#C4C4C4"/>
<path d="M48.17 116.915L19.5644 107.36L17.0732 127.635L16.9292 143.043L13.682 155.139L10.1108 184.119L56.9108 190.83L48.17 116.915Z" fill="#6E7073"/>
<path d="M72.6049 113.883L48.1681 116.914L46.9873 127.62L42.9409 189.195L86.1193 179.755L95.655 109.432L72.6049 113.883Z" fill="#4F5252"/>
<path d="M17.0728 127.635L24.2296 132.164L34.5616 134.007L30.2704 162.908L13.6816 155.139L15.2584 142.352L17.4616 136.973L17.0728 127.635Z" fill="#9DA0A1"/>
<path d="M34.561 134.008L15.2578 142.353L17.0722 127.636L34.561 134.008Z" fill="#C4C4C4"/>
<path d="M112.131 132.783L122.319 164.708L121.095 200.434L103.239 226.023L94.1745 213.819L82.6689 227.765L61.8177 198.49L46.4097 196.085L49.1961 166.616L70.7845 120.866L91.6069 117.617L112.131 132.783Z" fill="#738D56"/>
<path d="M96.2721 163.613L83.7153 197.784L94.1769 205.806L105.337 198.129L96.2721 163.613Z" fill="#4F5252"/>
<path d="M105.337 198.13L83.7153 197.785L94.1769 213.819L105.337 198.13Z" fill="#464646"/>
<path d="M107.273 151.482L96.2713 163.614L85.8457 149.941L97.3153 147.925L107.273 151.482Z" fill="#464646"/>
<path d="M55.4708 160.732V138.931L46.9892 127.62L26.0156 175.644L40.7468 174.888L49.1996 170.223L55.4708 160.732Z" fill="#5A753C"/>
<path d="M71.1654 120.73L46.9878 127.62L55.4694 160.733L71.1654 120.73Z" fill="#3E8F6E"/>
<path d="M61.8204 198.49L66.378 204.89L52.338 217.31L46.6284 209.217L50.0412 199.908L61.8204 198.49Z" fill="#C3977A"/>
<path d="M26.0156 175.643L42.5828 212.076L61.8212 198.488L49.1996 170.222L26.0156 175.643Z" fill="#99C26C"/>
<path d="M97.3163 147.924L86.5667 128.981L71.1659 120.73L68.2715 162.187L97.3163 147.924Z" fill="#99C26C"/>
<path d="M119.627 131.192L101.692 134.993L97.3145 147.925L122.32 164.708L119.627 131.192Z" fill="#99C26C"/>
<path d="M80.2313 13.6943L37.3481 52.3943L104.985 43.9408L80.2313 13.6943Z" fill="#3E8F6E"/>
<path d="M116.491 115.848L104.986 125.1V142.351L119.63 131.191L116.491 115.848Z" fill="#5A753C"/>
<path d="M75.7092 99.1511L71.166 120.73L84.6516 134.755L83.7156 117.245L75.7092 99.1511Z" fill="#5A753C"/>
<path d="M49.1992 104.343L75.7096 99.1513L77.1424 91.5121L72.556 83.0737L61.9648 89.7985L49.1992 104.343Z" fill="#35785D"/>
<path d="M161.879 53.3879L150.805 76.8167L147.263 106.193L168.092 95.9759L167.048 59.0183L166.263 54.3527L161.879 53.3879Z" fill="#3E8F6E"/>
<path d="M154.671 76.0969L161.252 99.3313L147.263 106.193L149.243 97.1497L154.103 94.6729L152.303 87.9841L154.671 76.0969Z" fill="#99C26C"/>
<path d="M161.879 53.3887L152.694 86.5807L150.079 96.0257L143.339 120.385L116.49 115.849L102.774 137.161L97.3165 147.925L91.6501 129.097L72.5557 83.0743L107.412 51.3151L144.037 33.9199L161.879 53.3887Z" fill="#DFBCA4"/>
<path d="M136.997 37.2608L162.037 53.5616L153.204 39.8888L144.037 31.04L137.983 32.7608L136.997 37.2608Z" fill="#8A6651"/>
<path d="M107.41 51.3145L94.6145 111.24L105.508 120.384L110.735 129.096L104.983 142.351L97.3145 147.924L84.6504 134.755L75.708 99.1513L77.1401 91.5121L72.5537 83.0737L107.41 51.3145Z" fill="#C3977A"/>
<path d="M107.41 51.3145L94.6584 72.2521L82.0224 80.3305L95.22 85.5145L75.7088 99.1513L72.5537 83.0737L85.2624 69.2281L107.41 51.3145Z" fill="#8A6651"/>
<path d="M94.2782 63.2808L95.2214 85.5144L67.091 88.0488L63.7646 72.2304L69.0991 68.4093L74.039 80.3448L89.2958 79.5888L88.2806 67.3632L94.2782 63.2808Z" fill="#99C26C"/>
<path d="M116.49 115.847L84.9395 109.202L110.737 129.095L116.49 115.847Z" fill="#8A6651"/>
<path d="M107.411 51.3147L67.091 65.2395L39.7886 83.4267L49.1983 104.343L107.411 51.3147Z" fill="#3E8F6E"/>
<path d="M80.2787 13.7266L40.1996 55.3237L107.082 42.1727L80.2787 13.7266Z" fill="#3E8F6E"/>
<path d="M37.3475 52.3953L19.5635 69.1353L39.7883 83.4273L41.4659 65.2401L37.3475 52.3953Z" fill="#3E8F6E"/>
<path d="M80.2324 13.6953L98.0013 41.8905L144.037 33.9201V27.7922L136.018 14.0481L80.2324 13.6953Z" fill="#71C8A6"/>
<path d="M144.036 33.9189L167.047 59.0181L179.598 43.6814L136.016 14.0469L144.036 33.9189Z" fill="#53AF8A"/>
<path d="M144.037 33.9199L39.7885 83.4271L37.3477 52.3951L144.037 33.9199Z" fill="#53AF8A"/>
<path d="M130.37 83.7229L125.747 62.8644L120.326 52.3956L134.272 52.05L134.632 58.3356L130.37 83.7229Z" fill="#C3977A"/>
<path d="M140.572 59.4227L144.036 54.1379L155.887 60.0707L137.527 76.3355L140.572 59.4227Z" fill="#C3977A"/>
<path d="M136.001 84.7952L132.336 88.1792L130.371 83.7224L136.001 84.7952Z" fill="#8A6651"/>
<path d="M140.573 59.4224L136.001 84.7952L130.371 83.7224L134.633 58.3352L140.573 59.4224Z" fill="#E8C9B6"/>
<path d="M144.035 54.1369L152.049 52.7473L155.886 60.0697L144.035 54.1369Z" fill="#3E8F6E"/>
<path d="M134.272 52.0498L128.346 48.2122L120.326 52.3954L134.272 52.0498Z" fill="#3E8F6E"/>
<path d="M145.691 98.4169L128.173 109.203L111.8 92.4409L145.691 98.4169Z" fill="#738D56"/>
<path d="M141.329 98.7116L132.495 99.0191L130.371 99.0932L127.307 98.0212L116.05 94.082L125.424 102.744L132.106 103.867L141.329 98.7116Z" fill="white"/>
<path d="M145.691 98.4169L131.334 93.7081L111.8 92.4409L127.63 98.5602L130.369 99.6193L145.691 98.4169Z" fill="#446024"/>
<path d="M151.302 69.8546C151.302 71.8426 149.69 73.4546 147.702 73.4546C145.713 73.4546 144.102 71.8426 144.102 69.8546C144.102 67.8667 145.713 66.2546 147.702 66.2546C149.69 66.2546 151.302 67.8667 151.302 69.8546Z" fill="#2B2B2B"/>
<path d="M127.944 64.599C127.944 66.5869 126.333 68.199 124.344 68.199C122.356 68.199 120.744 66.5869 120.744 64.599C120.744 62.6104 122.356 60.999 124.344 60.999C126.333 60.999 127.944 62.6104 127.944 64.599Z" fill="#2B2B2B"/>
</g>
</g>
<defs>
<clipPath id="clip0_2013_38723">
<rect width="200" height="200" rx="100" fill="white"/>
</clipPath>
</defs>
</svg>
