<svg width="200" height="200" viewBox="0 0 200 200" fill="none" xmlns="http://www.w3.org/2000/svg">
<g clip-path="url(#clip0_2013_37909)">
<rect width="200" height="200" rx="100" fill="#CABDD1"/>
<mask id="mask0_2013_37909" style="mask-type:luminance" maskUnits="userSpaceOnUse" x="-12" y="12" width="288" height="288">
<path d="M276 12H-12V300H276V12Z" fill="white"/>
</mask>
<g mask="url(#mask0_2013_37909)">
<path d="M59.5048 237.288L97.4415 228.684L138.798 238.324L128.538 202.62L106.873 177.686L72.3566 209.56L69.5054 212.26L59.5048 237.288Z" fill="#532F42"/>
<path d="M210.896 150.347L204.257 155.178L199.246 152.399L199.246 145.739L210.896 150.347Z" fill="#8A6651"/>
<path d="M190.86 137.884L210.314 135.723L210.897 150.347L190.334 147.2L190.86 137.884Z" fill="#C3977A"/>
<path d="M192.667 151.334L253.816 109.81L256.609 113.885L195.115 155.178L192.667 151.334Z" fill="#9DA0A1"/>
<path d="M190.743 152.148L192.666 151.334L195.114 155.179L193.89 156.749L190.743 152.148Z" fill="#4F5252"/>
<path d="M188.995 139.864L206.758 143.529L204.893 147.784L188.239 148.425L188.995 139.864Z" fill="#DFBCA4"/>
<path d="M191.867 134.623L175.437 136.488L169.583 143.328L171.448 151.204L189.843 155.042L191.867 134.623Z" fill="#95627B"/>
<path d="M150.769 135.71L175.436 136.488L171.447 151.204L150.15 156.749L150.769 135.71Z" fill="#734D5F"/>
<path d="M118.794 140.836L126.102 139.029L129.313 134.983L150.769 135.71L162.534 146.747L150.15 156.748L122.315 163.696L118.794 140.836Z" fill="#734D5F"/>
<path d="M2.2334 103.06L24.417 133.119L30.6378 133.328L36.2824 114.615L33.0207 107.257L2.2334 103.06Z" fill="#464646"/>
<path d="M120.091 81.4441L49.3446 140.687L24.4181 133.12L52.245 49.4698L120.091 81.4441Z" fill="#4F5252"/>
<path d="M120.09 81.4434L112.055 108.242L49.3438 140.686L81.786 63.4151L120.09 81.4434Z" fill="#464646"/>
<path d="M128.844 28.5315L147.188 52.9969L132.113 90.6243L117.237 27.0845L128.844 28.5315Z" fill="#464646"/>
<path d="M129.522 25.1615L147.191 52.9964L117.239 27.084L129.522 25.1615Z" fill="#464646"/>
<path d="M87.021 136.589L54.6271 60.8741L73.131 47.7051L92.3553 70.6152L113.042 118.869L105.993 151.723L87.021 136.589Z" fill="#C3977A"/>
<path d="M125.783 34.4414L136.829 116.428L91.7862 124.463L72.3019 47.9637L125.783 34.4414Z" fill="#DFBCA4"/>
<path d="M112.782 120.576L105.993 151.882L86.8692 124.983L112.782 120.576Z" fill="#8A6651"/>
<path d="M67.688 56.7268L80.1803 78.9602L76.6595 82.0706L79.1439 112.023L81.5777 123.996L45.9225 68.3335L67.688 56.7268Z" fill="#464646"/>
<path d="M76.66 82.0711L65.9825 85.2321L71.6779 99.4808L81.1098 95.5999L76.66 82.0711Z" fill="#DFBCA4"/>
<path d="M74.7372 85.9589L69.5532 87.4566L75.7741 91.2941L74.7372 85.9589Z" fill="#8A6651"/>
<path d="M77.3809 93.6767L80.0234 101.712L75.7754 103.008L73.7017 94.872L77.3809 93.6767Z" fill="#734D5F"/>
<path d="M68.8825 150.479L57.737 155.922L53.4388 182.929L69.502 192.772L76.0828 189.82L77.6956 181.993L78.7826 166.499L67.0177 141.256L68.8825 150.479Z" fill="#734D5F"/>
<path d="M59.4011 145.244L57.7379 155.922L74.3772 164.166L78.006 160.588L74.269 134.156L60.589 137.476L59.4011 145.244Z" fill="#734D5F"/>
<path d="M53.4385 182.929L69.5017 192.772L76.0825 189.819L77.6953 181.992L53.4385 182.929Z" fill="#734D5F"/>
<path d="M94.0182 247.759L72.771 209.253L77.4294 197.797L107.18 172.662L126.821 197.228L124.489 248.068L94.0182 247.759Z" fill="#95627B"/>
<path d="M75.8814 247.55L72.771 209.253L77.4294 197.797L107.18 172.662L113.501 193.341L94.0182 247.759L75.8814 247.55Z" fill="#734D5F"/>
<path d="M68.6758 141.514L74.2702 134.156L77.0206 133.119L91.1686 141.205L106.303 148.462L111.379 157.634L106.923 181.626L96.5042 193.966L72.9819 211.218L77.6977 181.993L68.6758 141.514Z" fill="#95627B"/>
<path d="M126.563 183.079L132.525 206.5L113.503 193.339L119.724 204.435L106.922 181.624L106.302 148.462L118.845 139.181L115.943 133.219L127.139 136.02L129.105 139.289L126.563 183.079Z" fill="#B3879D"/>
<path d="M102.933 162.3L106.561 158.722L109.564 162.401L106.612 166.08L102.933 162.3Z" fill="#D1A0B8"/>
<path d="M103.193 175.563L106.771 172.143L109.882 175.772L106.923 179.242L103.193 175.563Z" fill="#D1A0B8"/>
<path d="M96.5036 193.966L59.5031 237.289L58.4157 207.387L77.6971 181.993L96.5036 193.966Z" fill="#B3879D"/>
<path d="M126.564 183.08L141.907 215.214L138.797 238.325L119.724 204.435L113.503 193.34L126.564 183.08Z" fill="#D1A0B8"/>
<path d="M113.505 193.34L96.5055 193.966L106.924 181.624L113.505 193.34Z" fill="#D1A0B8"/>
<path d="M109.201 108.913L102.052 106.321L109.612 104.046L115.213 105.183L121.326 104.355L123.508 104.665L113.449 109.23L109.201 108.913Z" fill="white"/>
<path d="M123.508 104.665L113.399 101.346L102.052 106.321L113.285 105.454L123.508 104.665Z" fill="#734D5F"/>
<path d="M112.831 111.612L123.508 104.664L113.5 107.357L102.052 106.32L112.831 111.612Z" fill="#B3879D"/>
<path d="M113.139 69.738L118.324 91.8131L110.397 93.0084L107.127 70.5156L113.139 69.738Z" fill="#E8C9B6"/>
<path d="M113.918 96.6367L118.324 91.8126L110.397 93.0079L113.918 96.6367Z" fill="#8A6651"/>
<path d="M92.044 72.5314L107.128 70.5152L110.397 93.0079L92.044 72.5314Z" fill="#C3977A"/>
<path d="M117.179 86.8379L124.804 66.8866L113.14 69.7379L117.179 86.8379Z" fill="#C3977A"/>
<path d="M90.0785 67.6645L103.19 71.0411L85.8809 73.1078L90.0785 67.6645Z" fill="#464646"/>
<path d="M128.166 65.8498L113.139 69.738L125.113 60.6659L128.166 65.8498Z" fill="#464646"/>
<path d="M77.0183 133.12L60.5879 137.418L59.4 145.194L59.4 145.245L80.5967 138.196L77.0183 133.12Z" fill="#B3879D"/>
<path d="M111.793 124.415L115.941 133.22L118.475 136.899L118.842 139.182L113.558 147.116L106.3 148.463L111.793 124.415Z" fill="#734D5F"/>
<path d="M77.0172 133.12L81.4235 123.638L106.3 148.463L87.6949 148.413L77.0172 133.12Z" fill="#734D5F"/>
<path d="M115.943 133.22L129.313 134.984L129.105 139.289L118.845 139.182L117.858 137.108L115.943 133.22Z" fill="#D1A0B8"/>
<path d="M122.564 70.4211C120.731 70.4211 119.245 71.9072 119.245 73.7403C119.245 75.5735 120.731 77.0595 122.564 77.0595C124.398 77.0595 125.884 75.5734 125.884 73.7403C125.884 71.9071 124.397 70.4211 122.564 70.4211Z" fill="#2B2B2B"/>
<path d="M97.538 74.7341C95.7048 74.7341 94.2188 76.2202 94.2188 78.0533C94.2188 79.8865 95.7049 81.3725 97.538 81.3725C99.3712 81.3725 100.857 79.8864 100.857 78.0532C100.857 76.2201 99.3711 74.7341 97.538 74.7341Z" fill="#2B2B2B"/>
<path d="M122.673 11.9998L52.2432 49.4696L37.8362 65.8498L80.1796 78.9604L136.202 33.4549L122.673 11.9998Z" fill="#4F5252"/>
<path d="M122.673 11.9998L48.5646 46.4161L37.8362 65.8498L122.673 11.9998Z" fill="#464646"/>
<path d="M122.674 11.9999L80.1801 78.9605L147.816 33.6644L122.674 11.9999Z" fill="#6E7073"/>
</g>
</g>
<defs>
<clipPath id="clip0_2013_37909">
<rect width="200" height="200" rx="100" fill="white"/>
</clipPath>
</defs>
</svg>
