<svg width="200" height="200" viewBox="0 0 200 200" fill="none" xmlns="http://www.w3.org/2000/svg">
<g clip-path="url(#clip0_2013_38087)">
<rect width="200" height="200" rx="100" fill="#CABDD1"/>
<mask id="mask0_2013_38087" style="mask-type:luminance" maskUnits="userSpaceOnUse" x="-9" y="12" width="288" height="288">
<path d="M279 12H-9V300H279V12Z" fill="white"/>
</mask>
<g mask="url(#mask0_2013_38087)">
<path d="M197.388 169.571L186.04 171.617L185.608 128.561L187.74 125.248L190.993 122.887L197.388 169.571Z" fill="#95627B"/>
<path d="M190.994 122.888L185.609 128.561L162.014 108.056L162.202 105.766L164.383 104.765L190.994 122.888Z" fill="#B3879D"/>
<path d="M220.175 292.303L195.291 288.02L166.125 292.303V197.235L168.263 189.747L166.125 176.254L220.175 162.574L217.699 200.965L220.175 235.431L217.043 267.385L220.175 292.303Z" fill="#90759F"/>
<path d="M220.175 162.574L166.125 175.447V197.235L220.175 235.431V162.574Z" fill="#584164"/>
<path d="M230.716 171.034L155.577 189.747V176.535L230.716 157.822V171.034Z" fill="#785D87"/>
<path d="M158.349 94.9223L154.945 100.474L150.782 105.384L146.88 98.7455L150.933 93.1223L158.349 94.9223Z" fill="#B3879D"/>
<path d="M158.349 94.9224L150.782 105.384L163.793 109.603L166.356 106.111L158.349 94.9224Z" fill="#95627B"/>
<path d="M128.074 131.289L135.41 153.235L133.265 173.589L119.722 183.028L119.616 178.363L118.98 150.059L128.074 131.289Z" fill="#B3879D"/>
<path d="M130.48 169.752L133.266 173.59L148.781 175.433L145.78 191.273L121.89 192.49L120.321 174.842L130.48 169.752Z" fill="#95627B"/>
<path d="M129.849 172.012L128.964 180.27L139.944 190.653L148.778 175.432L140.591 174.215L129.849 172.012Z" fill="#734D5F"/>
<path d="M138.268 165.013L134.236 160.673L148.989 141.55L152.647 144.976L146.656 155.25L144.23 162.695L138.268 165.013Z" fill="#C3977A"/>
<path d="M138.269 161.407L150.372 173.849L141.667 182.518L135.079 176.664L138.269 161.407Z" fill="#C3977A"/>
<path d="M135.41 153.235L131.45 153.371L129.852 172.012L135.079 176.663L138.268 165.013L135.41 153.235Z" fill="#DFBCA4"/>
<path d="M138.269 165.013L146.657 155.25L155.189 169.327L148.781 175.433L138.269 165.013Z" fill="#E8C9B6"/>
<path d="M104.913 41.873L112.66 33.4922L121.48 31.8362L134.281 102.13L111.126 108.019L83.5719 109.913L70.1799 62.1338L67.5015 39.6122L86.5887 37.3082L104.913 41.873Z" fill="#DFBCA4"/>
<path d="M100.139 113.053L134.281 102.13C117.504 105.039 100.728 107.948 83.9517 110.857C80.3927 93.889 76.8338 76.9208 73.2755 59.9525L67.5011 39.6125L56.2043 53.4221L59.4083 64.143L67.2563 77.2757L63.7139 78.2189L61.7267 82.0422L57.5579 79.0397L54.1955 71.7533L50.4587 77.4918L45.9155 80.0334L52.6547 85.5845L55.7003 92.3381L57.6515 96.5861L58.6595 105.104L63.4835 125.977L105.661 123.968L100.139 113.053Z" fill="#C3977A"/>
<path d="M125.201 52.2696L128.513 27.8184L115.985 29.8488L125.201 52.2696Z" fill="#464646"/>
<path d="M61.7267 82.0425L63.4835 86.0601L55.7003 92.3385L45.9155 80.0337L54.1955 71.7537L61.7267 82.0425Z" fill="#DFBCA4"/>
<path d="M104.913 41.873L128.514 27.8186L103.408 12.0002L101.457 28.3802L104.913 41.873Z" fill="#6E7073"/>
<path d="M104.912 41.873L103.408 12.0002L38.1323 36.6026L52.2155 40.9082L67.5011 39.6122L104.912 41.873Z" fill="#8F8F8F"/>
<path d="M38.1324 36.6028L35.6196 74.7628L47.01 65.1508L56.2044 53.422L67.5012 39.6124L38.1324 36.6028Z" fill="#6E7073"/>
<path d="M56.2044 53.4221L67.2564 77.2757L61.7268 82.0421L54.1956 71.7533L45.9156 80.0333L35.6196 74.7629L56.2044 53.4221Z" fill="#464646"/>
<path d="M50.4307 80.5367L53.4475 77.5271L57.2131 83.7983L50.4307 80.5367Z" fill="#8A6651"/>
<path d="M55.6997 92.3378L61.2293 87.8162L58.7525 105.499L55.6997 92.3378Z" fill="#8A6651"/>
<path d="M74.8735 111.036L134.281 102.13L105.661 114.679V123.967L93.0665 118.677L74.8735 111.036Z" fill="#8A6651"/>
<path d="M119.722 91.9705L104.502 92.9857L92.6576 89.3785L94.6016 84.6697L88.0928 88.8313L89.7848 96.9889L92.0672 92.5969L104.502 96.2041L119.722 91.9705Z" fill="#8A6651"/>
<path d="M109.679 51.6647L107.418 57.1871L107.08 62.9183L109.974 69.9383L122.74 49.1519L116.713 42.3767L109.679 51.6647Z" fill="#C3977A"/>
<path d="M107.417 48.6556L116.712 42.3772L122.739 49.1524L119.218 51.9172L115.078 47.1508L109.678 51.6652L107.417 48.6556Z" fill="#464646"/>
<path d="M79.3013 56.9355L94.7165 64.9419L103.659 80.5371L102.586 66.0291L100.138 58.1955L79.3013 56.9355Z" fill="#C3977A"/>
<path d="M100.138 58.1951L80.5613 52.1687L79.3013 56.9351L96.6245 62.4647L100.138 58.1951Z" fill="#464646"/>
<path d="M107.418 57.1873L111.687 78.5281L108.282 80.8321L103.659 80.5369L100.139 58.1953L107.418 57.1873Z" fill="#E8C9B6"/>
<path d="M111.688 78.5281L108.174 84.3025L103.66 80.5369L111.688 78.5281Z" fill="#8A6651"/>
<path d="M106.2 124.591L63.5849 125.131L61.7402 129.271L106.2 124.591Z" fill="#C3987B"/>
<path d="M60.1665 127.827L61.1378 141.846L97.4589 159.5L105.852 124.103L63.4591 126.04L60.1665 127.827Z" fill="#FDFDFD"/>
<path d="M63.619 125.487L94.615 148.563L76.7806 162.731L54.8278 176.261L47.3686 159.233L42.2998 137.136L63.619 125.487Z" fill="#95627B"/>
<path d="M105.661 123.967L128.075 131.289L121.242 154.02L108.642 156.713L94.6162 148.562L105.661 123.967Z" fill="#95627B"/>
<path d="M54.8281 176.26L60.9265 197.667L68.4577 204.132L100.743 207.437L100.894 175.434L94.6153 148.562L54.8281 176.26Z" fill="#734D5F"/>
<path d="M94.6157 148.562L121.241 154.019L124.553 203.491L100.743 207.437L94.6157 148.562Z" fill="#532F42"/>
<path d="M49.977 179.263L68.4594 204.132L57.0258 217.812L38.0322 201.411L49.977 179.263Z" fill="#95627B"/>
<path d="M42.3017 137.137L25.7705 190.907L38.0321 201.411L54.8297 176.262L42.3017 137.137Z" fill="#B3879D"/>
<path d="M119.029 59.4194C119.029 61.1013 117.665 62.465 115.983 62.465C114.301 62.465 112.938 61.1013 112.938 59.4194C112.938 57.7375 114.301 56.3738 115.983 56.3738C117.664 56.3781 119.025 57.7389 119.029 59.4194Z" fill="#2B2B2B"/>
<path d="M94.7152 64.9416C94.7152 66.6235 93.3515 67.9872 91.6696 67.9872C89.9877 67.9872 88.624 66.6235 88.624 64.9416C88.624 63.2597 89.9877 61.896 91.6696 61.896C93.3515 61.896 94.7152 63.2597 94.7152 64.9416Z" fill="#2B2B2B"/>
</g>
</g>
<defs>
<clipPath id="clip0_2013_38087">
<rect width="200" height="200" rx="100" fill="white"/>
</clipPath>
</defs>
</svg>
