<svg width="200" height="200" viewBox="0 0 200 200" fill="none" xmlns="http://www.w3.org/2000/svg">
<g clip-path="url(#clip0_2013_39367)">
<rect width="200" height="200" rx="100" fill="#BBE6E7"/>
<mask id="mask0_2013_39367" style="mask-type:luminance" maskUnits="userSpaceOnUse" x="-44" y="12" width="288" height="288">
<path d="M244 12H-44V300H244V12Z" fill="white"/>
</mask>
<g mask="url(#mask0_2013_39367)">
<path d="M132.301 29.5469L80.6194 62.6237L70.1283 52.7525L64.333 42.9533L70.2946 38.6405L132.301 29.5469Z" fill="#27788B"/>
<path d="M40.0842 53.2629L31.8114 54.9117L-18.3726 90.1125L42.309 77.9445L42.6618 63.4149L40.0842 53.2629Z" fill="#399FB9"/>
<path d="M42.3098 77.9446L80.621 62.623L64.3346 42.9526L51.785 46.2646L40.085 53.263L42.3098 77.9446Z" fill="#308FA6"/>
<path d="M61.208 61.3696L48.4424 41.3464L54.7064 67.1584L65.0312 89.7304L74.2997 112.765L80.9396 107.877L72.872 88.5352L61.208 61.3696Z" fill="#5EC0D9"/>
<path d="M55.0515 46.7183L46.9731 50.3039L54.7059 67.1591L61.2075 61.3703L55.0515 46.7183Z" fill="#399FB9"/>
<path d="M69.388 40.8144L32.9992 56.2224L32.4736 41.2032L35.8864 20.3376L39.6808 17.3064L43.612 17.4792L60.172 29.5968L69.388 40.8144Z" fill="#5EC0D9"/>
<path d="M43.6113 17.4783L132.301 29.5455L69.3873 40.8135L43.6113 17.4783Z" fill="#399FB9"/>
<path d="M35.8866 20.3376L-18.3726 90.1129L32.9994 56.2224L35.8866 20.3376Z" fill="#308FA6"/>
<path d="M41.5005 12.0002L33.8901 14.7578L35.8853 20.3378L43.6101 17.4794L41.5005 12.0002Z" fill="#399FB9"/>
<path d="M150.79 141.304L130.982 161.349L121.414 181.926L148.529 198.623L157.169 177.484L156.269 160.549L150.79 141.304Z" fill="#50A9AA"/>
<path d="M156.265 160.549H164.581H187.924L189.255 167.145L186.757 179.161L148.525 198.623L156.265 160.549Z" fill="#71CACC"/>
<path d="M185.867 160.551L199.482 159.434L218.922 160.551L186.759 179.164L185.867 160.551Z" fill="#C3977A"/>
<path d="M231.716 154.737L214.357 154.25L199.206 159.2L199.234 159.306L218.773 160.736L231.716 154.737Z" fill="#8B6651"/>
<path d="M-2.07227 161.724L3.14053 201.123L5.10613 215.58L13.9837 187.832L17.0149 170.393L8.87893 164.806L-2.07227 161.724Z" fill="#1C7678"/>
<path d="M150.791 141.838L120.27 193.887L77.6823 178.522L5.74707 148.267L37.9671 93.5042L67.4201 101.732L108.412 113.182L150.791 141.838Z" fill="#1C7678"/>
<path d="M73.1281 111.078L75.2902 128.716L80.7089 146.726L99.2633 150.34L105.484 153.054L116.435 154.437L125.745 158.368L135.214 147.672L140.562 150.84L135.859 167.369L123.031 189.313L99.9041 276.146L-2.50146 244.242L17.0105 170.392L-2.07667 161.723L5.74253 148.266L21.3737 154.379L66.0857 155.769L66.4162 132.145L65.5969 111.111L73.1281 111.078Z" fill="#C4C4C4"/>
<path d="M17.0122 170.392L56.3026 201.222L43.2274 223.291L74.7555 259.233L107.451 247.591L119.208 203.62L36.5818 164.539L17.0122 170.392Z" fill="#8F8F8F"/>
<path d="M65.0315 89.7319L37.9667 93.5047L17.0146 170.394L42.9634 165.022L66.0899 155.77L67.105 124.184L65.0315 89.7319Z" fill="#71CACC"/>
<path d="M132.443 34.9675L156.526 52.6147L180.884 49.7995L150.788 141.837L121.384 135.4L105.486 153.055L92.8348 131.253L76.8804 87.9235L82.7332 88.3987L86.0244 86.6491L83.7931 68.7283L100.438 63.5731L102.828 83.4019L111.44 81.3283L104.528 37.4083L132.443 34.9675Z" fill="#DFBCA4"/>
<path d="M132.443 34.9675L104.003 127.588L120.85 132.902L112.506 141.679L105.486 153.055L102.088 140.721L96.0749 131.678L76.8804 87.9235L86.0244 86.6995L96.5004 85.7419L101.605 84.8419L111.972 82.8187L106.177 37.1419L132.443 34.9675Z" fill="#C3977A"/>
<path d="M96.2915 80.0542L95.4347 71.8606L88.4219 72.559L96.2915 80.0542Z" fill="#8A6651"/>
<path d="M86.0259 86.6492L101.607 84.842L86.9324 93.4532L86.0259 86.6492Z" fill="#8A6651"/>
<path d="M147.491 97.8662L141.27 100.631L138.131 94.9358L147.491 97.8662Z" fill="#8A6651"/>
<path d="M132.76 68.5126L139.305 73.783L138.131 94.9366L144.87 80.0542L146.166 68.4622L132.76 68.5126Z" fill="#C3977A"/>
<path d="M155.576 71.5442L149.219 80.0546L149.988 89.7314L160.04 78.1394L167.111 77.2898L155.576 71.5442Z" fill="#C3977A"/>
<path d="M103.572 127.373L96.0771 131.678L99.0003 142.262L105.488 153.055L113.732 144.012L120.852 132.902L103.572 127.373Z" fill="#8A6651"/>
<path d="M156.635 67.9299L168.385 73.2507L167.111 77.2899L155.576 71.5443L156.635 67.9299Z" fill="#464646"/>
<path d="M147.282 64.8476L133.35 64.3652L132.76 68.5124L146.166 68.462L147.282 64.8476Z" fill="#464646"/>
<path d="M118.62 98.8228L156.268 110.681L136.807 115.52L118.62 98.8228Z" fill="#C3977A"/>
<path d="M127.663 104.137L147.974 110.466L137.124 113.655L127.663 104.137Z" fill="white"/>
<path d="M147.491 17.8464L116.812 20.82L123.882 31.2456L132.443 34.968L156.318 55.3296L154.562 37.0416L147.491 17.8464Z" fill="#464646"/>
<path d="M116.812 20.8201L91.6118 24.0097L100.49 34.6441L107.669 38.6329L132.443 34.9681L116.812 20.8201Z" fill="#6E7073"/>
<path d="M91.6122 24.01L83.793 68.7292L99.4242 66.5476L101.606 84.8428L113.198 83.4604L107.668 38.6332L91.6122 24.01Z" fill="#464646"/>
<path d="M156.317 55.3296L147.49 17.8464L180.884 49.8L156.317 55.3296Z" fill="#8F8F8F"/>
<path d="M146.165 68.4619L155.575 71.5435L147.49 97.8667L138.13 94.9363L146.165 68.4619Z" fill="#E8C9B6"/>
<path d="M76.8813 87.9241L77.8389 124.925L80.7117 146.726L105.487 153.055L96.0765 131.678L76.8813 87.9241Z" fill="#50A9AA"/>
<path d="M120.852 132.902L105.487 153.055L116.229 155.87L125.748 158.369L133.3 148.958L138.614 138.223L120.852 132.902Z" fill="#71CACC"/>
<path d="M66.0897 155.77L80.7129 146.726L76.8825 87.9241L65.0312 89.7313L66.0897 155.77Z" fill="#DDDDDC"/>
<path d="M125.749 158.369L134.31 170.018L150.79 141.837L138.615 138.223L125.749 158.369Z" fill="#DDDDDC"/>
<path d="M237.587 110.145H169.626V122.262L215.094 123.861L237.587 122.262V110.145Z" fill="#308FA6"/>
<path d="M237.587 131.86L207.728 133.213L169.626 131.86V122.262H237.587V131.86Z" fill="#5EC0D9"/>
<path d="M237.587 131.86H169.626V141.457L204.82 142.328L237.587 141.457V131.86Z" fill="#399FB9"/>
<path d="M237.587 146.252L203.948 146.641L169.626 146.252V141.457H237.587V146.252Z" fill="#5EC0D9"/>
<path d="M237.587 146.252H169.626V150.954L206.857 151.681L237.587 150.954V146.252Z" fill="#308FA6"/>
<path d="M237.587 155.756L205.252 156.728L169.626 155.756V150.953H237.587V155.756Z" fill="#5EC0D9"/>
<path d="M242.625 155.756H164.584V160.551H242.625V155.756Z" fill="#27788B"/>
<path d="M183.196 110.144H169.581L176.414 116.883L183.196 110.144H196.769L203.558 116.883L210.391 110.144H223.963L230.795 116.883L237.585 110.144H223.963L217.18 116.883L210.391 110.144H196.769L189.935 116.883L183.196 110.144Z" fill="#5EC0D9"/>
<path d="M192.893 86.9237L189.841 81.9341L186.831 86.9237L189.841 91.9637L192.893 86.9237Z" fill="#E4C728"/>
<path d="M179.129 86.9237L176.169 81.9341L173.115 86.9237L176.169 91.9637L179.129 86.9237Z" fill="#E4C728"/>
<path d="M191.778 90.1707H187.948V110.575H191.778V90.1707Z" fill="#308FA6"/>
<path d="M178.011 90.1709H174.231V110.576H178.011V90.1709Z" fill="#308FA6"/>
<path d="M211.506 102.339H195.702L203.557 110.288L211.506 102.339Z" fill="#27788B"/>
<path d="M211.506 102.339L203.557 94.4404L195.702 102.339H211.506Z" fill="#5EC0D9"/>
<path d="M78.1064 176.341L90.7064 180.971L84.3272 184.743L78.1064 176.341Z" fill="#C3977A"/>
<path d="M103.464 173.474L116.87 179.104L138.348 214.997L77.8392 249.131L73.1592 240.787L125.748 210.958L103.464 173.474Z" fill="#27788B"/>
<path d="M112.981 181.394L116.868 179.104L103.462 173.474L106.659 178.788L109.633 181.019L112.981 181.394Z" fill="#27788B"/>
<path d="M106.661 178.789L112.983 181.394L131.753 213.456L127.023 212.974L125.748 210.958L114.581 195.537L106.661 178.789Z" fill="#DDDDDC"/>
<path d="M103.463 173.474L46.1514 207.185L65.6137 245.093L125.747 210.958L103.463 173.474Z" fill="#399FB9"/>
<path d="M85.817 207.877L66.8378 211.808L56.3042 201.224L63.8066 196.602L85.817 207.877Z" fill="#27788B"/>
<path d="M78.1066 176.341L66.3562 181.021L59.6602 186.925L67.9546 206.228L79.7554 201.015L90.3394 192.93L78.1066 176.341Z" fill="#DFBCA4"/>
<path d="M90.3379 192.929L85.8163 207.877L67.9531 206.228L90.3379 192.929Z" fill="#8A6651"/>
<path d="M17.0146 170.393L59.6603 186.925L78.1067 176.341L66.0899 155.77L17.0146 170.393Z" fill="#50A9AA"/>
<path d="M159.132 78.5134C157.467 78.4774 156.087 79.7986 156.051 81.464C156.05 81.5079 156.05 81.5511 156.051 81.595C155.968 83.2985 157.283 84.7472 158.987 84.8293C160.691 84.9113 162.139 83.5973 162.221 81.8931C162.226 81.7937 162.226 81.6944 162.221 81.595C162.258 79.9297 160.936 78.5494 159.27 78.5134C159.224 78.5127 159.178 78.5127 159.132 78.5134Z" fill="#2B2B2B"/>
<path d="M136.964 72.48C135.246 72.4721 133.846 73.8581 133.838 75.576V75.5832C133.838 77.3011 135.23 78.6943 136.948 78.6951C138.665 78.6958 140.058 77.304 140.059 75.5861V75.5832C140.063 73.8732 138.68 72.4836 136.97 72.48H136.964Z" fill="#2B2B2B"/>
</g>
</g>
<defs>
<clipPath id="clip0_2013_39367">
<rect width="200" height="200" rx="100" fill="white"/>
</clipPath>
</defs>
</svg>
