<svg width="200" height="200" viewBox="0 0 200 200" fill="none" xmlns="http://www.w3.org/2000/svg">
<g clip-path="url(#clip0_2013_40146)">
<rect width="200" height="200" rx="100" fill="#E7D88E"/>
<mask id="mask0_2013_40146" style="mask-type:luminance" maskUnits="userSpaceOnUse" x="-44" y="12" width="288" height="288">
<path d="M244 12H-44V300H244V12Z" fill="white"/>
</mask>
<g mask="url(#mask0_2013_40146)">
<path d="M116.087 127.737L148.529 161.831L145.421 168.289L126.829 161.148L116.57 152.385L117.717 137.437L116.087 127.737Z" fill="#DFBCA4"/>
<path d="M126.832 161.147L163.093 152.384L166.025 155.067L166.687 162.811L143.923 173.756L126.832 161.147Z" fill="#C3977A"/>
<path d="M166.665 153.79L175.715 145.554L179.49 151.934L176.534 161.904L166.683 162.811L165.088 158.182L166.665 153.79Z" fill="#8A6651"/>
<path d="M186.241 170.539L180.812 172.691L174.924 157.844L173.817 154.283L170.275 146.116L167.153 138.243L172.581 136.09L175.641 143.809L179.285 154.11L181.289 158.052L186.241 170.539Z" fill="#9E7700"/>
<path d="M182.954 162.253L176.534 161.904L167.153 138.242L172.581 136.09L182.954 162.253Z" fill="#755700"/>
<path d="M175.262 142.848L181.618 141.716L187.217 155.417L179.066 160.499L175.387 153.12L175.262 142.848Z" fill="#C3977A"/>
<path d="M163.092 152.386L165.089 158.182L170.517 155.13L171.873 150.573L176.143 154.635L179.401 153.571L175.261 142.849L169.93 145.241L163.092 152.386Z" fill="#DFBCA4"/>
<path d="M178.257 136.164L170.11 137.846L163.071 142.184L155.061 135.653L166.28 129.655L179.614 125.917L178.257 136.164Z" fill="#CCAC13"/>
<path d="M179.614 125.917L155.06 135.653L153.38 131.417L165.27 125.154L177.935 121.68L179.614 125.917Z" fill="#9E7700"/>
<path d="M177.937 121.68L153.382 131.416L151.701 127.179L163.254 121.049L176.256 117.443L177.937 121.68Z" fill="#E4C728"/>
<path d="M176.255 117.443L151.7 127.178L150.02 122.942L161.908 116.679L174.576 113.206L176.255 117.443Z" fill="#9E7700"/>
<path d="M166.564 106.675L159.31 111.1L151.379 112.695L150.02 122.942L174.576 113.206L166.564 106.675Z" fill="#CCAC13"/>
<path d="M163.071 142.184L167.337 130.784L178.256 136.163L163.071 142.184Z" fill="#9E7700"/>
<path d="M151.38 112.696L162.298 118.074L166.564 106.675L151.38 112.696Z" fill="#9E7700"/>
<path d="M75.0824 134.636L54.6294 163.197L61.8157 167.892L75.7578 163.197L77.3065 142.389L75.0824 134.636Z" fill="#DFBCA4"/>
<path d="M75.7563 163.197L37.6532 151.877L34.581 154.396L33.4995 162.092L58.5109 174.417L75.7563 163.197Z" fill="#C3977A"/>
<path d="M74.958 134.248L116.087 127.737L103.237 148.522L74.958 134.248Z" fill="#DFBCA4"/>
<path d="M74.958 134.246L75.755 163.196L95.4953 153.626L103.068 145.491L74.958 134.246Z" fill="#9E7700"/>
<path d="M103.067 145.492L116.086 127.737L126.829 161.148L109.551 156.011L103.067 145.492Z" fill="#9E7700"/>
<path d="M75.7559 163.197L76.3477 181.811L103.145 207.643L126.83 161.149L103.068 145.492L75.7559 163.197Z" fill="#755700"/>
<path d="M78.2596 191.271L125.824 215.637L89.015 248.743L80.3757 247.293L59.2314 202.322L78.2596 191.271Z" fill="#E4C728"/>
<path d="M125.824 215.636L59.2314 202.321L76.3487 181.809L125.824 215.636Z" fill="#F4D65D"/>
<path d="M34.0113 153.084L25.4217 144.369L21.3062 150.533L23.7138 160.65L33.5015 162.091L35.3462 157.555L34.0113 153.084Z" fill="#8A6651"/>
<path d="M13.5542 168.745L18.8577 171.189L25.5429 156.684L26.8432 153.189L30.8227 145.226L34.368 137.534L29.0659 135.089L25.5904 142.631L21.3928 152.718L19.1774 156.546L13.5542 168.745Z" fill="#9E7700"/>
<path d="M17.2842 160.65H23.7131L34.3669 137.534L29.0648 135.089L17.2842 160.65Z" fill="#755700"/>
<path d="M26.0249 141.692L19.7386 140.217L13.4033 153.592L21.2664 159.11L25.3409 151.941L26.0249 141.692Z" fill="#C3977A"/>
<path d="M37.6559 151.876L35.3469 157.556L30.0923 154.211L28.9864 149.589L24.5022 153.413L21.3062 152.171L26.0236 141.691L31.2177 144.37L37.6559 151.876Z" fill="#DFBCA4"/>
<path d="M23.3959 134.854L31.439 136.977L38.2308 141.692L46.5856 135.605L35.7079 129.007L22.5967 124.549L23.3959 134.854Z" fill="#CCAC13"/>
<path d="M22.5962 124.548L46.5844 135.604L48.4917 131.466L36.9609 124.566L24.502 120.411L22.5962 124.548Z" fill="#9E7700"/>
<path d="M24.5015 120.41L48.4904 131.466L50.3984 127.327L39.1952 120.577L26.4095 116.271L24.5015 120.41Z" fill="#E4C728"/>
<path d="M26.4111 116.27L50.3994 127.326L52.3081 123.187L40.7773 116.288L28.3177 112.131L26.4111 116.27Z" fill="#9E7700"/>
<path d="M36.673 106.045L43.6743 110.858L51.5071 112.882L52.3078 123.188L28.3174 112.131L36.673 106.045Z" fill="#CCAC13"/>
<path d="M38.2304 141.692L34.5893 130.077L23.3955 134.855L38.2304 141.692Z" fill="#9E7700"/>
<path d="M51.5063 112.882L40.3117 117.659L36.6729 106.046L51.5063 112.882Z" fill="#9E7700"/>
<path d="M58.936 113.856L85.1988 115.171V92.7632L58.936 113.856Z" fill="#2B2B2B"/>
<path d="M51.317 54.2615L34.0161 80.5213L59.6409 74.1716L51.317 54.2615Z" fill="#6E7073"/>
<path d="M168.481 76.8739L167.798 89.3983L150.278 88.6063L154.152 68.4607L168.481 76.8739Z" fill="#2B2B2B"/>
<path d="M162.857 49.991L176.023 72.0114L161.468 76.1658L155.629 72.1792L153.286 55.1555L162.857 49.991Z" fill="#4F5252"/>
<path d="M176.024 72.0115L155.629 72.1792L145.28 78.3223L150.277 88.606L176.024 72.0115Z" fill="#464646"/>
<path d="M34.0161 80.5221L66.8524 95.897L83.1187 97.6301L83.676 78.3341L74.9582 63.4373L34.0161 80.5221Z" fill="#464646"/>
<path d="M150.357 76.8005L155.896 96.6725L142.401 101.221L144.698 94.1756L148.268 92.9293L146.843 87.589L145.853 83.4757L150.357 76.8005Z" fill="#856300"/>
<path d="M81.1392 80.9176L85.2266 104.448L92.7823 126.119L106.477 127.017L114.516 117.44L138.445 124.917L162.855 49.9915L104.981 63.9731L81.1392 80.9176Z" fill="#DFBCA4"/>
<path d="M106.104 80.6108L98.4343 113.661L114.517 117.439L105.073 128.605L104.175 136.715L86.9971 132.343L83.1192 97.6301L84.5145 91.7996L81.1392 80.9182L100.121 65.2805L106.104 80.6108Z" fill="#C3977A"/>
<path d="M143.68 67.5239L141.249 69.3945L136.25 84.8054L147.385 75.1242L151.718 71.4501L143.68 67.5239Z" fill="#C3977A"/>
<path d="M136.155 67.7107L132.464 63.5981L120.521 63.2842L127.79 76.872L128.724 88.2754L136.155 67.7107Z" fill="#C3977A"/>
<path d="M94.8861 91.4533L83.1192 97.6295L81.1392 80.9176L92.2761 69.574L102.589 78.6733L94.8861 91.4533Z" fill="#8A6651"/>
<path d="M136.155 67.7122L141.249 69.3948L134.52 90.1459L128.724 88.2768L136.155 67.7122Z" fill="#E8C9B6"/>
<path d="M128.724 88.2761L130.595 92.7632L134.52 90.1467L128.724 88.2761Z" fill="#8A6651"/>
<path d="M161.282 54.8222L105.543 83.4162L95.6069 82.7934L99.2933 73.9151L132.464 63.599L162.855 49.991L161.282 54.8222Z" fill="#8A6651"/>
<path d="M70.7224 51.5074L67.512 43.8121L36.9321 36.1174L60.6741 89.8093L76.031 76.1645L78.024 65.127L70.7224 51.5074Z" fill="#4F5252"/>
<path d="M60.6748 55.56L36.9321 36.1171L81.1387 31.5999L75.7876 47.1267L60.6748 55.56Z" fill="#6E7073"/>
<path d="M60.6748 55.5603L105.91 42.8609L135.015 25.5795L97.8765 12.0017L60.6748 55.5603Z" fill="#4F5252"/>
<path d="M146.298 62.1023L151.719 71.4508L143.681 67.5246L146.298 62.1023Z" fill="#2B2B2B"/>
<path d="M109.552 90.9797L130.07 94.219L141.581 102.478L123.012 114.722L109.552 90.9797Z" fill="#856300"/>
<path d="M118.432 100.514L125.736 98.1079L132.103 105.424L127.262 108.695L122.077 106.87L118.432 100.514Z" fill="#755700"/>
<path d="M118.432 100.514L132.104 105.424L136.946 102.153L114.788 94.1587L118.432 100.514Z" fill="white"/>
<path d="M99.7703 77.1174L94.8872 91.4526L75.1333 85.1994L76.2443 81.863L81.1403 80.9162L91.3355 83.974L93.1499 78.4674L99.7703 77.1174Z" fill="#856300"/>
<path d="M114.517 117.439L93.2036 110.522L104.176 136.714L114.517 117.439Z" fill="#8A6651"/>
<path d="M78.0266 65.1267L60.6768 89.8097L99.7699 77.1183L78.0266 65.1267Z" fill="#2B2B2B"/>
<path d="M34.0161 80.5212L83.1201 97.6299L58.9353 113.856L34.0161 80.5212Z" fill="#464646"/>
<path d="M148.454 78.3211C148.454 80.0772 147.03 81.5013 145.274 81.5013C143.518 81.5013 142.094 80.0772 142.094 78.3211C142.094 76.565 143.518 75.1409 145.274 75.1409C147.03 75.1409 148.454 76.565 148.454 78.3211Z" fill="#2B2B2B"/>
<path d="M129.569 72.0096C129.569 73.7657 128.144 75.1898 126.388 75.1898C124.631 75.1898 123.208 73.7657 123.208 72.0096C123.208 70.2535 124.631 68.8293 126.388 68.8293C128.144 68.8293 129.569 70.2535 129.569 72.0096Z" fill="#2B2B2B"/>
<path d="M172.282 44.9026L106.103 80.6103L60.6743 55.5593L113.481 48.5112L172.282 44.9026Z" fill="#464646"/>
<path d="M172.282 44.904L151.53 18.9192L60.6743 55.56L172.282 44.904Z" fill="#8F8F8F"/>
</g>
</g>
<defs>
<clipPath id="clip0_2013_40146">
<rect width="200" height="200" rx="100" fill="white"/>
</clipPath>
</defs>
</svg>
