<svg width="200" height="200" viewBox="0 0 200 200" fill="none" xmlns="http://www.w3.org/2000/svg">
<g clip-path="url(#clip0_2013_39146)">
<rect width="200" height="200" rx="100" fill="#BBE6E7"/>
<mask id="mask0_2013_39146" style="mask-type:luminance" maskUnits="userSpaceOnUse" x="-44" y="12" width="288" height="288">
<path d="M244 12H-44V300H244V12Z" fill="white"/>
</mask>
<g mask="url(#mask0_2013_39146)">
<path d="M111.626 133.781L133.896 162.202L143.129 173.488L123.927 184.785L123.349 175.472L125.376 162.888L119.979 154.602L111.626 133.781Z" fill="#8F8F8F"/>
<path d="M148.809 165.877L157.767 176.594L149.844 181.278L132.189 188.553L123.846 184.715L122.051 178.373L121.382 172.296L148.809 165.877Z" fill="#464646"/>
<path d="M131.906 37.1655L100.652 43.206L72.3808 51.8975L73.9931 64.7435L80.5095 80.0383L77.311 79.7121L74.8339 83.3675L71.6101 76.5077L68.8643 73.4583L64.1462 75.4388L58.8847 80.7724L60.1509 84.2634L63.9926 89.2377L67.3846 94.8157L80.3701 128.236L105.987 134.561L106.565 119.544L109.468 109.682L120.813 106.174L137.631 102.232L137.489 71.2364L131.906 37.1655Z" fill="#DFBCA4"/>
<path d="M96.723 74.71L101.836 64.2352L114.018 64.5636L120.261 83.0021L116.174 58.0868L103.561 58.1468L95.7476 63.6061L92.3569 68.8719L96.723 74.71Z" fill="#C3977A"/>
<path d="M135.134 56.7951L126.699 62.2723L125.612 73.1095L119.041 55.8435L135.134 56.7951Z" fill="#C3977A"/>
<path d="M93.5648 79.5256L119.325 80.097L119.205 76.4569L93.5648 79.5256Z" fill="#C3977A"/>
<path d="M137.48 72.3825L126.656 78.8738L125.922 74.9924L137.48 72.3825Z" fill="#C3977A"/>
<path d="M80.7441 49.8416L91.3124 60.0495L93.5649 79.5261L94.2651 108.676L105.987 134.561L94.0869 132.849L82.5302 133.276L75.6481 116.084L67.3848 94.8161L75.7092 90.4722L74.8342 83.3679L80.5098 80.0387L72.381 51.898L80.7441 49.8416Z" fill="#C3977A"/>
<path d="M67.3844 94.8161L75.7088 90.4722L72.3753 107.58L67.3844 94.8161Z" fill="#8A6651"/>
<path d="M137.633 102.232L86.6972 109.476L98.6159 132.725L101.618 134.851L105.988 134.561L109.47 109.681L137.633 102.232Z" fill="#8A6651"/>
<path d="M96.9775 54.4341L105.014 59.5777L116.604 57.1714L96.9775 54.4341Z" fill="#2B2B2B"/>
<path d="M121.2 52.6892L127.556 46.2738L132.567 47.6324L121.2 52.6892Z" fill="#2B2B2B"/>
<path d="M115.908 56.148L120.261 83.0022L127.305 82.3331L122.22 55.5487L115.908 56.148Z" fill="#E8C9B6"/>
<path d="M120.263 83.0019L123.798 86.922L127.306 82.3329L120.263 83.0019Z" fill="#8A6651"/>
<path d="M100 90.3468L115.586 91.0627L123.076 94.6708L113.222 94.623L107.299 93.7358L105.709 93.4001L103.858 92.1063L100 90.3468Z" fill="#27788B"/>
<path d="M103.652 92.0439L107.312 96.4896L123.075 94.6697L107.299 93.7347L103.652 92.0439Z" fill="#399FB9"/>
<path d="M63.9014 83.0035L67.6648 79.5669L71.1438 85.409L63.9014 83.0035Z" fill="#8A6651"/>
<path d="M104.095 16.1917L104.262 30.8877L107.664 43.1562L131.908 37.1657L104.095 16.1917Z" fill="#464646"/>
<path d="M104.095 16.1917L56.3669 29.7756L52.522 37.779L52.3699 44.6701L62.093 49.2828L72.3814 51.8985L80.7445 49.8422L107.664 43.1555L104.095 16.1917Z" fill="#6E7073"/>
<path d="M52.3722 44.67L50.1417 49.5352L50.4585 53.3946L45.6343 75.1464L62.0197 73.4095L77.1703 68.5438L72.3829 51.8976L52.3722 44.67Z" fill="#464646"/>
<path d="M45.6335 75.1473L77.1695 68.5447L80.5108 80.0393L74.8352 83.3684L68.8657 73.4592L58.886 80.7733L63.994 89.2387L45.6335 75.1473Z" fill="#2B2B2B"/>
<path d="M50.4008 53.4932L35.0511 51.29L43.3435 41.501L56.3663 29.7753L52.37 44.6706L50.4008 53.4932Z" fill="#2B2B2B"/>
<path d="M56.375 29.767L37.4558 19.0491L22.1675 64.8756L35.4386 51.6506L56.375 29.767Z" fill="#6E7073"/>
<path d="M80.7192 128.959L111.628 133.779L108.822 141.604L102.4 150.867L84.9825 143.322L73.9351 133.519L80.7192 128.959Z" fill="#464646"/>
<path d="M73.9354 133.519L63.7602 139.395L68.717 153.771L76.381 168.215L82.452 170.283L103.733 171.344L125.1 163.015L111.628 133.779L102.401 150.867L73.9354 133.519Z" fill="#71CACC"/>
<path d="M76.381 168.215L125.1 163.015L122.066 198.257L106.221 199.969L86.9195 198.023L76.381 168.215Z" fill="#1C7678"/>
<path d="M87.0532 196.963L103.325 216.396L113.225 222.717L121.671 214.84L122.319 197.866L87.0532 196.963Z" fill="#71CACC"/>
<path d="M87.0536 196.963L113.496 222.178L116.078 252.259L93.7345 279.885L74.9209 218.109L87.0536 196.963Z" fill="#369395"/>
<path d="M122.228 197.777L130.793 240.034L123.534 235.627L113.223 222.718L122.228 197.777Z" fill="#50A9AA"/>
<g opacity="0.2">
<path d="M74.7503 214.979L77.5525 226.168L125.384 185.341L125.461 181.633L86.1789 205.384L74.7503 214.979Z" fill="#2B2B2B"/>
</g>
<path d="M163.925 165.084L167.904 158.447L164.468 156.74L160.914 160.125L161.402 163.146L163.925 165.084Z" fill="#C3977A"/>
<path d="M63.6706 139.322L43.5001 181.349L56.5027 177.667L64.5941 173.114L76.038 167.582L63.6706 139.322Z" fill="#8F8F8F"/>
<path d="M65.4913 172.402L74.5311 194.794L70.1611 199.268L64.8416 200.244L43.5017 181.349L65.4913 172.402Z" fill="#464646"/>
<path d="M55.9847 212.601L63.7557 223.971L175.214 147.49L167.393 136.125L55.9847 212.601ZM66.057 218.833C65.263 219.375 64.1809 219.187 63.6157 218.41C63.1176 217.638 63.3072 216.612 64.0484 216.07C64.8408 215.519 65.928 215.707 66.4896 216.491C67.0241 217.238 66.8519 218.278 66.1048 218.812C66.0959 218.818 66.0872 218.824 66.0785 218.83L66.057 218.833Z" fill="#5EC0D9"/>
<path d="M170.222 140.205L58.7123 216.685L55.9846 212.601L167.393 136.125L170.222 140.205Z" fill="#73CFE4"/>
<path d="M77.8511 201.531L77.2159 201.96L75.3691 199.289L75.9481 198.808L77.8511 201.531Z" fill="#308FA6"/>
<path d="M84.0172 197.278L83.4342 197.653L81.5872 194.98L82.1704 194.607L84.0172 197.278Z" fill="#308FA6"/>
<path d="M88.7392 196.048L87.4697 196.914L84.641 192.833L86.0108 191.956L88.7392 196.048Z" fill="#308FA6"/>
<path d="M90.9641 192.532L90.331 192.912L88.434 190.246L89.1174 189.861L90.9641 192.532Z" fill="#308FA6"/>
<path d="M94.0253 190.384L93.4456 190.857L91.5882 188.086L92.1786 187.713L94.0253 190.384Z" fill="#308FA6"/>
<path d="M97.1406 188.28L96.5556 188.704L94.7095 186.04L95.2884 185.559L97.1406 188.28Z" fill="#308FA6"/>
<path d="M101.904 187.045L100.597 187.965L97.8184 183.878L99.0762 182.971L101.904 187.045Z" fill="#308FA6"/>
<path d="M104.087 183.533L103.452 183.963L101.605 181.291L102.235 180.812L104.087 183.533Z" fill="#308FA6"/>
<path d="M107.195 181.43L106.613 181.804L104.765 179.132L105.343 178.709L107.195 181.43Z" fill="#308FA6"/>
<path d="M110.256 179.282L109.673 179.655L107.826 176.984L108.409 176.611L110.256 179.282Z" fill="#308FA6"/>
<path d="M115.026 178.045L113.763 178.91L110.927 174.83L112.197 173.972L115.026 178.045Z" fill="#308FA6"/>
<path d="M117.153 174.54L116.57 174.913L114.722 172.241L115.306 171.868L117.153 174.54Z" fill="#308FA6"/>
<path d="M120.318 172.431L119.682 172.86L117.824 170.088L118.465 169.709L120.318 172.431Z" fill="#308FA6"/>
<path d="M123.37 170.282L122.792 170.705L120.945 168.035L121.525 167.561L123.37 170.282Z" fill="#308FA6"/>
<path d="M128.147 169.103L126.883 169.961L124.056 165.888L125.363 164.967L128.147 169.103Z" fill="#308FA6"/>
<path d="M130.275 165.542L129.69 165.966L127.843 163.294L128.428 162.87L130.275 165.542Z" fill="#308FA6"/>
<path d="M133.432 163.433L132.799 163.811L130.952 161.14L131.588 160.71L133.432 163.433Z" fill="#308FA6"/>
<path d="M136.542 161.278L135.851 161.664L134.004 158.992L134.695 158.607L136.542 161.278Z" fill="#308FA6"/>
<path d="M141.453 159.926L140.196 160.841L137.367 156.761L138.63 155.903L141.453 159.926Z" fill="#308FA6"/>
<path d="M143.586 156.414L143.002 156.845L141.157 154.122L141.74 153.749L143.586 156.414Z" fill="#308FA6"/>
<path d="M146.748 154.261L146.118 154.74L144.264 152.019L144.901 151.59L146.748 154.261Z" fill="#308FA6"/>
<path d="M149.866 152.208L149.226 152.587L147.373 149.865L147.952 149.442L149.866 152.208Z" fill="#308FA6"/>
<path d="M154.575 150.927L153.318 151.842L150.489 147.761L151.797 146.848L154.575 150.927Z" fill="#308FA6"/>
<path d="M156.707 147.472L156.123 147.846L154.276 145.174L154.856 144.693L156.707 147.472Z" fill="#308FA6"/>
<path d="M159.867 145.313L159.233 145.692L157.387 143.02L158.02 142.642L159.867 145.313Z" fill="#308FA6"/>
<path d="M162.979 143.159L162.4 143.582L160.547 140.861L161.132 140.487L162.979 143.159Z" fill="#308FA6"/>
<path d="M167.697 141.927L166.428 142.792L163.604 138.762L164.917 137.899L167.697 141.927Z" fill="#308FA6"/>
<path d="M64.8407 200.245L74.1033 216.88L80.3061 214.399L90.5176 205.605L74.5303 194.796L64.8407 200.245Z" fill="#DFBCA4"/>
<path d="M163.922 165.086L158.636 177.62L149.841 181.278L146.402 176.583L151.663 167.201L163.922 165.086Z" fill="#8A6651"/>
<path d="M157.028 153.77L147.408 162.672L146.406 176.582L163.926 165.085L157.028 153.77Z" fill="#DFBCA4"/>
<path d="M135.281 64.9914C135.216 66.4653 133.968 67.6068 132.495 67.5418C131.021 67.4761 129.879 66.2281 129.944 64.7549C130.009 63.2839 131.253 62.1429 132.724 62.2041C134.198 62.2655 135.343 63.5101 135.282 64.9842L135.281 64.9914Z" fill="#2B2B2B"/>
<path d="M110.564 69.8599C110.488 71.3174 109.244 72.4368 107.787 72.3604C106.33 72.284 105.21 71.0408 105.287 69.5834C105.363 68.1259 106.606 67.0065 108.064 67.0829C109.517 67.167 110.632 68.4056 110.564 69.8599Z" fill="#2B2B2B"/>
<path d="M145.112 50.5175L91.3096 60.0484L93.5629 79.525L119.203 76.4563L116.532 60.0148L122.87 58.905L125.925 74.9268L147.812 70.0031L145.112 50.5175ZM95.7462 63.6047L112.981 60.6362L114.908 72.5614L96.7209 74.7085L95.7462 63.6047ZM128.557 70.3711L126.012 58.6443L141.649 55.5127L143.075 66.5393L128.557 70.3711Z" fill="#308FA6"/>
</g>
</g>
<defs>
<clipPath id="clip0_2013_39146">
<rect width="200" height="200" rx="100" fill="white"/>
</clipPath>
</defs>
</svg>
