<svg width="200" height="200" viewBox="0 0 200 200" fill="none" xmlns="http://www.w3.org/2000/svg">
<g clip-path="url(#clip0_2013_39984)">
<rect width="200" height="200" rx="100" fill="#E7D88E"/>
<mask id="mask0_2013_39984" style="mask-type:luminance" maskUnits="userSpaceOnUse" x="-25" y="12" width="288" height="288">
<path d="M263 12H-25V300H263V12Z" fill="white"/>
</mask>
<g mask="url(#mask0_2013_39984)">
<path d="M29.895 205.783L36.8876 192.3L40.3264 186.008L49.0369 188.518L45.4672 194.266L36.7889 209.53L29.895 205.783Z" fill="#4F5252"/>
<path d="M60.4751 147.575L83.903 187.896L65.8482 194.032L48.3358 171.299L60.4751 147.575Z" fill="#856300"/>
<path d="M146.538 128.516L167.724 160.212L164.605 175.367L155.911 184.501L144.848 175.055L142.206 148.267L146.538 128.516Z" fill="#856300"/>
<path d="M167.726 160.211L186.366 158.595L189.251 168.098L186.559 179.502L155.912 184.5L167.726 160.211Z" fill="#BE8F00"/>
<path d="M139.461 133.084L128.746 128.323L121.388 138.412L115.48 152.559L95.9739 145.922L76.6685 141.68L67.6498 151.688L73.6298 187.894L76.6682 197.209L75.2936 217.682L111.891 223.934L119.914 205.632L129.736 221.854L143.987 216.529L144.849 175.055L139.461 133.084Z" fill="#E4C728"/>
<path d="M70.8583 125.61L78.1455 117.997L79.2608 124.965L83.6685 132.331L70.8583 125.61Z" fill="#755700"/>
<path d="M121 109.502L135.443 117.095L128.746 128.323L115.48 152.56L116.194 127.911L121 109.502Z" fill="#755700"/>
<path d="M73.6314 187.897L76.6694 141.682L60.478 147.576L73.6314 187.897Z" fill="#BE8F00"/>
<path d="M146.538 128.516L144.849 175.055L128.746 128.322L146.538 128.516Z" fill="#BE8F00"/>
<path d="M109.33 167.182L81.6069 171.595L82.216 175.419L109.937 171.007L109.33 167.182Z" fill="#BE8F00"/>
<path d="M71.4587 49.2726L113.365 44.8615L126.259 38.5839L140.341 103.563L121 109.502L118.355 117.895L115.645 123.401L97.9259 133.084L83.3345 123.877L61.1745 98.586L52.287 84.731L49.7995 70.5037L71.4587 49.2726Z" fill="#DFBCA4"/>
<path d="M76.2509 48.7681L96.0842 116.768L120.998 109.503L118.709 118.214L118.919 126.808L115.477 152.559L93.1233 139.68L79.6004 127.316L66.7399 107.266L66.2821 101.579L61.1744 98.5876L72.1379 90.3603L62.8047 77.0964L52.2861 84.7312L45.6687 74.5517L65.8059 54.8138L71.4579 49.2728L76.2509 48.7681Z" fill="#C3977A"/>
<path d="M116.155 81.755L104.008 64.4489L88.5947 59.4527L106.238 54.0234L110.769 59.5148L117.192 71.086L116.155 81.755Z" fill="#C3977A"/>
<path d="M117.37 57.9339L118.08 52.3265L128.54 49.1068L120.337 74.8914L117.37 57.9339Z" fill="#C3977A"/>
<path d="M72.1395 90.3587L61.1752 98.5882L66.74 107.263L72.1395 90.3587Z" fill="#8A6651"/>
<path d="M113.078 69.0408L93.0064 85.8339L84.7409 77.8671L81.2071 77.7396L79.5878 75.3297L88.5951 71.0206L113.078 69.0408Z" fill="#8A6651"/>
<path d="M119.754 67.78L133.561 72.2773L132.973 69.5701L130.282 64.7389L119.754 67.78Z" fill="#8A6651"/>
<path d="M66.9913 56.5756L87.385 86.9397L76.7397 96.8972L62.8057 77.097L52.2865 84.7311L45.6698 74.5524L56.2956 61.676L66.9913 56.5756Z" fill="#856300"/>
<path d="M117.369 57.9341L110.768 59.5138L116.154 81.7546L122.751 80.157L117.369 57.9341Z" fill="#E8C9B6"/>
<path d="M66.4631 89.2883L62.1864 81.8953L55.8662 86.2621L66.4631 89.2883Z" fill="#8A6651"/>
<path d="M88.5947 59.452L100.81 51.139L106.239 54.0234L88.5947 59.452Z" fill="#856300"/>
<path d="M118.079 52.3263L123.309 46.8572L128.539 49.1073L118.079 52.3263Z" fill="#856300"/>
<path d="M133.213 83.7127L96.0585 92.7038L110.14 99.8304L126.258 96.0981L133.213 83.7127Z" fill="#C3977A"/>
<path d="M128.94 87.165L102.839 93.4518L110.645 97.8007L124.602 94.5328L128.94 87.165Z" fill="white"/>
<path d="M122.752 80.1568L119.916 84.8555L116.156 81.7544L122.752 80.1568Z" fill="#8A6651"/>
<path d="M81.2064 77.7389L63.9732 78.7568L62.8047 77.095L72.0063 74.5506L79.6268 75.3888L81.2064 77.7389Z" fill="#755700"/>
<path d="M121 109.502L88.4237 119.003L118.92 126.808L121 109.502Z" fill="#8A6651"/>
<path d="M113.366 19.0724L52.2888 34.3416L41.1423 53.0039L79.6034 38.5834L113.366 19.0724Z" fill="#BE8F00"/>
<path d="M76.2525 48.768L45.6703 74.5516L41.141 53.0041L68.5155 39.6016L76.2525 48.768Z" fill="#9E7700"/>
<path d="M76.2532 48.7683L68.5169 45.7939L68.5169 39.6019L113.367 19.0729L114.793 32.2597L113.366 44.8612L76.2532 48.7683Z" fill="#856300"/>
<path d="M113.364 19.0726L113.364 44.8608L126.258 38.584L142.716 12.0017L113.364 19.0726Z" fill="#BE8F00"/>
<path d="M86.22 65.389L53.1359 73.3634L52.2869 84.7308L62.8055 77.0967L88.5952 74.3818L88.2943 69.3713L86.22 65.389Z" fill="#464646"/>
<path d="M117.368 57.9341L110.768 59.5138L110.423 62.3246L112.164 65.2795L118.746 63.6236L119.46 61.2195L117.368 57.9341Z" fill="#464646"/>
<path d="M137.966 53.0058L142.208 70.8194L119.755 67.7808L117.371 57.9341L137.966 53.0058ZM113.078 69.0407L90.971 83.3736L86.2206 65.3894L110.77 59.5144L113.078 69.0407Z" fill="#4F5252"/>
<path d="M98.7367 133.581L70.8584 125.611L76.6665 141.68L115.478 152.558L98.7367 133.581Z" fill="#BE8F00"/>
<path d="M76.6644 197.208L115.642 180.005L119.91 180.005L144.48 192.631L119.91 204.599L76.6644 197.208Z" fill="#CCAC13"/>
<path d="M115.477 152.56L115.642 180.007L119.91 205.632L119.911 180.007L115.477 152.56Z" fill="#BE8F00"/>
<path d="M48.3399 171.3L83.3367 194.265L81.608 204.599L75.727 211.253L36.8924 192.299L48.3399 171.3Z" fill="#BE8F00"/>
<path d="M83.336 194.265L92.0278 199.833L75.7255 211.253L83.336 194.265Z" fill="#DFBCA4"/>
<path d="M186.365 158.593L197.353 157.787L202.371 167.026L199.098 179.534L186.558 179.501L186.365 158.593Z" fill="#C3977A"/>
<path d="M197.352 157.787L219.648 156.507L219.648 161.04L200.655 165.516L197.352 157.787Z" fill="#C3977A"/>
<path d="M186.363 158.593L194.9 144.303L199.653 145.745L196.013 164.788L186.453 168.299L186.363 158.593Z" fill="#DFBCA4"/>
<path d="M208.682 163.624L209.359 176.204L199.097 179.533L196.013 164.789L208.682 163.624Z" fill="#DFBCA4"/>
<path d="M76.6677 141.68L98.9915 221.729L90.0814 220.207L70.4404 143.946L76.6677 141.68Z" fill="#4F5252"/>
</g>
</g>
<defs>
<clipPath id="clip0_2013_39984">
<rect width="200" height="200" rx="100" fill="white"/>
</clipPath>
</defs>
</svg>
