<svg width="200" height="200" viewBox="0 0 200 200" fill="none" xmlns="http://www.w3.org/2000/svg">
<g clip-path="url(#clip0_2013_38218)">
<rect width="200" height="200" rx="100" fill="#BAD0AC"/>
<mask id="mask0_2013_38218" style="mask-type:luminance" maskUnits="userSpaceOnUse" x="-44" y="12" width="288" height="288">
<path d="M244 12H-44V300H244V12Z" fill="white"/>
</mask>
<g mask="url(#mask0_2013_38218)">
<path d="M138.63 78.6875L118.605 82.5539L119.938 92.5619L121.983 104.708L132.105 97.6595L138.63 78.6875Z" fill="#8F8F8F"/>
<path d="M116.23 69.4504L121.774 84.5056L138.629 78.688L116.23 69.4504Z" fill="#DDDDDC"/>
<path d="M124.128 117.424L128.016 120.592L136.239 122.269L143.424 106.962L131.976 110.785L124.128 117.424Z" fill="#8F8F8F"/>
<path d="M132.107 97.6594H118.607L124.129 117.423L143.425 106.962L132.107 97.6594Z" fill="#C4C4C4"/>
<path d="M48.9665 110.785L32.4353 115.314L27.6113 127.936L37.5617 129.765L50.2625 118.993L48.9665 110.785Z" fill="#C4C4C4"/>
<path d="M46.8214 99.2502L23.8462 105.284L32.4358 115.313L48.067 118.265L52.6174 110.785L46.8214 99.2502Z" fill="#8F8F8F"/>
<path d="M46.8862 82.7122L42.343 83.6914L38.8798 79.2634L23.8462 105.284L47.3398 102.037L46.8862 82.7122Z" fill="#DDDDDC"/>
<path d="M59.8817 121.687L27.6113 127.936L34.5449 133.07L62.2433 128.541L59.8817 121.687Z" fill="#8F8F8F"/>
<path d="M171.583 122.96L177.724 117.538L183.031 108.509L182.642 87.8811L170.301 100.424L166.665 114.845L171.583 122.96Z" fill="#8A6651"/>
<path d="M204.054 50.1172L202.153 51.5212L193.671 66.5332L190.15 71.5156L191.044 81.6244L183.03 87.0388L184.233 91.006L179.271 102.54L174.657 105.55L169.242 117.423L177.724 117.538L187.033 91.1356L195.609 83.9284L195.278 71.2924L204.054 50.1172Z" fill="#35785D"/>
<path d="M180.315 104.959L184.231 91.0058L183.03 87.0386L174.657 105.55L180.315 104.959Z" fill="#53AF8A"/>
<path d="M202.155 51.5214L204.056 50.1174L200.866 50.3622L190.153 71.5158L194.566 68.931L202.155 51.5214Z" fill="#53AF8A"/>
<path d="M164.218 105.55L167.443 94.4697L181.052 85.6353L183.032 87.0393L180.317 92.9145L174.687 97.8465L174.658 105.55L172.268 110.785L166.666 114.846L164.218 105.55Z" fill="#DFBCA4"/>
<path d="M191.175 87.6575L190.152 110.82L177.725 117.538L183.031 87.0383L191.175 87.6575Z" fill="#C3977A"/>
<path d="M174.196 137.359L160.617 109.884L148.967 124.464L135.993 151.493L174.196 137.359Z" fill="#738D56"/>
<path d="M124.128 117.423L122.472 133.328L139.983 147.742L148.968 124.464L124.128 117.423Z" fill="#99C26C"/>
<path d="M126.784 154.611L151.567 158.406L166.665 147.743L170.798 135.251L139.982 147.743L126.784 133.753L105.66 111.923L126.784 154.611Z" fill="#5A753C"/>
<path d="M164.217 105.55L160.617 109.884L170.798 135.25L151.567 158.405L157.182 158.909L177.386 136.668L164.217 105.55Z" fill="#35785D"/>
<path d="M117.512 157.778L126.785 154.61L122.163 145.2L117.512 157.778Z" fill="#738D56"/>
<path d="M60.5806 136.129L53.4238 135.049L34.5454 133.069L59.7526 153.409L61.531 159.385L73.0366 182.792L88.5094 167.701L60.5806 136.129Z" fill="#738D56"/>
<path d="M50.9258 162.992L59.2562 177.608L67.9826 181.525L74.2682 172.575L61.5314 150.385L50.9258 162.992Z" fill="#446024"/>
<path d="M83.8301 135.039C94.525 146.213 105.218 157.386 115.913 168.559C116.232 152.118 116.551 135.678 116.871 119.236C116.331 118.874 94.3644 117.321 94.3644 117.321C92.6227 118.84 90.4879 121.021 88.5252 123.986C85.7136 128.236 84.4442 132.304 83.8301 135.039Z" fill="#53AF8A"/>
<path d="M82.9375 123.981L80.6264 133.752L58.9688 143.364L91.8583 166.21L92.06 166.491L113.725 159.075L82.9375 123.981Z" fill="#53AF8A"/>
<path d="M53.1212 141.643L58.9676 143.363L84.5636 133.751L48.0668 118.264L37.562 129.763L53.1212 141.643Z" fill="#71C8A6"/>
<path d="M104.444 109.099L104.401 109.013L104.25 109.113L104.444 109.099Z" fill="#35785D"/>
<path d="M89.7262 162.898L37.5622 129.764L34.5454 133.069L88.5094 167.701L108.389 193.477L119.225 159.082L89.7262 162.898Z" fill="#35785D"/>
<path d="M82.936 123.983L70.9696 115.804L48.9664 110.785L48.0664 118.266L84.5632 133.753L82.936 123.983Z" fill="#35785D"/>
<path d="M84.6245 133.107C88.3498 128.005 92.0736 122.902 95.7989 117.8C94.3625 114.129 92.9261 110.458 91.489 106.786C89.2548 110.298 87.0207 113.81 84.7858 117.321C84.7318 122.583 84.6785 127.845 84.6245 133.107Z" fill="#35785D"/>
<path d="M130.45 154.964L129.231 156.755L93.2688 209.626L74.268 172.574L59.256 177.608L30.7944 256.858L69.2568 280.136L69.3936 280.236L133.186 255.123L130.45 154.964Z" fill="#738D56"/>
<path d="M117.028 159.082L104.443 181.064L98.0268 175.312L88.5091 167.701L74.2668 172.575L69.9043 274.778L126.784 154.612L117.511 157.779L117.028 159.082Z" fill="#99C26C"/>
<path d="M129.865 154.039L114.01 154.337C114.01 154.337 112.87 175.171 112.6 175.441C112.33 175.711 130.33 173.641 130.33 173.641L129.865 154.039Z" fill="#728C56"/>
<path d="M20.1831 198.668L12.7671 207.214L9.65674 210.8L13.6311 214.479L23.3727 201.023L20.1831 198.668Z" fill="#C3977A"/>
<path d="M12.7677 184.872L3.27814 188.458L-0.581055 196.826L4.30774 208.294L9.65734 210.801L9.66454 210.793L17.1669 203.09L12.7677 184.872Z" fill="#DFBCA4"/>
<path d="M20.5487 198.25L6.47268 181.525L3.27588 188.458L17.1647 203.089L20.1815 198.668L20.5487 198.25Z" fill="#8A6651"/>
<path d="M9.65703 210.8L-0.581371 196.825L-4.50537 210.419L1.95303 219.764L9.66423 210.792L9.65703 210.8Z" fill="#C3977A"/>
<path d="M34.5465 133.068L5.4585 171.74L40.5369 177.082L54.3465 143.364L34.5465 133.068Z" fill="#99C26C"/>
<path d="M5.45752 171.739L19.4183 199.746L27.3023 197.018L53.4239 144.775L5.45752 171.739Z" fill="#738D56"/>
<path d="M54.3476 143.365L19.4204 196.825L32.0852 195.874L39.3572 191.474L61.5332 150.385L54.3476 143.365Z" fill="#5A753C"/>
<path d="M17.1661 203.089L35.9581 196.825L39.3565 191.475L19.4197 196.825L5.4589 171.74L1.9165 176.391L17.1661 203.089Z" fill="#35785D"/>
<path d="M125.552 106.502L113.579 36.5898L93.6777 21.261L81.0489 31.9386L54.8265 30.2178L50.2617 34.3722L59.7513 52.8978L76.0521 120.074L100.035 113.457L125.552 106.502Z" fill="#DFBCA4"/>
<path d="M93.6784 25.2496L113.579 36.5896L101.714 20.7568L91.9504 17.8984L89.8984 21.2608L93.6784 25.2496Z" fill="#EBEBEB"/>
<path d="M72.3585 26.9709L83.1873 36.5901L93.6777 25.2501L91.9497 17.8996L71.8833 12.0093L72.3585 26.9709Z" fill="#DDDDDC"/>
<path d="M52.7754 26.9709L52.9842 29.3181L54.6042 30.6494L83.1515 36.6261L83.1882 36.5908L71.8842 12.0093L52.7754 26.9709Z" fill="#C4C4C4"/>
<path d="M61.9673 42.3997L54.8249 30.2173L43.0601 50.2549L48.9641 57.0805L50.2601 75.0445L44.9249 69.0541L41.0441 74.9365L34.5425 77.3413L39.8849 92.9293L45.3857 91.5541L48.9641 92.2741L47.3369 102.037L48.9641 110.785L72.3569 119.872L76.6913 120.167L61.9673 42.3997Z" fill="#C3977A"/>
<path d="M45.3867 91.5545L47.3379 102.038L52.5363 89.6321L45.3867 91.5545Z" fill="#8A6651"/>
<path d="M38.8784 79.264L48.0656 85.4128L45.6464 77.0752L38.8784 79.264Z" fill="#8A6651"/>
<path d="M87.9037 116.805L72.3589 119.872L84.1741 124.466L87.9037 116.805Z" fill="#8A6651"/>
<path d="M31.2891 44.0059L41.0451 74.9371L44.1627 73.8211L50.8083 77.6659L52.7235 53.3011L45.0699 48.8155L54.8259 30.2179L52.7739 26.9707L31.2891 44.0059Z" fill="#8F8F8F"/>
<g opacity="0.99">
<path d="M89.7262 162.898L37.5622 129.764L34.5454 133.069L88.5094 167.701L108.389 193.477L119.225 159.082L89.7262 162.898Z" fill="#35785D"/>
</g>
<path d="M96.5225 84.5059L78.9761 100.295L89.7257 162.899L109.425 181.036L110.93 183.707L110.246 186.364L108.388 193.478L119.174 200.973L111.981 124.466L101.735 85.6363L96.5225 84.5059Z" fill="#C4C4C4"/>
<path d="M121.242 179.229L130.45 154.965L119.938 92.5625L104.71 82.7129L101.737 85.6361L119.175 200.973L125.094 189.482L122.062 184.557L120.392 182.124L121.242 179.229Z" fill="#EBEBEB"/>
<path d="M122.061 184.558L110.247 186.365L109.425 181.036L121.24 179.23L122.061 184.558Z" fill="#446024"/>
<path d="M109.699 94.7085L93.3483 97.5021L92.6211 94.1829L108.965 91.3965L109.699 94.7085Z" fill="#8A6651"/>
<path d="M119.111 69.2563L119.153 69.4507L119.133 69.2563H119.111Z" fill="#8F8F8F"/>
<path d="M70.7119 58.1101L96.5239 84.5053L95.2063 62.0197L85.7095 52.8397L93.7591 51.4285L97.9063 62.9989L101.759 69.3853L107.137 50.2549L96.3583 48.5701L93.7591 51.4285L85.7095 52.8397L81.0511 50.5717L70.7119 58.1101Z" fill="#C3977A"/>
<path d="M80.093 47.6914L81.0506 50.5714L70.7114 58.1098L69.3794 54.7402L80.093 47.6914Z" fill="#8F8F8F"/>
<path d="M95.2124 45.1289L96.3572 48.5705L107.136 50.2553L107.863 47.9225L95.2124 45.1289Z" fill="#8F8F8F"/>
<path d="M93.7591 51.429L99.6199 59.7666L104.71 82.713L96.5239 84.5058L92.0887 61.8474L85.7095 52.8402L93.7591 51.429Z" fill="#E8C9B6"/>
<path d="M104.71 82.7126L96.5239 84.5054L102.075 87.8822L104.71 82.7126Z" fill="#8F8F8F"/>
<path d="M80.9356 63.7275C82.6219 63.7275 83.9884 65.0941 83.9884 66.7803C83.9884 68.4666 82.6219 69.8331 80.9356 69.8331C79.2494 69.8331 77.8828 68.4666 77.8828 66.7803C77.8828 65.0941 79.2494 63.7275 80.9356 63.7275Z" fill="#2B2B2B"/>
<path d="M104.71 58.3345C106.396 58.3345 107.762 59.701 107.762 61.3873C107.762 63.0735 106.396 64.4401 104.71 64.4401C103.023 64.4401 101.657 63.0735 101.657 61.3873C101.657 59.701 103.023 58.3345 104.71 58.3345Z" fill="#2B2B2B"/>
</g>
</g>
<defs>
<clipPath id="clip0_2013_38218">
<rect width="200" height="200" rx="100" fill="white"/>
</clipPath>
</defs>
</svg>
