<svg width="200" height="200" viewBox="0 0 200 200" fill="none" xmlns="http://www.w3.org/2000/svg">
<g clip-path="url(#clip0_2013_38375)">
<rect width="200" height="200" rx="100" fill="#BAD0AC"/>
<mask id="mask0_2013_38375" style="mask-type:luminance" maskUnits="userSpaceOnUse" x="-61" y="12" width="288" height="288">
<path d="M227 12H-61V300H227V12Z" fill="white"/>
</mask>
<g mask="url(#mask0_2013_38375)">
<path d="M116.373 100.121L141.998 89.9041L124.674 34.8242L117.928 31.4043L111.03 28.0851L100.554 24.0388L92.6701 35.8612L91.0653 35.0332L87.8541 41.6716L103.046 104.837L116.373 100.121Z" fill="#DFBCA4"/>
<path d="M87.903 41.7722L103.045 104.837L100.871 107.177L95.1106 107.955L91.0641 102.922L88.2136 95.7146L86.4992 76.7282L87.903 41.7722Z" fill="#C3977A"/>
<path d="M87.9031 41.7736L103.045 104.838L100.871 107.178C95.8357 107.859 90.8 108.541 85.7651 109.223C79.8516 91.013 73.9374 72.8028 68.024 54.5918C74.6501 50.3193 81.277 46.0468 87.9031 41.7736Z" fill="#C3977A"/>
<path d="M116.373 100.122L141.998 89.9046L124.674 34.8247L117.928 31.4048L111.03 28.0856L100.554 24.0392L92.6701 35.8617L91.0653 35.0337L87.8541 41.6721L103.046 104.838L116.373 100.122Z" fill="#DFBCA4"/>
<path d="M119.383 70.3996L118.503 74.1868L115.803 71.4941L119.383 70.3996Z" fill="#8A6651"/>
<path d="M124.724 34.8243L121.146 24.6076L96.1471 12.0005L94.5416 24.1901L100.554 24.0389L111.029 28.0852L117.927 31.4044L124.724 34.8243Z" fill="#E8EF78"/>
<path d="M96.1476 12.001L60.5148 23.8308L51.1334 48.7788L47.8142 55.626L57.8222 52.1484L67.7798 48.8291L77.7373 45.3011L87.9037 41.773L92.6701 35.8618L100.554 24.0394L96.1476 12.001Z" fill="#D9E253"/>
<path d="M87.9017 41.7727L77.9945 45.2504L67.7778 48.8288L57.8202 52.1481L47.8122 55.6257L44.9036 104.427L75.7002 111.89L87.4663 75.1793L87.7829 46.0999L87.9017 41.7727Z" fill="#B8C645"/>
<path d="M95.1109 107.955L103.405 123.046L116.371 100.121L103.045 104.838L95.1109 107.955Z" fill="#8A6651"/>
<path d="M111.497 49.0376L116.688 63.1424L126.07 46.3376L111.497 49.0376Z" fill="#C3977A"/>
<path d="M108.026 49.6567L95.628 58.8367L106.154 60.1831L115.802 71.4942L108.026 49.6567Z" fill="#C3977A"/>
<path d="M108.026 49.6567L96.4056 54.7903L95.628 58.8367L108.026 49.6567Z" fill="#B8C645"/>
<path d="M111.498 49.0379L124.933 44.1562L126.071 46.3378L111.498 49.0379Z" fill="#B8C645"/>
<path d="M108.026 49.6568L115.801 71.4944L119.38 70.3999L116.727 63.2108L111.496 49.0376L108.026 49.6568Z" fill="#E8C9B6"/>
<path d="M131.262 76.4694L120.728 83.7846L107.041 84.1447L121.823 87.831L131.262 76.4694Z" fill="#99C26C"/>
<path d="M131.262 76.4694L126.956 78.0246L120.987 79.011L117.149 80.307L112.643 82.8991L107.041 84.1447L120.728 83.7846L131.262 76.4694Z" fill="#5A753C"/>
<path d="M51.2338 161.991L43.7172 193.945L38.1516 185.276L38.7347 177.974L35.1109 166.281L51.2338 161.991Z" fill="#99C26C"/>
<path d="M51.6723 131.974L35.1111 166.281L62.3047 158.978L51.6723 131.974Z" fill="#738D56"/>
<path d="M43.7173 193.945L37.2085 194.614L29.4757 192.397L38.742 177.968L43.7173 193.945Z" fill="#DFBCA4"/>
<path d="M37.209 194.614L23.6081 183.353L21.3257 192.267L27.3378 195.687L37.209 194.614Z" fill="#C3977A"/>
<path d="M122.601 52.7659C121.011 52.7659 119.721 54.0555 119.721 55.6459C119.721 57.2364 121.011 58.5259 122.601 58.5259C124.206 58.5302 125.517 57.2501 125.552 55.6459C125.553 54.0554 124.264 52.7666 122.674 52.7659C122.649 52.7659 122.626 52.7652 122.601 52.7659Z" fill="#2B2B2B"/>
<path d="M103.513 59.6633C101.886 59.6828 100.573 60.9968 100.554 62.6233C100.588 64.2296 101.906 65.5112 103.513 65.5032C105.103 65.5032 106.393 64.2137 106.393 62.6232C106.402 61.0162 105.119 59.6986 103.513 59.6633Z" fill="#2B2B2B"/>
<path d="M51.0426 132.872L66.9836 174.387L76.5812 177.34C86.6878 176.873 104.472 177.74 104.472 177.74L102.183 129.049L95.4096 116.176L66.5779 114.25L51.0426 132.872Z" fill="#5A753C"/>
<path d="M104.329 176.533L66.896 174.029L69.236 180.249L83.0313 190.156L106.107 191.192L105.927 189.598L104.329 176.533Z" fill="#99C26C"/>
<path d="M69.232 180.25L50.5554 204.212L75.0354 208.309L106.103 191.194L69.232 180.25Z" fill="#53AF8A"/>
<path d="M50.5548 204.212L61.8085 220.908L55.8974 238.34L86.6056 257.628L106.103 191.194L50.5548 204.212Z" fill="#3E8F6E"/>
<path d="M127.991 27.9261L121.144 24.6069L117.774 31.4541L124.722 34.8237L127.991 27.9261Z" fill="#35785D"/>
<path d="M117.926 31.4036L111.028 28.0845L107.71 34.9245L114.665 38.3012L117.926 31.4036Z" fill="#53AF8A"/>
<path d="M107.968 34.8232L101.021 31.4536L97.752 38.3512L104.598 41.6704L107.968 34.8232Z" fill="#35785D"/>
<path d="M97.9092 38.3519L91.062 35.0327L87.6924 41.9303L94.59 45.2495L97.9092 38.3519Z" fill="#53AF8A"/>
<path d="M87.9027 41.7716L81.0051 38.4021L77.7364 45.2997L84.634 48.6189L87.9027 41.7716Z" fill="#35785D"/>
<path d="M77.9956 45.2499L71.1484 41.8804L67.7788 48.8284L74.7269 52.0971L77.9956 45.2499Z" fill="#53AF8A"/>
<path d="M68.0381 48.619L61.0901 45.2998L57.8213 52.147L64.7189 55.5166L68.0381 48.619Z" fill="#35785D"/>
<path d="M58.0293 52.097L51.1317 48.7778L47.8125 55.625L54.6526 58.9946L58.0293 52.097Z" fill="#53AF8A"/>
<path d="M104.911 165L136.187 156.029L139.147 158.729L140.235 162.2L106.106 191.194L104.911 165Z" fill="#99C26C"/>
<path d="M103.888 144.454L106.103 191.193L74.9336 143.896L87.7935 144.444L103.888 144.454Z" fill="#738D56"/>
<path d="M136.187 156.028L141.112 150.945L147.39 155.618L154.237 144.515L156.102 144.515L152.883 159.347L140.233 162.199L136.187 156.028Z" fill="#DFBCA4"/>
<path d="M138.621 153.437L152.884 159.348L155.634 152.659L156.102 144.516L154.237 144.516L149.723 150.168L147.39 155.618L144.431 152.09L141.112 150.945L138.621 153.437Z" fill="#8A6651"/>
<path d="M158.644 159.557L158.852 172.934L156.152 172.934L156.361 159.557L158.644 159.557Z" fill="#738D56"/>
<path d="M157.188 133.571L158.283 120.503L143.033 124.6L151.644 133.571L157.188 133.571Z" fill="#B8C645"/>
<path d="M151.645 135.955L137.274 129.367L132.141 142.334L151.645 140.052L151.645 135.955Z" fill="#B8C645"/>
<path d="M151.645 142.335L134.89 146.172L147.389 155.619L154.237 144.516L151.645 144.516L151.645 142.335Z" fill="#B8C645"/>
<path d="M156.102 144.515L152.883 159.348L166.059 159.557L159.989 144.515L156.102 144.515Z" fill="#B8C645"/>
<path d="M162.64 144.517L172.748 157.895L181.2 149.701L162.64 141.406L162.64 144.517Z" fill="#B8C645"/>
<path d="M162.639 139.642L182.237 144.307L184.21 133.263L162.639 137.1L162.639 139.642Z" fill="#B8C645"/>
<path d="M162.64 135.286L179.336 126.516L167.982 119.618L158.903 133.572L162.64 133.572L162.64 135.286Z" fill="#B8C645"/>
<path d="M162.638 144.516L151.644 144.516L151.644 133.572L162.638 133.572L162.638 144.516Z" fill="#5A753C"/>
<path d="M157.189 133.572L151.645 139.073L157.188 144.516L162.639 139.073L157.189 133.572Z" fill="#D9E253"/>
<path d="M86.9609 93.7192L84.4412 138.359L87.6812 145.019L93.087 138.719L90.7957 101.97L86.9609 93.7192Z" fill="#D9E354"/>
<path d="M88.212 95.7134L103.404 123.044L115.025 144.515L87.7947 144.983L88.212 95.7134Z" fill="#D9E253"/>
<path d="M82.8698 65.4739L51.1328 133.413L31.7863 123.305L44.9045 104.426L84.6336 48.6187L82.8698 65.4739Z" fill="#D9E253"/>
<path d="M82.8699 65.4737L72.3827 87.9241L51.1333 133.413L71.0299 142.175L74.9367 143.896L77.6291 117.076L82.2512 96.6425L82.8699 65.4737Z" fill="#B8C645"/>
<path d="M84.634 48.6183L74.9368 143.896L87.7967 144.983L88.2137 95.7135L87.8531 41.6703L84.634 48.6183Z" fill="#E8EF78"/>
<path d="M87.9537 61.996L82.8705 65.4737L81.6755 77.6129L88.0546 73.3072L87.9537 61.996Z" fill="#5A753C"/>
<path d="M88.055 73.3075L81.6765 77.6132L80.7975 86.426L88.1055 82.3795L88.055 73.3075Z" fill="#99C26C"/>
<path d="M88.1041 82.3791L80.7961 86.4255L79.7594 96.2319L88.1618 91.5591L88.1041 82.3791Z" fill="#5A753C"/>
<path d="M88.162 91.5597L79.7596 96.2326L78.6725 107.069L88.1621 101.625L88.162 91.5597Z" fill="#99C26C"/>
<path d="M88.164 101.625L78.6744 107.068L77.6306 117.076L88.1065 111.273L88.164 101.625Z" fill="#5A753C"/>
<path d="M4.76706 144.39L-0.602874 120.528L-7.57663 135.893L4.76706 144.39Z" fill="#3E8F6E"/>
<path d="M2.78614 148.6L-7.57617 135.894L-7.21363 142.229L-5.57892 146.98L2.78614 148.6Z" fill="#738D56"/>
<path d="M179.221 34.9439L167.965 15.2957L165.434 32.4136L179.221 34.9439Z" fill="#3E8F6E"/>
<path d="M165.437 32.4131L150.334 25.5005L160.638 45.9357L165.437 32.4131Z" fill="#53AF8A"/>
<path d="M178.931 39.8949L165.435 32.4133L167.503 38.1935L171.152 42.1167L178.931 39.8949Z" fill="#738D56"/>
<path d="M165.436 32.4134L165 48.2772L171.152 42.1167L165.436 32.4134Z" fill="#99C26C"/>
<path d="M10.1929 36.3464L21.993 16.0532L25.4889 33.4195L10.1929 36.3464Z" fill="#3E8F6E"/>
<path d="M25.4883 33.4199L42.5619 28.4407L30.7982 48.164L25.4883 33.4199Z" fill="#53AF8A"/>
<path d="M10.4839 42.3451L25.4892 33.4189L22.53 40.1149L19.6284 43.0669L10.4839 42.3451Z" fill="#738D56"/>
<path d="M25.4892 33.4194L25.2827 50.9131L19.6284 43.0674L25.4892 33.4194Z" fill="#99C26C"/>
</g>
</g>
<defs>
<clipPath id="clip0_2013_38375">
<rect width="200" height="200" rx="100" fill="white"/>
</clipPath>
</defs>
</svg>
