<svg width="200" height="200" viewBox="0 0 200 200" fill="none" xmlns="http://www.w3.org/2000/svg">
<g clip-path="url(#clip0_2012_37519)">
<rect width="200" height="200" rx="100" fill="#CABDD1"/>
<mask id="mask0_2012_37519" style="mask-type:luminance" maskUnits="userSpaceOnUse" x="-9" y="12" width="288" height="288">
<path d="M279 12H-9V300H279V12Z" fill="white"/>
</mask>
<g mask="url(#mask0_2012_37519)">
<path d="M122.582 123.59L165.718 127.557L161.421 153.841L109.043 156.95L107.993 132.487L122.582 123.59Z" fill="#734D5F"/>
<path d="M156.635 104.549L161.388 154.045L184.604 134.632L169.397 102.588L163.234 100.294L156.635 104.549Z" fill="#95627B"/>
<path d="M75.1213 124.391L47.1241 143.061L66.5041 184.019L92.4862 140.58L75.1213 124.391Z" fill="#B3889D"/>
<path d="M59.3675 202.633L60.8958 190.838L52.4309 150.495L34.6862 143.227L26.1562 181.839L59.3675 202.633Z" fill="#734D5F"/>
<path d="M26.1562 181.838L54.8858 177.515L59.1955 192.888L59.8535 213.929L26.1562 181.838Z" fill="#532F42"/>
<path d="M87.8532 153.189L99.5458 131.584L116.267 134.943L128.207 201.662L88.4686 208.66L50.9649 208.708L49.299 152.187L57.0814 144.481L59.9402 132.603L87.8532 153.189Z" fill="#95627B"/>
<path d="M107.139 180.72L114.119 203.828L69.5436 206.53L71.6976 190.442L77.7215 164.936L87.8531 153.189L98.8041 162.604L107.139 180.72Z" fill="#734D5F"/>
<path d="M87.8545 153.189L107.14 180.72L101.13 134.234L87.8545 153.189Z" fill="#B3879D"/>
<path d="M91.4891 170.259L95.4321 174.811L91.0262 179.459L86.0954 174.871L91.4891 170.259Z" fill="#B3879D"/>
<path d="M94.7264 186.281L90.2756 190.689L95.3881 194.994L99.1338 190.732L94.7264 186.281Z" fill="#B3879D"/>
<g opacity="0.1">
<path d="M87.8545 153.189L117.793 137.462L101.13 134.234L87.8545 153.189Z" fill="black"/>
</g>
<path d="M105.077 143.419L129.429 135.15L124.107 128.392L101.117 134.232L105.077 143.419Z" fill="#584164"/>
<path d="M72.0864 141.561L42.8927 155.178L34.7745 143.015L46.1148 138.28L62.2909 131.525L72.0864 141.561Z" fill="#584164"/>
<path d="M62.2915 131.525L71.6982 190.442L87.8536 153.189L85.0976 150.854L63.1636 132.264L62.2915 131.525Z" fill="#B3879D"/>
<path d="M51.5084 95.9211L59.3022 93.3952L72.5982 102.44L64.8578 110.514L44.1101 113.631L51.5084 95.9211Z" fill="#584164"/>
<path d="M149.34 61.4523L146.355 80.4434L131.36 138.872L101.042 135.267L87.9586 153.365L68.9778 125.536L74.9543 93.9984L79.9294 91.6024L82.0943 76.7194L79.8855 54.577L104.156 40.7104L128.433 53.1363L132.692 40.1719L149.34 61.4523Z" fill="#DFBCA4"/>
<path d="M80.8121 54.8907L96.5667 81.5374L96.0563 136.752L87.9602 153.366L62.4939 131.74L64.8584 110.514L66.5621 106.195L66.3247 101.982L58.0133 101.297L57.1533 81.9697L69.6479 81.2794L74.8641 92.1941L78.8892 92.3773L81.386 76.9366L80.8121 54.8907Z" fill="#C3977A"/>
<path d="M60.7417 85.8809L67.057 85.7377L69.2264 98.1133L60.7417 85.8809Z" fill="#8A6651"/>
<path d="M101.124 135.166L81.8789 132.64L87.958 153.366L101.124 135.166Z" fill="#8A6651"/>
<path d="M66.3231 101.981L71.799 102.479L64.8567 110.513L66.3231 101.981Z" fill="#8A6651"/>
<path d="M147.885 61.3472L152.408 53.0771L162.481 45.6474L146.355 80.444L147.885 61.3472Z" fill="#A687B9"/>
<path d="M80.8122 54.8901L65.7919 47.0873L41.6533 41.0059L47.9265 75.9388L68.3258 77.8428L84.9886 76.7516L80.8122 54.8901Z" fill="#90759F"/>
<path d="M147.888 61.3469L133.014 44.8564L124.226 37.3977L114.976 24.8584L162.483 45.6471L147.888 61.3469Z" fill="#785D87"/>
<path d="M80.8123 54.8907L105.79 44.4195L90.5067 32.7443L71.0275 26.28L41.6534 41.0064L80.8123 54.8907Z" fill="#785D87"/>
<path d="M86.4039 12.3573L71.0254 26.2812L105.788 44.4206L130.434 57.0143L133.01 44.8571L114.973 24.8597L86.4039 12.3573Z" fill="#90759F"/>
<path d="M84.9869 76.752L47.9248 75.9392L51.5074 95.9205L58.0117 101.297L58.0058 82.7405L69.7299 82.9116L73.3783 95.1682L80.3997 93.7489L84.9869 76.752Z" fill="#785D87"/>
<path d="M139.064 86.9592L96.5679 81.5366L108.255 92.5237L115.03 111.649L139.064 86.9592Z" fill="#C3977A"/>
<path d="M96.1977 121.619L117.211 127.5L131.943 125.152L117.664 118.609L96.1977 121.619Z" fill="#8A6651"/>
<path d="M96.1977 121.618L115.029 111.65L123.669 112.829L131.943 125.152L96.1977 121.618Z" fill="#785D87"/>
<path d="M119.856 84.5117L115.031 111.65L123.67 112.83L126.662 85.3815L119.856 84.5117Z" fill="#E8C9B6"/>
<path d="M96.634 82.4074L138.562 91.2045L140.057 85.7876L99.5279 79.7103L96.634 82.4074Z" fill="#785D87"/>
<path d="M123.668 112.786L118.738 115.634L115.03 111.65L123.668 112.786Z" fill="#584164"/>
<path d="M104.615 91.95L108.141 95.6277L111.654 94.1253" stroke="#2B2B2B" stroke-width="2.88"/>
<path d="M128.812 95.8535L131.523 98.9205L135.354 97.7362" stroke="#2B2B2B" stroke-width="2.88"/>
<path d="M150.342 89.331L157.212 84.6892L147.795 73.1299L142.554 74.1753L140.605 79.5837L150.342 89.331Z" fill="#C3987B"/>
<path d="M150.394 100.379L156.535 104.39L161.265 103.813L162.096 87.5411L148.642 93.3054L150.394 100.379Z" fill="#8A6651"/>
<path d="M173.389 83.4761L169.299 102.428L156.536 104.389L162.096 87.5397L164.321 83.3075L173.389 83.4761Z" fill="#C3977A"/>
<path d="M144.12 83.1362L154.122 74.744L173.388 83.4772L162.096 87.5406L151.831 87.9511L144.12 83.1362Z" fill="#E8C9B6"/>
<path d="M162.095 87.5406L154.12 95.115L142.333 91.2199L144.119 83.1362L162.095 87.5406Z" fill="#DFBCA4"/>
</g>
</g>
<defs>
<clipPath id="clip0_2012_37519">
<rect width="200" height="200" rx="100" fill="white"/>
</clipPath>
</defs>
</svg>
