<svg width="200" height="200" viewBox="0 0 200 200" fill="none" xmlns="http://www.w3.org/2000/svg">
<g clip-path="url(#clip0_2013_37717)">
<rect width="200" height="200" rx="100" fill="#CABDD1"/>
<mask id="mask0_2013_37717" style="mask-type:luminance" maskUnits="userSpaceOnUse" x="-36" y="12" width="288" height="288">
<path d="M252 12H-36V300H252V12Z" fill="white"/>
</mask>
<g mask="url(#mask0_2013_37717)">
<path d="M127.082 115.255L152.807 97.6441L176.308 101.669L147.602 138.735L127.082 115.255Z" fill="#C4C4C4"/>
<path d="M176.307 101.668L178.776 69.1675L169.697 62.5508L152.806 97.6438L176.307 101.668Z" fill="#9DA0A1"/>
<path d="M167.752 40.7135L160.25 20.964L152.877 22.9945L156.636 42.9024L148.902 70.9249L155.282 76.2024L170.366 72.0479L185.442 67.8933L188.222 60.0885L167.752 40.7135Z" fill="#EBEBEB"/>
<path d="M185.537 60.7361L174.461 50.2602L155.483 55.7973L151.537 70.0965L155.828 73.6533L183.663 65.9777L185.537 60.7361Z" fill="#785D87"/>
<path d="M156.464 69.3593L157.701 66.6946L160.365 67.9308L159.129 70.5955L156.464 69.3593Z" fill="#A687B9"/>
<path d="M156.448 64.4204L156.982 63.2712L158.131 63.8055L157.597 64.9546L156.448 64.4204Z" fill="#A687B9"/>
<path d="M161.277 67.8374L161.812 66.6882L162.961 67.2225L162.426 68.3716L161.277 67.8374Z" fill="#A687B9"/>
<path d="M161.272 64.1154L161.806 62.9663L162.956 63.5005L162.422 64.6497L161.272 64.1154Z" fill="#A687B9"/>
<path d="M166.152 42.4275L170.897 31.4475L181.525 47.5537L180.394 52.6802L174.447 50.333L166.152 42.4275Z" fill="#DFBCA4"/>
<path d="M158.896 40.5836L166.679 52.5355L174.448 50.3322L170.898 31.4466L158.896 40.5836Z" fill="#C3977A"/>
<path d="M135.1 200.59L176.961 243.034L144.841 181.603L137.635 186.672L135.1 200.59Z" fill="#EBEBEB"/>
<path d="M137.635 197.912L176.962 243.034L153.44 265.008L141.279 231.464L137.635 197.912Z" fill="#C4C4C4"/>
<path d="M122.932 150.543L137.635 197.912L144.842 181.604L147.268 143.89L122.932 150.543Z" fill="#8F8F8F"/>
<path d="M111.911 120.111L127.079 153.805L147.268 143.89L147.599 138.735L127.079 115.256L111.911 120.111Z" fill="#DDDDDC"/>
<path d="M115.742 122.67C115.742 122.67 101.855 138.257 98.2502 141.621C102.174 147.834 106.099 154.047 110.024 160.26C115.769 158.344 121.516 156.429 127.262 154.513C125.294 146.937 115.742 122.67 115.742 122.67Z" fill="#584164"/>
<path d="M111.983 120.206L123.287 145.016L108.184 131.167L111.983 120.206Z" fill="#90759F"/>
<path d="M130.594 168.493L127.087 153.827L109.735 159.637L112.536 194.817L112.731 195.032L137.636 197.912L130.594 168.493Z" fill="#584164"/>
<path d="M111.924 120.166L127.131 153.819L131.436 151.509L139.162 129.08L111.924 120.166Z" fill="#EBEBEB"/>
<path d="M90.1599 192.423L121.343 190.213L136.06 203.339L149.832 249.859L83.209 249.645L90.1599 192.423Z" fill="#785D87"/>
<path d="M112.529 195.009L149.832 249.671L137.636 197.911L125.54 193.958L112.529 195.009Z" fill="#90759F"/>
<path d="M37.1021 151.471L14.1846 135.502L35.583 129.079L43.6254 132.01L37.1021 151.471Z" fill="#95627B"/>
<path d="M73.0655 112.555L37.1015 151.471L33.8184 98.7163L73.0655 112.555Z" fill="#532F42"/>
<path d="M44.0636 43.0101L33.818 69.0596L12.1171 97.8956L19.3316 49.4108L44.0636 43.0101Z" fill="#B3879D"/>
<path d="M44.0636 43.0101L12.1171 97.8956L42.5947 88.5357L44.0636 43.0101Z" fill="#95627B"/>
<path d="M12.1181 97.8962L33.819 86.7578L50.1918 92.5539L65.3261 101.532L73.0661 112.555L12.1181 97.8962Z" fill="#734D5F"/>
<path d="M33.8184 86.7575L63.1223 102.266L50.6376 82.8479L33.8184 86.7575Z" fill="#532F42"/>
<path d="M114.63 28.0993L119.836 31.7857L141.277 91.4665L117.719 101.762L108.344 131.321L85.7794 118.74L56.9867 84.144L48.6924 36.12L96.7812 14.3328L114.63 28.0993Z" fill="#DFBCA4"/>
<path d="M108.942 131.169L111.352 123.386L99.6554 112.678L75.737 52.5648L66.9818 45.0984L48.6938 87.3336L63.1226 102.266L67.097 104.448L73.0658 112.555L85.7809 125.717L95.9041 131.124L108.942 131.169Z" fill="#C3977A"/>
<path d="M90.1567 113.866L110.9 123.341L111.352 123.456L117.718 101.763L90.1567 113.866Z" fill="#8A6651"/>
<path d="M66.9811 45.0984L93.1387 35.7673L101.44 26.5657L97.178 12.0001L45.9931 34.7952L55.0723 48.4104L66.9811 45.0984Z" fill="#B3879D"/>
<path d="M63.1216 102.267L67.384 96.3416L73.0648 112.556L63.1216 102.267Z" fill="#8A6651"/>
<path d="M63.1226 102.267L70.0058 92.6835L54.1226 74.8059L48.6938 87.3339L63.1226 102.267Z" fill="#DFBCA4"/>
<path d="M55.85 81.437L62.078 89.0546L51.8252 87.1034L55.85 81.437Z" fill="#8A6651"/>
<path d="M73.9208 96.6213L70.796 99.7605L64.1504 93.1005L67.4408 89.7957L73.9208 96.6213Z" fill="white"/>
<path d="M97.1779 12L93.1386 35.7672L114.631 28.0992L97.1779 12Z" fill="#95627B"/>
<path d="M54.1218 74.8058L67.4418 89.7963L73.0362 81.5379L58.9026 63.7538L66.9811 45.0987L45.9931 34.7954L33.8178 86.7578L44.0562 87.1538L48.693 87.3338L54.1218 74.8058Z" fill="#734D5F"/>
<path d="M85.7838 125.717L103.222 147.958C106.022 151.952 108.823 155.946 111.623 159.94C111.926 171.63 112.229 183.319 112.532 195.01C105.1 194.174 97.6672 193.338 90.2346 192.502C82.8567 176.12 75.4787 159.739 68.1007 143.358L85.7838 125.717Z" fill="#DDDDDC"/>
<path d="M85.7813 125.717L81.7927 147.433L103.22 147.958L97.1142 137.54L85.7813 125.717Z" fill="#EBEBEB"/>
<path d="M130.596 168.493L127.09 153.827L109.738 159.637L112.539 194.817L112.733 195.032L137.638 197.912L130.596 168.493Z" fill="#584164"/>
<path d="M91.363 144.315L89.1095 154.87L107.297 163.676L113.77 160.443L102.503 146.929L91.363 144.315Z" fill="#EBEBEB"/>
<path d="M85.7838 125.717L103.222 147.958L107.298 163.676L112.532 195.01L109.739 273.167L68.1017 264.282L94.9859 190.215L68.1007 143.358L85.7838 125.717Z" fill="#DDDDDC"/>
<path d="M112.531 195.01L68.1002 264.281L90.1604 192.425L102.12 190.215L112.531 195.01Z" fill="#C4C4C4"/>
<path d="M113.769 160.464L95.9063 163.676L82.7448 175.917L90.1609 192.425L112.531 195.01L113.769 160.464Z" fill="#8F8F8F"/>
<path d="M85.7813 125.717L81.7927 147.433L103.22 147.958L97.1142 137.54L85.7813 125.717Z" fill="#EBEBEB"/>
<path d="M108.448 131.124L103.941 138.735L98.2532 141.622L85.7827 125.717L108.448 131.124Z" fill="#90759F"/>
<path d="M108.476 131.132L108.447 131.125L98.252 141.622L103.22 147.958L110.24 142.004L108.476 131.132Z" fill="#584164"/>
<path d="M82.529 144.278L80.2755 154.834L98.4627 163.639L112.878 159.99L102.088 146.49L82.529 144.278Z" fill="#EBEBEB"/>
<path d="M120.227 73.7468L117.785 78.5204L111.86 76.778L120.227 73.7468Z" fill="#8A6651"/>
<path d="M82.3838 55.624L86.7542 54.8176L89.627 51.2392L95.9054 51.2392L87.503 49.252L82.3838 55.624Z" fill="#734D5F"/>
<path d="M110.203 47.1562L113.566 46.033L115.811 40.7338L120.664 40.7338L114.163 38.8618L110.203 47.1562Z" fill="#734D5F"/>
<path d="M99.1509 90.235L107.805 87.9167L115.437 90.2351L110.901 85.3103L108 86.1743L106.452 84.7271L99.1509 90.235Z" fill="#584164"/>
<path d="M99.6113 90.1132L104.327 91.7764L112.73 89.4149L107.805 87.9172L99.6113 90.1132Z" fill="#90759F"/>
<path d="M126.822 63.0901L118.347 69.0589L115.95 65.0485L126.822 63.0901Z" fill="#C3977A"/>
<path d="M89.1445 76.7778L110.478 73.3147L110.37 67.3675L89.1445 76.7778Z" fill="#C3977A"/>
<path d="M84.1684 63.0689L102.118 62.9249L99.9077 57.3521L84.1684 63.0689Z" fill="#C3977A"/>
<path d="M122.661 49.1084L117.722 56.9996L115.439 51.6644L122.661 49.1084Z" fill="#C3977A"/>
<path d="M120.226 73.7467L111.86 76.7779L102.118 52.4346L110.477 49.4107L120.226 73.7467Z" fill="#E8C9B6"/>
<path d="M54.1221 74.8049L51.2493 81.4361L48.6933 72.8465L79.0846 60.8081L82.3821 68.9514L54.1221 74.8049Z" fill="#584164"/>
<path d="M117.413 66.5178L138.415 58.8786L131.633 41.7498L79.0722 60.8082L86.0058 77.9154L108.902 69.5994L103.545 56.0778L111.919 52.9962L117.413 66.5178ZM88.1953 72.9978L84.1698 63.069L99.909 57.3594L103.847 67.3026L88.1953 72.9978ZM133.36 56.6394L119.594 61.6074L115.562 51.6714L129.422 46.6314L133.36 56.6394Z" fill="#584164"/>
<path d="M97.8979 62.2998C99.1982 62.2998 100.252 63.3539 100.252 64.6542C100.252 65.9545 99.1982 67.0086 97.8979 67.0086C96.5975 67.0086 95.5435 65.9545 95.5435 64.6542C95.5435 63.3539 96.5975 62.2998 97.8979 62.2998Z" fill="#2B2B2B"/>
<path d="M123.811 52.7092C125.112 52.7092 126.167 53.7633 126.167 55.0636C126.167 56.364 125.112 57.418 123.811 57.418C122.511 57.418 121.457 56.3639 121.457 55.0636C121.457 53.7633 122.511 52.7092 123.811 52.7092Z" fill="#2B2B2B"/>
<path d="M68.0986 143.357L82.7365 175.916L131.452 151.659L117.721 147.49L103.22 147.958L68.0986 143.357Z" fill="#9DA0A1"/>
<path d="M131.446 151.659L127.083 115.255L121.82 108.999L115.441 108.999L103.222 147.958L131.446 151.659Z" fill="#C4C4C4"/>
<path d="M115.438 108.998L121.089 90.4152L131.177 94.7784L136.058 103.015L127.08 115.255L115.438 108.998Z" fill="#C3977A"/>
<path d="M121.087 90.4155L134.515 86.369L141.276 91.4666L133.018 94.5122L121.087 90.4155Z" fill="#C3977A"/>
<path d="M121.087 90.4155L141.276 91.4666L142.565 100.683L136.056 103.015L121.087 90.4155Z" fill="#DFBCA4"/>
</g>
</g>
<defs>
<clipPath id="clip0_2013_37717">
<rect width="200" height="200" rx="100" fill="white"/>
</clipPath>
</defs>
</svg>
