<svg width="200" height="200" viewBox="0 0 200 200" fill="none" xmlns="http://www.w3.org/2000/svg">
<g clip-path="url(#clip0_2013_39013)">
<rect width="200" height="200" rx="100" fill="#BBE6E7"/>
<mask id="mask0_2013_39013" style="mask-type:luminance" maskUnits="userSpaceOnUse" x="-44" y="12" width="288" height="288">
<path d="M244 12H-44V300H244V12Z" fill="white"/>
</mask>
<g mask="url(#mask0_2013_39013)">
<path d="M109.517 131.29L116.897 134.602L141.558 171.005L123.507 162.466L109.517 153.495L109.517 131.29Z" fill="#50A9AA"/>
<path d="M70.9465 137.215L49.1092 183.533L67.354 173.294L79.3491 167.405L70.9465 137.215Z" fill="#50A9AA"/>
<path d="M109.517 131.289L101.259 152.378L89.6447 157.346L101.511 148.432L86.0588 129.547L70.9461 137.215L76.0728 165.842L69.5642 185.333L60.3621 205.27L83.5036 205.269L109.518 200.618L116.487 191.113L123.507 162.465L109.517 131.289Z" fill="#71CACC"/>
<path d="M76.0728 165.842L69.5642 185.333L91.9346 185.225L116.285 189.134L123.002 169.42L123.506 162.465L76.0728 165.842Z" fill="#369395"/>
<path d="M109.515 131.289L83.501 130.67L83.5013 160.759L101.256 152.378L120.934 156.733L109.515 131.289Z" fill="white"/>
<g opacity="0.2">
<path d="M67.4244 189.962L69.5627 185.333L98.4923 185.225L111.627 189.524L116.485 191.114L109.516 200.618L67.4244 189.962Z" fill="#2B2B2B"/>
</g>
<path d="M109.518 200.618L119.927 235.347L121.693 241.24L116.487 191.114L109.518 200.618Z" fill="#369395"/>
<path d="M76.0729 165.842L97.1977 179.083L98.4938 183.158L97.1978 187.766L49.109 183.533L76.0729 165.842Z" fill="#DFBCA4"/>
<path d="M136.271 53.9402L152.161 64.0706L139.654 81.005L136.271 67.4762L136.271 53.9402Z" fill="#4F5252"/>
<path d="M103.671 12.0004L50.4053 35.7317L57.9869 49.1237L64.2654 53.9405L85.4549 49.8436L109.049 37.1644L108.329 26.1556L103.671 12.0004Z" fill="#71CACC"/>
<path d="M109.047 37.165L120.481 47.2665L136.271 53.9409L140.598 27.3945L103.669 12.001L109.047 37.165Z" fill="#8BDFDC"/>
<path d="M50.4023 35.7319L53.6496 67.4767L61.0008 61.1623L64.2624 53.9407L50.4023 35.7319Z" fill="#369395"/>
<path d="M104.765 17.1055L102.633 17.9695L103.778 24.0607L98.6743 26.1127L99.4433 30.1519L104.75 28.1359L105.959 33.7159L108.148 32.9742L108.328 26.1558L104.765 17.1055Z" fill="#27788B"/>
<path d="M104.764 17.1055L107.276 18.3367L108.486 23.5351L113.684 26.0335L113.612 29.6623L109.357 27.7615L110.531 33.7375L108.148 32.9743L104.764 17.1055Z" fill="#308FA6"/>
<path d="M136.271 53.941L144.17 117.164L112.928 122.183L101.258 152.379L76.2296 117.222L58.6983 100.345L70.7072 93.7427L73.796 97.2203L85.2807 68.7155L95.5911 62.5163L108.327 56.8499L136.271 53.941Z" fill="#DFBCA4"/>
<path d="M85.2816 68.7153L93.0217 125.869L112.928 122.182L106.673 128.137L108.329 134.091L101.258 152.379L70.4929 114.651L68.2825 109.755L65.0641 107.999L55.4161 96.1617L67.4257 85.9953L72.9553 98.4729L77.0449 86.7153L85.2816 68.7153Z" fill="#C3977A"/>
<path d="M131.038 70.4506L119.51 86.3482L113.945 93.757L97.3272 75.8651L131.038 70.4506Z" fill="#C3977A"/>
<path d="M111.021 73.6186L113.945 93.757L120.482 92.857L117.437 72.5674L111.021 73.6186Z" fill="#E8C9B6"/>
<path d="M120.482 92.8569L117.638 97.2201L113.944 93.7569L120.482 92.8569Z" fill="#8A6651"/>
<path d="M112.928 122.182L108.327 134.091L87.0659 125.926L112.928 122.182Z" fill="#8A6651"/>
<path d="M72.7805 103.159L70.4982 114.658L65.0693 108.005L72.7805 103.159Z" fill="#8A6651"/>
<path d="M70.2604 101.223L66.0268 93.8935L60.3604 97.22L70.2604 101.223Z" fill="#8A6651"/>
<path d="M106.671 62.5164L110.372 49.8443L109.047 37.1651L64.263 53.9412L42.9942 80.8621L64.4934 75.8652L85.2798 68.7156L94.5678 66.0228L106.671 62.5164Z" fill="#4F5252"/>
<path d="M85.2797 68.7152L73.6734 99.9129L67.4238 89.5593L55.4142 96.1617L42.9942 80.8617L85.2797 68.7152Z" fill="#2B2B2B"/>
<path d="M109.048 37.1648L136.272 53.9407L106.672 62.516L109.048 37.1648Z" fill="#6E7073"/>
<path d="M123.504 162.465L120.358 174.078L122.187 183.532L140.432 179.29L141.555 171.003L123.504 162.465Z" fill="#DFBCA4"/>
<path d="M122.189 183.531L116.487 191.112L97.1982 187.765L112.93 181.536L122.189 183.531Z" fill="#8A6651"/>
<path d="M122.189 183.532L116.487 191.113L114.291 184.15L122.189 183.532Z" fill="#C3977A"/>
<path d="M97.1982 179.081L110.374 171.002L113.945 175.992L114.291 184.149L97.1982 187.765V179.081Z" fill="#C3977A"/>
<path d="M110.373 171.004L120.359 174.079L122.188 183.532L114.29 184.151L114.166 183.735L110.373 171.004Z" fill="#E8C9B6"/>
<path d="M111.023 73.6172L110.346 69.1604L97.3281 75.8636L111.023 73.6172Z" fill="#4F5252"/>
<path d="M117.438 72.5661L131.039 70.4493L116.941 68.2605L117.438 72.5661Z" fill="#4F5252"/>
<path d="M111.691 105.694L118.367 101.539L125.667 103.469L119.144 107.357L111.691 105.694Z" fill="#1C7678"/>
<path d="M106.076 104.989L119.893 110.856L130.304 101.223L119.144 106.637L106.076 104.989Z" fill="#50A9AA"/>
<path d="M108.77 83.6331C108.77 85.3352 107.389 86.7147 105.687 86.7147C103.985 86.7147 102.605 85.3352 102.605 83.6331C102.605 81.931 103.985 80.5515 105.687 80.5515C107.389 80.5515 108.77 81.931 108.77 83.6331Z" fill="#2B2B2B"/>
<path d="M127.949 80.5507C127.953 82.2528 126.576 83.6359 124.874 83.6395C123.172 83.6431 121.788 82.2679 121.785 80.5658C121.781 78.8638 123.158 77.4799 124.859 77.4763L124.874 77.4763C126.573 77.4763 127.949 78.8529 127.949 80.5507Z" fill="#2B2B2B"/>
</g>
</g>
<defs>
<clipPath id="clip0_2013_39013">
<rect width="200" height="200" rx="100" fill="white"/>
</clipPath>
</defs>
</svg>
