<svg width="200" height="200" viewBox="0 0 200 200" fill="none" xmlns="http://www.w3.org/2000/svg">
<g clip-path="url(#clip0_2013_39774)">
<rect width="200" height="200" rx="100" fill="#E7D88E"/>
<mask id="mask0_2013_39774" style="mask-type:luminance" maskUnits="userSpaceOnUse" x="-44" y="12" width="288" height="288">
<path d="M244 12H-44V300H244V12Z" fill="white"/>
</mask>
<g mask="url(#mask0_2013_39774)">
<path d="M116.541 135.324L124.017 137.826L128.159 141.773L133.585 141.028L143.798 151.423L140.864 160.957L133.402 172.031L68.4764 173.673L60.7083 167.121L54.7985 159.083L69.3885 140.845L74.9461 140.128L77.7512 137.267L86.1147 133.689L99.0244 142.974L116.541 135.324Z" fill="#464646"/>
<path d="M133.674 216.439L100.481 232.488L65.1013 217.898L68.4743 173.672L73.9801 167.412L79.5083 164.279L122.731 161.908L127.839 164.612L133.4 172.03L133.674 216.439Z" fill="#856300"/>
<path d="M133.584 141.027L133.402 172.031L122.733 161.909L124.013 137.824L133.584 141.027Z" fill="#BE8F00"/>
<path d="M77.7509 137.267L79.5099 164.281L68.4753 173.672L69.3874 140.845L77.7509 137.267Z" fill="#BE8F00"/>
<path d="M115.615 202.213L86.4406 202.214L86.4404 172.48L115.615 172.48L115.615 202.213Z" fill="#9E7700"/>
<path d="M133.501 188.173L130.21 185.8L126.927 191.818L131.304 191.09L133.551 196.381L133.501 188.173Z" fill="#9E7700"/>
<path d="M86.44 199.112L94.0994 196.56L93.37 190.359L97.0175 188.9L94.8286 182.881L92.8227 183.611L93.0056 186.529L88.2637 186.165L86.44 190.724L85.7589 194.463L86.44 199.112Z" fill="#CCAC13"/>
<path d="M86.4399 190.725L80.2393 191.636L83.1568 199.113L86.44 199.113L86.4399 190.725Z" fill="#B58A00"/>
<path d="M158.025 163.549L143.798 151.422L133.404 172.03L143.891 175.586L153.479 172.24L158.025 163.549Z" fill="#DFBCA4"/>
<path d="M68.4778 173.672L50.9697 188.08L46.1333 169.299L54.7992 159.082L68.4778 173.672Z" fill="#DFBCA4"/>
<path d="M43.1254 157.623L7.74464 162.911L-3.56282 193.186L12.4868 218.536L44.7673 229.844L76.7749 222.71L73.7645 192.457L50.9678 188.079L43.1254 157.623Z" fill="#E4C728"/>
<path d="M34.9206 173.125L31.0391 176.921L25.4375 180.421L33.2798 192.821L42.0336 185.527L37.4075 178.564L34.9206 173.125Z" fill="#C3977A"/>
<path d="M39.2716 187.829L36.3808 179.143L25.4375 180.421L34.9213 173.125L42.0336 185.527L39.2716 187.829Z" fill="#8A6651"/>
<path d="M36.3798 179.142L25.4358 180.419L22.337 192.131L25.7498 194.009L36.3798 179.142Z" fill="#DFBCA4"/>
<path d="M19.1773 173.876L12.3287 171.362L9.81448 178.209L16.6631 180.724L19.1773 173.876Z" fill="#464646"/>
<path d="M14.7989 185.913L7.95027 183.399L5.43607 190.247L12.284 192.762L14.7989 185.913Z" fill="#802C00"/>
<path d="M19.1759 199.409L12.3272 196.894L9.81302 203.742L16.6617 206.257L19.1759 199.409Z" fill="#A84000"/>
<path d="M36.3784 179.143L33.2774 192.822L30.1202 187.828L36.3784 179.143Z" fill="#8A6651"/>
<path d="M30.1201 187.828L25.7491 194.01L33.2774 192.822L30.1201 187.828Z" fill="#CCAC13"/>
<path d="M143.889 175.586L169.273 153.674L177.702 153.195L176.275 163.118L162.022 181.44L143.889 175.586Z" fill="#C3977A"/>
<path d="M169.275 153.674L176.277 163.117L182.698 160.871L177.589 147.652L169.275 153.674Z" fill="#8A6651"/>
<path d="M146.842 122.123L180.157 158.127L183.839 155.234L185.903 151.345L146.842 122.123Z" fill="#464646"/>
<path d="M193.252 167.417L194.26 172.824L203.379 174.101L201.373 169.359L197.308 168.366L194.881 166.518L193.252 167.417Z" fill="#BE8F00"/>
<path d="M194.625 157.868L197.308 168.366L187.512 166.075L190.728 161.292L194.625 157.868Z" fill="#856300"/>
<path d="M175.857 153.479L187.513 166.076L194.626 157.869L185.905 151.345L175.857 153.479Z" fill="#8F8F8F"/>
<path d="M173.284 159.081L175.856 153.478L183.923 154.432L185.905 151.345L174.711 142.971L169.275 153.674L173.284 159.081Z" fill="#DFBCA4"/>
<path d="M188.416 143.897L196.404 155.384L194.625 157.868L174.71 142.971L180.632 143.371L188.416 143.897Z" fill="#C3977A"/>
<path d="M53.3132 78.1664L92.5258 68.6601L133.363 56.6748L132.802 50.7909L129.469 42.1906L90.6271 59.7969L53.3132 78.1664Z" fill="#CCAC13"/>
<path d="M129.469 42.1905L88.0182 52.463L46.1481 65.8645L47.9344 71.2436L53.3128 78.1678L129.469 42.1905Z" fill="#E4C728"/>
<path d="M83.4396 43.7746L79.6553 56.3444L96.2369 51.6334L83.4396 43.7746Z" fill="#755700"/>
<path d="M129.47 42.1902L136.101 44.4063L143.33 49.6666L134.902 62.9852L133.044 59.1908L133.364 56.6744L129.47 42.1902Z" fill="#755700"/>
<path d="M129.47 42.19L128.618 35.4199L130.248 26.6157L138.718 39.2207L143.33 49.6657L129.47 42.19Z" fill="#CCAC13"/>
<path d="M130.247 26.616L152.518 40.4773L143.329 49.666L130.247 26.616Z" fill="#BE8F00"/>
<path d="M129.47 42.1902L130.248 26.6158L130.715 18.0507L127.687 21.2324L114.588 34.9974L114.981 46.3065L129.47 42.1902Z" fill="#856300"/>
<path d="M104.191 20.0816L102.995 26.6171L109.47 32.2309L115.61 35.3384L125.637 23.8651L107.356 11.8218L104.191 20.0816Z" fill="#BE8F00"/>
<path d="M115.609 35.337L102.994 26.6164L99.0545 36.4495L96.2364 51.6321L114.982 46.3055L115.609 35.337Z" fill="#CCAC13"/>
<path d="M81.8131 25.37L95.7767 26.8913L102.994 26.617L107.354 11.8217L81.8131 25.37Z" fill="#CCAC13"/>
<path d="M102.994 26.6164L81.813 25.3708L86.3001 35.4911L96.2361 51.6335L102.994 26.6164Z" fill="#BE8F00"/>
<path d="M42.3985 83.3488L58.4754 86.9063L55.9604 81.26L53.3136 78.1669L47.9777 79.4543L42.3985 83.3488Z" fill="#755700"/>
<path d="M96.2368 51.6327L84.1192 44.9648L76.5563 41.7299L72.0016 38.2977L73.9117 30.8961L76.963 24.9928L78.8544 19.9196L81.8136 25.37L96.2368 51.6327Z" fill="#CCAC13"/>
<path d="M72.002 38.2974L65.0251 36.082L58.0627 30.5884L56.5874 23.3474L76.9634 24.9932L72.002 38.2974Z" fill="#BE8F00"/>
<path d="M72.0029 38.2978L58.0637 30.5881L51.0552 39.933L55.7547 49.0633L63.6416 60.8943L70.1187 46.7787L72.0029 38.2978Z" fill="#856300"/>
<path d="M39.7799 67.7586L36.6148 86.0949L53.313 78.1669L46.149 65.8636L43.1048 65.6987L39.7799 67.7586Z" fill="#856300"/>
<path d="M51.0536 39.9321L44.7349 47.1444L42.4879 52.548L50.0169 55.8592L63.6401 60.8941L51.0536 39.9321Z" fill="#BE8F00"/>
<path d="M51.0547 39.9323L28.7823 47.4089L42.4889 52.5481L51.0547 39.9323Z" fill="#CCAC13"/>
<path d="M42.4877 52.5468L30.1837 70.6131L46.1475 65.8632L63.6392 60.8937L42.4877 52.5468Z" fill="#CCAC13"/>
<path d="M72.0025 38.2976L63.6412 60.8941L73.1165 72.8504L79.6554 56.3436L84.1194 44.9654L72.0025 38.2976Z" fill="#BE8F00"/>
<path d="M133.363 56.6759L147.069 112.897L122.15 121.775L118.853 127.688L116.544 135.324L105.827 142.76L96.9202 151.988L81.4027 123.35L70.8359 107.808L62.3888 93.5323L60.6031 86.5044L53.3131 78.1683L133.363 56.6759Z" fill="#DFBCA4"/>
<path d="M77.9133 99.4439L73.6696 92.3044L66.7749 95.8742L72.7581 98.6944L77.9133 99.4439Z" fill="#8A6651"/>
<path d="M85.0151 69.6547L106.713 127.149L115.609 127.107L116.544 135.324L96.92 151.987L83.3436 128.991L81.8135 124.105L79.3079 122.156L70.8356 107.806L83.9346 100.025L79.6332 91.8718L86.7965 87.6669L77.6128 71.6427L85.0151 69.6547Z" fill="#C3977A"/>
<path d="M98.0201 78.061L105.641 78.0113L114.363 89.8481L112.693 75.8966L107.858 68.8198L98.0201 78.061Z" fill="#C3977A"/>
<path d="M117.862 65.9111L121.328 84.3791L124.954 71.4702L131.251 67.6196L117.862 65.9111Z" fill="#C3977A"/>
<path d="M107.859 68.8185L95.9341 73.2912L98.0207 78.0605L107.859 68.8185Z" fill="#856300"/>
<path d="M117.863 65.911L130.142 62.5327L131.252 67.6202L117.863 65.911Z" fill="#856300"/>
<path d="M112.057 102.972L121.714 96.426L132.067 97.1236L123.785 103.322L112.057 102.972Z" fill="#755700"/>
<path d="M134.921 95.2982L123.446 102.644L108.133 103.085L124.487 107.135L134.921 95.2982Z" fill="#B58A00"/>
<path d="M77.6132 71.6422L86.7969 87.6672L79.6329 91.8728L75.8946 85.7981L62.3882 93.5317L53.3125 78.1677L77.6132 71.6422Z" fill="#856300"/>
<path d="M122.15 121.773L101.126 129.094L116.544 135.324L122.15 121.773Z" fill="#8A6651"/>
<path d="M83.8572 104.419L80.6504 117.011L73.9947 109.674L83.8572 104.419Z" fill="#8A6651"/>
<path d="M93.6737 113.622L83.3418 128.992L79.3457 122.134L84.1179 117.012L93.6737 113.622Z" fill="#8A6651"/>
<path d="M117.862 65.9108L107.858 68.819L114.363 89.848L124.175 86.888L117.862 65.9108Z" fill="#E8C9B6"/>
<path d="M124.175 86.8874L120.749 93.2724L114.363 89.8467L124.175 86.8874Z" fill="#8A6651"/>
<path d="M85.1627 99.2946L93.6739 113.622L79.346 122.133L70.8355 107.806L85.1627 99.2946ZM75.9583 109.11L80.6506 117.011L88.5511 112.317L83.8581 104.417L75.9583 109.11Z" fill="#755700"/>
<path d="M76.2385 96.6252L72.7573 98.6938L79.2791 109.673L82.7611 107.604L76.2385 96.6252Z" fill="#B58A00"/>
<path d="M109.283 83.8733C109.283 85.5675 107.91 86.9405 106.216 86.9405C104.522 86.9405 103.148 85.5675 103.148 83.8734C103.148 82.1792 104.522 80.8061 106.216 80.8061C107.91 80.8061 109.283 82.1792 109.283 83.8733Z" fill="#2B2B2B"/>
<path d="M129.993 77.0166C129.993 78.7101 128.62 80.0831 126.925 80.0831C125.232 80.0831 123.859 78.7101 123.859 77.0167C123.859 75.3225 125.232 73.9502 126.925 73.9502C128.62 73.9502 129.993 75.3225 129.993 77.0166Z" fill="#2B2B2B"/>
</g>
</g>
<defs>
<clipPath id="clip0_2013_39774">
<rect width="200" height="200" rx="100" fill="white"/>
</clipPath>
</defs>
</svg>
