<svg width="200" height="200" viewBox="0 0 200 200" fill="none" xmlns="http://www.w3.org/2000/svg">
<g clip-path="url(#clip0_2013_38875)">
<rect width="200" height="200" rx="100" fill="#BBE6E7"/>
<mask id="mask0_2013_38875" style="mask-type:luminance" maskUnits="userSpaceOnUse" x="-44" y="12" width="288" height="288">
<path d="M244 12H-44V300H244V12Z" fill="white"/>
</mask>
<g mask="url(#mask0_2013_38875)">
<path d="M111.782 17.0801L89.4926 21.642L76.5852 27.2393L65.544 23.5082H49.6306L53.6215 31.6982L60.4637 35.1197L56.4209 45.1752L57.5095 55.3351L61.2931 67.776L68.3426 77.7278L65.233 78.0907L62.7454 80.5783L60.8791 74.981L56.1098 66.2201L47.7643 68.0352L42.4248 71.4041L50.6148 85.3483L56.5246 92.5015L56.7319 97.6848L60.671 104.268L63.1594 107.274L62.7972 110.489L73.0082 116.812L88.9742 123.188L93.3806 118.679L95.4542 113.235V103.179L125.363 96.8042L120.335 61.9699L121.682 55.2307L119.196 43.3615L116.395 39.9912L111.782 17.0801Z" fill="#DFBCA4"/>
<path d="M63.1088 25.3738L70.1065 49.0625L74.7713 70.9887L83.1176 105.564L95.4541 103.18L94.3136 108L95.4541 113.235L88.9741 123.188L62.797 110.489L56.3696 97.1153L52.2231 85.3484L62.7466 80.5784L60.115 74.9033L59.4015 69.7035L63.7294 71.3005L57.5101 55.3345L57.5626 45.7973L60.4642 35.119L54.5552 30.5571L49.6304 23.5083L58.2358 23.9749L63.1088 25.3738Z" fill="#C3977A"/>
<path d="M52.2236 85.3481L62.7457 80.5781L56.3694 97.1151L52.4814 90.3233L52.2236 85.3481Z" fill="#8A6651"/>
<path d="M95.4546 103.179L77.9341 106.549L88.9746 123.188L93.7957 118.524L95.4546 113.235V103.179Z" fill="#8A6651"/>
<path d="M78.7117 64.8722L79.6448 55.0751L89.1301 52.7942L93.7438 62.9023L74.7718 70.9893L94.5214 68.9668L98.305 72.3364L92.9144 44.6567L76.5344 53.3651L74.7207 59.429L78.7117 64.8722Z" fill="#C3977A"/>
<path d="M109.501 58.1331L109.708 49.6321L118.313 46.8334L120.748 48.1287L120.334 59.2217L104.887 64.9753L105.458 68.1389L120.334 61.9693L122.978 52.5351L119.816 41.4946L104.11 45.9521L105.406 58.4967L109.501 58.1331Z" fill="#C3977A"/>
<path d="M98.3057 72.3366L102.815 75.6544L106.028 70.9888L98.3057 72.3366Z" fill="#8A6651"/>
<path d="M94.1587 50.0478L101.675 48.3882L106.029 70.989L98.3052 72.3368L94.1587 50.0478Z" fill="#E8C9B6"/>
<path d="M94.1582 50.0481L92.4482 47.4043L92.9134 44.6575L100.586 43.103L102.815 45.5381L101.674 48.3885L94.1582 50.0481Z" fill="#27788B"/>
<path d="M92.9139 44.656L70.1064 49.0624L70.9877 57.3561L73.0095 62.4364L74.7706 70.9893L97.164 66.2726L94.158 50.0481L92.9139 44.656ZM76.5339 53.3644L88.7674 50.9805L90.9958 62.3838L78.7104 64.8722L76.5339 53.3644Z" fill="#308FA6"/>
<path d="M100.587 43.1007L122.928 38.7468L127.076 60.57L104.889 64.975L101.676 48.3876L100.587 43.1007ZM107.43 47.4545L109.503 58.1335L120.131 56.2155L118.004 45.3291L107.43 47.4545Z" fill="#308FA6"/>
<path d="M90.9453 86.3842L113.234 81.9785L113.597 83.7411L91.3075 88.1993L90.9453 86.3842Z" fill="#8A6651"/>
<path d="M57.4024 78.6454L52.8463 69.9521L48.1807 72.0776L57.4024 78.6454Z" fill="#8A6651"/>
<path d="M69.4849 12L72.3361 21.2268L76.5862 27.2395L111.783 17.081L69.4849 12Z" fill="#DDDDDC"/>
<path d="M49.6309 23.5083L40.4559 27.9147L38.2261 46.0573L48.697 43.0513L60.464 35.1205L49.6309 23.5083Z" fill="#C4C4C4"/>
<path d="M38.2275 46.0559L34.0811 77.0015L47.7654 68.0339L58.5481 57.9784L60.4647 35.1191L38.2275 46.0559Z" fill="#DDDDDC"/>
<path d="M59.273 59.3267L65.686 72.3378L60.1154 74.9039L55.8515 65.703L44.1364 71.9231L51.9642 84.9342L56.3692 97.1151L34.4956 76.6405L40.6127 71.7675L59.273 59.3267Z" fill="#9DA0A1"/>
<path d="M69.4829 12L49.6304 23.5078L76.5843 27.2395L69.4829 12Z" fill="#C4C4C4"/>
<path d="M70.1066 49.063L40.6118 71.7667L43.877 79.7494L44.1362 71.9223L72.1795 58.6008L70.1066 49.063Z" fill="#27788B"/>
<path d="M61.502 63.6271L72.181 58.6001L72.4402 59.7413L73.0104 62.4355L62.569 66.0132L61.502 63.6271Z" fill="#8A6651"/>
<path d="M56.1113 66.2204L61.5027 63.6284L62.5697 66.0131L56.9408 68.0867L56.1113 66.2204Z" fill="#737373"/>
<path d="M62.7968 110.489L60.3604 120.596L82.702 132.933L91.8769 135.887L98.6672 128.268L102.4 118.574L95.4531 113.235L88.9739 123.188L62.7968 110.489Z" fill="#DDDDDC"/>
<path d="M88.9738 123.187L83.4795 131.792L91.8769 135.887L97.1638 127.334L88.9738 123.187Z" fill="#4F5252"/>
<path d="M102.405 118.575L112.461 121.685L104.529 137.444L95.1476 150.144L71.5619 139.413L51.6567 127.181L60.3651 120.598L91.8824 135.889L102.405 118.575Z" fill="#C4C4C4"/>
<path d="M51.6567 127.18L85.9208 145.271L90.1184 146.515L95.1476 150.144L72.1314 176.942L51.7604 142.524L51.6567 127.18Z" fill="#1C7678"/>
<path d="M95.1472 150.143L97.0127 145.011L101.16 140.242L112.46 121.685L123.293 146.358L116.192 164.863L105.773 177.643L99.5529 184.925L92.5552 167.611L95.1472 150.143Z" fill="#1C7678"/>
<path d="M91.8822 135.888L85.9199 145.271L95.1482 150.144L101.161 140.242L91.8822 135.888Z" fill="#737373"/>
<path d="M116.192 164.864L99.5525 184.924L98.6719 190.73L95.8726 208.821L119.821 207.991L116.192 164.864Z" fill="#369395"/>
<path d="M50.1481 142.264L95.1416 150.143L104.679 151.802L99.5595 184.928L95.8674 208.821L92.6533 229.607L37.9146 221.262L50.1481 142.264Z" fill="#8F8F8F"/>
<path d="M95.8685 208.82L40.2485 206.591L41.7519 196.587L77.6734 199.956L85.3976 203.636L90.3742 204.88L95.8685 208.82Z" fill="#6E7073"/>
<path d="M51.6536 127.179L52.2238 176.631L29.623 194.461L33.7695 137.546L51.6536 127.179Z" fill="#71CACC"/>
<path d="M52.2238 175.518L76.6642 184.226L79.1007 185.521L82.7806 186.091L80.5522 202.523L76.7679 201.021L73.088 201.279L29.623 194.462L52.2238 175.518Z" fill="#369395"/>
<path d="M112.454 121.684L133.811 153.875L126.035 160.82L116.187 164.864L112.454 121.684Z" fill="#369395"/>
<path d="M116.186 164.863L133.81 153.874L148.22 144.492L150.915 144.389L153.093 141.33L159.417 146.773L158.018 154.289L157.81 159.266L131.011 180.104L116.186 164.863Z" fill="#71CACC"/>
<path d="M87.6802 56.2163C87.6802 57.5115 86.5915 58.4965 85.3992 58.4965C84.1039 58.4965 83.0664 57.5115 83.0664 56.2163C83.0664 54.9195 84.1039 53.9346 85.3992 53.9346C86.5915 53.9346 87.6802 54.9195 87.6802 56.2163Z" fill="#2B2B2B"/>
<path d="M116.113 50.9791C116.113 52.2751 115.128 53.2601 113.831 53.2601C112.639 53.2601 111.551 52.2751 111.551 50.9791C111.551 49.7342 112.639 48.75 113.831 48.75C115.128 48.75 116.113 49.7342 116.113 50.9791Z" fill="#2B2B2B"/>
<path d="M153.096 141.331L159.263 147.758L162.788 155.326L157.813 159.266L148.223 144.493L153.096 141.331Z" fill="#DDDDDC"/>
<path d="M167.455 114.22L172.016 103.542L174.09 114.998L170.202 115.932L167.455 114.22Z" fill="#8F8F8F"/>
<path d="M157.4 147.447L162.791 155.326L167.196 152.528L165.797 138.012L157.4 147.447Z" fill="#8A6651"/>
<path d="M167.454 114.22L174.089 114.998L168.594 163.256L161.908 162.479L162.73 155.32L166.883 149.288L164.934 136.14L167.454 114.22Z" fill="#4F5252"/>
<path d="M164.303 135.172L176.307 138.739L169.703 156.171L162.788 155.326L164.213 140.355L164.303 135.172Z" fill="#C3977A"/>
<path d="M153.097 141.33L165.279 133.14L168.827 145.436L163.661 146.156L162.149 142.294L158.658 149.289L153.097 141.33Z" fill="#DFBCA4"/>
<path d="M76.6605 184.224L82.7776 186.09L82.6221 193.71L80.5485 202.522L73.0835 201.278L76.6605 184.224Z" fill="#DDDDDC"/>
<path d="M82.7773 186.091L91.2654 182.332L99.4698 185.43L98.9356 188.945H92.5492L82.7773 186.091Z" fill="#C3977A"/>
<path d="M82.7775 186.09L98.9357 188.944L100.135 195.542L101.983 199.853L99.1855 203.792L95.8663 208.821L80.5483 202.522L82.7775 186.09Z" fill="#DFBCA4"/>
<path d="M98.9355 188.943L95.8647 208.82L100.661 205.275L105.766 193.115L98.9355 188.943Z" fill="#C3977A"/>
</g>
</g>
<defs>
<clipPath id="clip0_2013_38875">
<rect width="200" height="200" rx="100" fill="white"/>
</clipPath>
</defs>
</svg>
