<svg width="200" height="200" viewBox="0 0 200 200" fill="none" xmlns="http://www.w3.org/2000/svg">
<g clip-path="url(#clip0_2013_39565)">
<rect width="200" height="200" rx="100" fill="#E7D88E"/>
<mask id="mask0_2013_39565" style="mask-type:luminance" maskUnits="userSpaceOnUse" x="-34" y="12" width="288" height="288">
<path d="M254 12H-34V300H254V12Z" fill="white"/>
</mask>
<g mask="url(#mask0_2013_39565)">
<path d="M41.3696 98.87L48.9433 95.1965L58.9319 115.793L51.5555 119.518L41.3696 98.87Z" fill="#4F5252"/>
<path d="M62.9679 92.2927L30.4023 108.087L31.7545 125.983L69.7626 108.261L62.9679 92.2927Z" fill="#858585"/>
<path d="M31.7568 125.983L41.3703 127.39L76.2629 111.945L72.0027 107.2L68.0931 107.312L31.7568 125.983Z" fill="#6E7073"/>
<path d="M73.8876 146.632L58.9303 115.793L51.5532 119.517L66.3132 150.305L73.8876 146.632Z" fill="#4F5252"/>
<path d="M62.9692 92.2914L66.8364 92.1553H72.3652L76.2619 111.944L68.092 107.312L62.9692 92.2914Z" fill="#6E7073"/>
<path d="M82.1908 124.385L116.492 132.421L137.076 189.35L142.049 199.632L85.7973 202.756L72.5752 206.361L71.8545 195.784L82.1908 124.385Z" fill="#E4C728"/>
<path d="M67.7686 133.52L82.193 124.385L91.6754 165.87L83.3954 166.455L73.0699 147.321L67.7686 133.52Z" fill="#BE8F00"/>
<path d="M71.8545 195.784L112.223 168.099L133.864 176.797L142.615 200.223L86.0551 204.17L72.5752 206.361L71.8545 195.784Z" fill="#BE8F00"/>
<g opacity="0.2">
<path d="M109.369 186.983L122.576 195.064L141.217 196.487L138.537 189.312L114.606 174.311L92.9581 183.835L71.8521 195.785L109.369 186.983Z" fill="#2B2B2B"/>
</g>
<path d="M141.993 56.3057L144.19 83.2977L142.287 109.138L121.177 115.44L111.087 126.302L95.2178 126.728L82.1872 124.385L73.697 104.503L66.8361 92.1552L59.9385 77.6767L56.939 54.6122L78.8406 62.489L109.613 59.6515L116.719 49.3008L125.317 57.0487L141.993 56.3057Z" fill="#DFBCA4"/>
<path d="M85.7883 62.6787L89.196 89.5952L83.3871 93.8418L77.1641 90.9725L74.4922 80.1517L80.0211 79.6707L78.8381 63.3886L85.7883 62.6787Z" fill="#C3977A"/>
<path d="M113.419 86.8198L103.64 72.1692L85.7896 62.6782L111.856 57.6382L113.419 86.8198Z" fill="#C3977A"/>
<path d="M127.078 81.4057L131.384 67.2001L139.931 56.5174L121.846 55.4756L127.078 81.4057Z" fill="#C3977A"/>
<path d="M144.19 83.2971L66.8354 92.1546L82.1873 124.384L92.8613 126.864L102.09 128.404L116.488 132.421L119.305 121.953L122.334 116.21L146.614 113.085L144.19 83.2971Z" fill="#C3977A"/>
<path d="M89.1994 89.5955L93.0658 119.63L100.565 122.013L103.295 129.902L100.939 138.569L82.1866 124.385L71.275 101.478L70.7537 97.0395L66.8354 92.1558L77.1667 90.9728L89.1994 89.5955Z" fill="#C3977A"/>
<g opacity="0.15">
<path d="M89.1987 89.5942L93.0651 119.629L100.565 122.012L103.294 129.901L100.938 138.568L82.1866 124.384L71.275 101.476L70.7537 97.0383L66.8354 92.1546L77.1667 90.9716L89.1987 89.5942Z" fill="#2B2B2B"/>
</g>
<path d="M122.332 116.21L89.2456 120.1L100.936 138.567L116.486 132.42L122.332 116.21Z" fill="#8A6651"/>
<path d="M77.1674 90.9722L71.275 101.477L66.8354 92.1551L77.1674 90.9722Z" fill="#8A6651"/>
<path d="M96.6152 97.5168L127.417 101.547L127.101 103.952L96.2998 99.9216L96.6152 97.5168Z" fill="#8A6651"/>
<path d="M113.419 86.8212L121.221 90.9892L127.449 85.2148L120.39 85.2667L113.419 86.8212Z" fill="#8A6651"/>
<path d="M85.7896 62.679L111.085 67.0415L110.382 60.1655L100.585 60.2937L85.7896 62.679Z" fill="#464646"/>
<path d="M125.606 65.9288L124.8 58.0764L131.424 56.3657L139.929 56.5176L125.606 65.9288Z" fill="#464646"/>
<path d="M78.8401 63.3875L80.0238 79.6688L74.4942 80.1498L72.4249 72.3349L59.9372 77.6737L49.3921 55.5359L66.1155 56.1781L78.8401 63.3875Z" fill="#464646"/>
<path d="M64.3965 79.9099L69.2054 77.9868L72.364 87.1927L64.3965 79.9099Z" fill="#8A6651"/>
<path d="M56.4338 36.7131L43.2679 24.4717L26.8691 39.3685L40.7774 39.2648L56.4338 36.7131Z" fill="#9E7700"/>
<path d="M26.8697 39.368L2.73389 61.7715L38.3552 45.92L56.4336 36.7126L26.8697 39.368Z" fill="#BE8F00"/>
<path d="M2.73389 61.7715L49.3899 55.5363L56.4344 36.7126L2.73389 61.7715Z" fill="#755700"/>
<path d="M76.4137 34.1724L65.7656 34.5136L56.4351 36.7125L49.3906 55.5362L66.8161 43.2213L76.4137 34.1724Z" fill="#9E7700"/>
<path d="M107.594 11.9993L83.4855 21.9821L56.4351 36.7125L67.5346 35.3013L76.4136 34.1717L104.292 33.0621L137.807 28.1913L107.594 11.9993Z" fill="#856300"/>
<path d="M64.6344 15.4632L56.4351 36.7125L107.594 11.9993L64.6344 15.4632Z" fill="#BE8F00"/>
<path d="M76.4148 34.1725L152.286 26.781L155.059 54.9589L124.802 58.0765L116.719 49.3004L110.384 60.166L78.8398 63.3887L76.2607 46.6494L76.4148 34.1725Z" fill="#E4C728"/>
<path d="M85.0742 40.1763L112.905 37.405L104.706 52.8793L86.3436 54.6116L85.0742 40.1763Z" fill="#464646"/>
<path d="M146.286 34.1335L118.442 36.7709L129.467 50.3782L147.818 48.5436L146.286 34.1335Z" fill="#464646"/>
<path d="M78.8386 63.3885L49.3906 55.5362L76.4129 34.1724L78.8386 63.3885Z" fill="#CCAC13"/>
<path d="M116.72 49.2993L124.802 58.0754L127.451 85.2136L113.421 86.82L110.483 60.154L116.72 49.2993Z" fill="#E8C9B6"/>
<path d="M134.826 71.0676C134.826 72.9677 133.286 74.5085 131.385 74.5085C129.485 74.5085 127.944 72.9677 127.944 71.0676C127.944 69.1668 129.485 67.6267 131.385 67.6267C133.286 67.6267 134.826 69.1668 134.826 71.0676Z" fill="#2B2B2B"/>
<path d="M94.7186 71.1895L106.313 72.4646L106.035 74.9896L94.4414 73.7152L94.7186 71.1895Z" fill="#2B2B2B"/>
<path d="M59.5901 169.819L47.0894 144.096L67.7627 133.518L83.389 166.453L75.0341 173.786L59.5901 169.819Z" fill="#CCAC13"/>
<path d="M92.2847 185.686L71.8504 195.783L59.5894 169.82L83.3897 166.454L91.5639 175.333L92.2847 185.686Z" fill="#E4C728"/>
<path d="M109.834 161.888L83.3887 166.455L92.2837 185.687L114.604 174.31L115.66 168.098L109.834 161.888Z" fill="#DFBCA4"/>
<path d="M60.4154 184.916L65.1177 187.228L62.4061 196.485L56.9384 200.221L56.9384 192.481L60.4154 184.916Z" fill="#4F5252"/>
<path d="M37.9131 188.406L43.5348 188.64L51.5541 200.222L43.6528 201.008L37.9131 188.406Z" fill="#4F5252"/>
<path d="M62.4067 196.485L80.0227 224.632L78.672 229.516L64.3974 213L57.708 197.982L62.4067 196.485Z" fill="#858585"/>
<path d="M45.1179 199.378L49.8361 196.28L54.555 193.181L47.3493 182.208L60.4151 184.916L57.7085 197.983L78.6718 229.515L73.9536 232.615L69.2347 235.713L48.2707 204.179L35.2035 201.472L37.9115 188.406L45.1179 199.378Z" fill="#6E7073"/>
<path d="M139.076 150.369L145.207 153.335L141.703 161.892L133.861 176.796L133.611 158.974L134.548 152.154L139.076 150.369Z" fill="#CCAC13"/>
<path d="M133.861 176.795L148.423 146.688L160.26 145.178L162.483 155.873L155.987 181.357L133.861 176.795Z" fill="#C3977A"/>
<path d="M109.833 161.887L122.575 195.061L138.536 189.311L125.782 155.605L109.833 161.887Z" fill="#4F5252"/>
<path d="M114.605 174.31L133.861 176.797L129.51 162.303L125.781 155.607L119.086 156.002L109.833 161.888L114.605 174.31Z" fill="#C3977A"/>
<path d="M133.862 176.798L139.387 165.374L139.078 150.372L132.368 151.143L125.783 155.608L133.862 176.798Z" fill="#8A6651"/>
<path d="M100.939 138.567L162.962 114.046L168.039 125.237L172.097 137.365L109.834 161.886L100.939 138.567Z" fill="#6E7073"/>
<path d="M162.961 114.047L173.059 119.336L175.47 123.627L176.424 127.749L172.097 137.366L162.961 114.047Z" fill="#4F5252"/>
<path d="M173.059 119.336L181.917 115.792L182.066 120.777L180.354 126.168L176.424 127.75L173.059 119.336Z" fill="#464646"/>
<path d="M181.917 115.792L189.23 112.867L189.585 117.335L187.67 123.222L180.354 126.168L181.917 115.792Z" fill="#6E7073"/>
<path d="M189.23 112.866L196.442 109.982L196.07 114.881L194.884 120.319L187.67 123.222L189.23 112.866Z" fill="#464646"/>
<path d="M196.444 109.981L203.4 107.2L203.298 111.888L201.845 117.517L194.886 120.318L196.444 109.981Z" fill="#6E7073"/>
<path d="M125.489 139.219L110.456 144.946L109.602 142.704L124.634 136.977L125.489 139.219Z" fill="#4F5252"/>
<path d="M127.029 143.259L111.996 148.986L111.142 146.743L126.174 141.017L127.029 143.259Z" fill="#4F5252"/>
<path d="M128.569 147.301L113.535 153.028L112.681 150.786L127.713 145.059L128.569 147.301Z" fill="#4F5252"/>
<path d="M162.485 155.876L172.1 148.423V137.368L163.926 145.421L162.485 155.876Z" fill="#C3977A"/>
<path d="M148.422 146.69L159.796 141.365L172.097 137.368L162.482 155.876L148.422 146.69Z" fill="#8A6651"/>
<path d="M148.422 146.69L151.897 131.88L167.011 124.385L172.097 137.368L148.422 146.69Z" fill="#DFBCA4"/>
</g>
</g>
<defs>
<clipPath id="clip0_2013_39565">
<rect width="200" height="200" rx="100" fill="white"/>
</clipPath>
</defs>
</svg>
