<svg width="16" height="16" viewBox="0 0 16 16" fill="none" xmlns="http://www.w3.org/2000/svg">
<path d="M15.4182 4.45052L11.5637 0.551699C10.8364 -0.1839 9.60012 -0.1839 8.87277 0.551699L1.45452 7.98164C1.16371 8.20229 1.01817 8.49653 0.945485 8.8643L0 14.308C0 14.7494 0.145452 15.2643 0.436335 15.5586C0.727329 15.8528 1.09083 16 1.52738 16H1.74552L7.12725 15.0437C7.49091 14.97 7.78192 14.8229 8.00003 14.5288L15.4182 7.09883C15.7819 6.73098 16 6.2896 16 5.77471C16 5.25971 15.7819 4.8184 15.4182 4.45052ZM6.98187 13.5723L1.52729 14.5288L2.47267 9.08503L7.92728 3.64131L12.4365 8.1287L6.98187 13.5723ZM14.4 6.06888L13.3819 7.17245L8.87277 2.68504L9.89091 1.65515C10.0364 1.50806 10.3273 1.50806 10.5454 1.65515L14.4 5.554C14.4728 5.62761 14.5455 5.77471 14.5455 5.84824C14.5455 5.92176 14.4728 5.99538 14.4 6.06888Z" fill="#0A84FF"/>
</svg>
