<svg width="22" height="23" viewBox="0 0 22 23" fill="none" xmlns="http://www.w3.org/2000/svg">
<g clip-path="url(#clip0_2549_19863)">
<path d="M10.9314 21.9501C6.66715 21.9501 2.06262 19.2757 2.06262 13.4062C2.06262 7.53668 6.66715 4.8623 10.9314 4.8623C13.2998 4.8623 15.4861 5.6409 17.1068 7.0623C18.8634 8.62293 19.7967 10.8229 19.7967 13.4062C19.7967 15.9895 18.8634 18.1757 17.1068 19.7347C15.4861 21.1561 13.2843 21.9501 10.9314 21.9501Z" fill="url(#paint0_radial_2549_19863)"/>
<path d="M18.2518 8.32715C19.0905 9.71934 19.5202 11.3212 19.491 12.9471C19.491 15.5253 18.5577 17.7167 16.8012 19.2756C15.1804 20.697 12.9804 21.4911 10.6257 21.4911C7.86539 21.4911 4.96585 20.3687 3.26257 17.9848C4.90742 20.685 7.99945 21.95 10.9316 21.95C13.2846 21.95 15.4863 21.1559 17.1071 19.7345C18.8637 18.1739 19.7969 15.9893 19.7969 13.4061C19.7969 11.4587 19.2659 9.72793 18.2518 8.32715Z" fill="#EB8F00"/>
<path opacity="0.8" d="M5.80945 15.6421C7.47062 15.6421 8.81726 14.3724 8.81726 12.8062C8.81726 11.2399 7.47062 9.97021 5.80945 9.97021C4.14828 9.97021 2.80164 11.2399 2.80164 12.8062C2.80164 14.3724 4.14828 15.6421 5.80945 15.6421Z" fill="url(#paint1_radial_2549_19863)"/>
<path opacity="0.8" d="M16.1906 15.6421C17.8517 15.6421 19.1984 14.3724 19.1984 12.8062C19.1984 11.2399 17.8517 9.97021 16.1906 9.97021C14.5294 9.97021 13.1827 11.2399 13.1827 12.8062C13.1827 14.3724 14.5294 15.6421 16.1906 15.6421Z" fill="url(#paint2_radial_2549_19863)"/>
<path d="M4.12512 3.9375C4.78959 3.9375 5.32825 3.55274 5.32825 3.07812C5.32825 2.60351 4.78959 2.21875 4.12512 2.21875C3.46065 2.21875 2.922 2.60351 2.922 3.07812C2.922 3.55274 3.46065 3.9375 4.12512 3.9375Z" fill="#FF00A2"/>
<path d="M9.18641 5.53101C9.46832 5.24911 9.39758 4.72131 9.02842 4.35214C8.65925 3.98298 8.13146 3.91224 7.84955 4.19415C7.56764 4.47606 7.63838 5.00386 8.00754 5.37302C8.37671 5.74218 8.9045 5.81292 9.18641 5.53101Z" fill="#FD3B3B"/>
<path d="M12.8725 4.16082C13.503 3.67276 13.8305 3.03978 13.6039 2.74702C13.3773 2.45426 12.6824 2.61259 12.0519 3.10066C11.4213 3.58872 11.0939 4.2217 11.3205 4.51446C11.5471 4.80721 12.2419 4.64889 12.8725 4.16082Z" fill="#00EEFF"/>
<path d="M4.46192 15.5061C4.70031 15.3684 4.64348 14.8237 4.33497 14.2894C4.02647 13.755 3.58312 13.4335 3.34473 13.5711C3.10634 13.7087 3.16318 14.2535 3.47168 14.7878C3.78018 15.3221 4.22353 15.6437 4.46192 15.5061Z" fill="#0048FF"/>
<path d="M16.5861 20.4375C16.9183 20.4375 17.1876 20.0143 17.1876 19.4922C17.1876 18.9701 16.9183 18.5469 16.5861 18.5469C16.2538 18.5469 15.9845 18.9701 15.9845 19.4922C15.9845 20.0143 16.2538 20.4375 16.5861 20.4375Z" fill="#F63BBE"/>
<path d="M20.0287 10.5949C20.5333 10.2397 20.8537 9.826 20.7444 9.67076C20.6351 9.51552 20.1375 9.67758 19.633 10.0327C19.1285 10.3879 18.8081 10.8016 18.9173 10.9569C19.0266 11.1121 19.5242 10.95 20.0287 10.5949Z" fill="#00CC00"/>
<path d="M3.8638 21.3032C4.06221 21.173 3.96977 20.6814 3.65731 20.2052C3.34486 19.729 2.93072 19.4485 2.73231 19.5787C2.53389 19.7089 2.62634 20.2005 2.93879 20.6767C3.25124 21.1529 3.66538 21.4334 3.8638 21.3032Z" fill="#0048FF"/>
<path d="M2.60856 17.9449C3.17668 17.9045 3.62361 17.6799 3.60681 17.4432C3.59001 17.2065 3.11583 17.0473 2.54771 17.0876C1.9796 17.128 1.53266 17.3525 1.54946 17.5893C1.56627 17.826 2.04044 17.9852 2.60856 17.9449Z" fill="#7ACDED"/>
<path d="M4.14565 15.6938C4.8276 15.6484 5.37174 15.4811 5.36103 15.3201C5.35031 15.1591 4.7888 15.0653 4.10685 15.1107C3.4249 15.1561 2.88076 15.3234 2.89147 15.4844C2.90219 15.6454 3.4637 15.7392 4.14565 15.6938Z" fill="#FF82B2"/>
<path d="M20.436 13.9407C20.2899 13.4354 19.941 13.0126 19.4735 12.772C18.6829 12.3423 17.6929 12.6362 17.2649 13.4268C17.2615 13.432 17.2598 13.4371 17.2563 13.4423C16.8988 14.116 17.1515 14.9531 17.8235 15.3157C18.0899 15.4653 18.4027 15.5082 18.7001 15.436C19.006 15.3673 19.2638 15.1662 19.4048 14.886C19.5577 14.5629 19.544 14.1848 19.3704 13.872C19.2294 13.597 18.9562 13.4148 18.6485 13.3907C18.4715 13.3873 18.3271 13.5282 18.3237 13.7053C18.3219 13.8651 18.4388 14.0026 18.5969 14.0267C18.6846 14.0318 18.7637 14.0851 18.8032 14.1642C18.8634 14.2862 18.8754 14.4289 18.8376 14.5595C18.7791 14.6746 18.6726 14.7571 18.5454 14.7829C18.4062 14.819 18.2584 14.8001 18.1329 14.7314C17.961 14.6403 17.8321 14.4856 17.7719 14.3017C17.7204 14.1126 17.7393 13.9115 17.8235 13.7345C17.9438 13.5007 18.1552 13.3254 18.4079 13.2532C18.6605 13.181 18.9287 13.2051 19.1641 13.322C19.4718 13.4904 19.7004 13.7757 19.8001 14.1126C19.9049 14.4512 19.8671 14.8173 19.6969 15.1267C19.3704 15.7454 18.7344 16.1579 17.8063 16.1579C17.2735 16.1579 14.1024 16.072 14.1024 16.072L14.1402 16.8626L17.7719 16.811C18.8548 16.811 19.7485 16.3814 20.2641 15.4189C20.5357 14.9754 20.5976 14.434 20.436 13.9407Z" fill="url(#paint3_linear_2549_19863)"/>
<path d="M12.0314 16.4846C12.1363 16.5963 12.2171 16.7269 12.2721 16.8696L14.24 16.8575C14.24 16.5997 14.2056 16.3419 14.2056 16.0669C13.69 16.0497 12.6278 16.0325 12.2978 16.0205C12.2497 16.1975 12.1552 16.3591 12.0211 16.4846H12.0314Z" fill="#7F0099"/>
<path d="M18.0125 9.91875L18.6141 10.0047L18.7688 9.40312L18.8547 9.05937L15.4 8.57812C16.9641 9.76406 17.9094 9.91875 18.0125 9.91875Z" fill="#FF4545"/>
<path d="M20.7796 1.42822L19.3875 2.21885L19.0437 2.40791L20.4875 2.61416C20.5906 2.18447 20.7796 1.42822 20.7796 1.42822Z" fill="#FF4545"/>
<path d="M17.7031 3.16406L16.2765 3.97188L20.0062 4.50469L20.2468 3.525L17.7031 3.16406Z" fill="#FF4545"/>
<path d="M13.6296 5.46709H13.6124L19.5421 6.32647L19.7656 5.41553L14.9359 4.72803L13.6296 5.46709Z" fill="#FF4545"/>
<path d="M14.1281 7.44365L19.0781 8.14834L19.3187 7.22021L13.3546 6.36084C13.4234 6.5499 13.6296 6.92803 14.1281 7.44365Z" fill="#FF4545"/>
<path d="M14.9359 4.72793L19.7656 5.41543L20.0062 4.50449L16.2765 3.97168L14.9359 4.72793Z" fill="#FF9C9C"/>
<path d="M20.3844 2.99199C20.3844 2.99199 20.4359 2.75137 20.4703 2.63105L19.0265 2.4248L17.6859 3.18105L20.2297 3.54199L20.3844 2.99199Z" fill="#FF9C9C"/>
<path d="M13.114 5.74219L13.3031 6.29219C13.31 6.32313 13.322 6.35234 13.3375 6.37813L19.3015 7.2375L19.525 6.32656L13.5953 5.48438L13.114 5.74219Z" fill="#FF9C9C"/>
<path d="M15.3312 8.52656C15.3484 8.54375 15.3827 8.56094 15.3999 8.57812L18.8546 9.07656L19.0781 8.16562L14.1281 7.46094C14.5045 7.8425 14.9066 8.19828 15.3312 8.52656Z" fill="#FF9C9C"/>
<path d="M20.7625 2.44199C21.2181 2.44199 21.5875 2.07263 21.5875 1.61699C21.5875 1.16136 21.2181 0.791992 20.7625 0.791992C20.3069 0.791992 19.9375 1.16136 19.9375 1.61699C19.9375 2.07263 20.3069 2.44199 20.7625 2.44199Z" fill="#C93737"/>
<path d="M12.3472 16.2831C12.5999 16.0649 12.758 15.7572 12.789 15.4238C12.8371 15.0886 12.7374 14.75 12.514 14.4956C12.1135 13.9697 10.9997 14.1003 10.9997 14.1003C10.7007 14.1124 10.3552 14.255 10.3982 14.5988C10.4549 14.7964 10.6147 14.9477 10.8141 14.9924C11.2541 15.0972 11.8815 14.9924 11.8986 15.4392C11.9193 15.9411 11.1493 15.7349 11.0874 16.266C11.0255 16.797 11.8986 16.7266 11.8986 17.0927C11.8986 17.3728 11.6116 17.421 11.3091 17.4845C11.0496 17.5378 10.5511 17.6186 10.5116 17.916C10.4721 18.2133 10.6422 18.5794 11.3435 18.4728C12.4469 18.301 12.8182 17.7011 12.8182 17.3299C12.825 16.9277 12.6532 16.5444 12.3472 16.2831Z" fill="#422B0D"/>
<path d="M8.56972 11.7457L8.54393 11.713L8.47518 11.6254L8.38753 11.5308C8.35315 11.493 8.3119 11.4518 8.27065 11.4105C8.22768 11.3693 8.183 11.3297 8.13487 11.2936C8.0919 11.261 8.04722 11.2318 7.99909 11.206C7.96643 11.1871 7.93034 11.1733 7.89253 11.1664C7.8805 11.1647 7.87018 11.1647 7.85815 11.1664C7.85815 11.1664 7.85815 11.1664 7.8444 11.1664H7.87534H7.78597C7.76362 11.1664 7.78597 11.1664 7.78597 11.1664H7.798C7.798 11.1664 7.81175 11.1664 7.798 11.1664C7.79112 11.1647 7.78596 11.1647 7.77909 11.1664C7.74128 11.1733 7.70518 11.1871 7.67253 11.206C7.6244 11.2318 7.57972 11.261 7.53675 11.2936C7.49206 11.328 7.44565 11.3693 7.40097 11.4105C7.31675 11.493 7.24284 11.5824 7.19128 11.6357L7.10878 11.7336L7.07097 11.7766C6.83722 12.0361 6.44534 12.0774 6.16175 11.8746C5.98128 11.7491 5.88847 11.5308 5.92284 11.3125C5.92284 11.3125 5.93487 11.2472 5.96581 11.1407C6.01393 10.9757 6.08268 10.8175 6.16862 10.6697C6.30268 10.4257 6.48487 10.2108 6.70315 10.0389C6.85268 9.92551 7.01768 9.83441 7.19472 9.77082C7.24284 9.75191 7.2944 9.73645 7.34425 9.72441C7.40097 9.70723 7.45768 9.6952 7.51612 9.6866L7.61581 9.67285H7.69831H7.78768H7.91487H7.99737C8.05065 9.67285 8.10565 9.6866 8.15893 9.6952C8.26378 9.7141 8.36518 9.7416 8.46487 9.7777C8.6419 9.84129 8.8069 9.93238 8.95643 10.0458C9.17815 10.2143 9.3655 10.4257 9.503 10.668C9.55284 10.7522 9.59753 10.8416 9.63362 10.9327C9.66628 11.0083 9.69034 11.0891 9.71096 11.1493C9.73159 11.2094 9.72987 11.2386 9.73675 11.2679V11.3074C9.78315 11.6391 9.55112 11.9468 9.2194 11.9932C9.21253 11.9949 9.20565 11.9949 9.2005 11.9949C8.96159 12.031 8.71925 11.9364 8.56972 11.7457Z" fill="#422B0D"/>
<path d="M14.9532 11.7457L14.9274 11.713L14.8587 11.6254L14.7813 11.5308C14.747 11.493 14.7057 11.4518 14.6645 11.4105C14.6215 11.3693 14.5768 11.3297 14.5287 11.2936C14.4857 11.261 14.441 11.2318 14.3929 11.206C14.3603 11.1871 14.3242 11.1733 14.2881 11.1664C14.276 11.1647 14.2657 11.1647 14.2537 11.1664C14.2537 11.1664 14.2434 11.1664 14.2399 11.1664H14.2657H14.1763C14.1523 11.1664 14.1763 11.1664 14.1763 11.1664H14.1884C14.1884 11.1664 14.2021 11.1664 14.1884 11.1664H14.1695C14.1334 11.1733 14.0973 11.1871 14.0646 11.206C14.0165 11.2318 13.9718 11.261 13.9288 11.2936C13.8807 11.3297 13.836 11.3693 13.7931 11.4105C13.7071 11.493 13.6349 11.5824 13.5817 11.6357L13.4992 11.7336L13.4613 11.7766C13.2276 12.0361 12.8357 12.0774 12.5521 11.8746C12.3717 11.7491 12.2788 11.5308 12.3132 11.3125C12.3132 11.3125 12.3253 11.2472 12.3579 11.1407C12.4009 10.9739 12.4645 10.8124 12.547 10.6611C12.6845 10.4188 12.8718 10.2074 13.0935 10.0389C13.2431 9.92551 13.4098 9.83441 13.5868 9.77082C13.6349 9.75191 13.6848 9.73645 13.7346 9.72441C13.7913 9.70723 13.8481 9.6952 13.9065 9.6866L14.0062 9.67285H14.0887H14.1781H14.3053H14.3878C14.4428 9.67285 14.496 9.6866 14.5493 9.6952C14.8398 9.74504 15.1131 9.86363 15.3485 10.0389C15.5703 10.2074 15.7559 10.4188 15.8951 10.6611C15.9449 10.7454 15.9879 10.8347 16.024 10.9258C16.0549 10.9963 16.0807 11.0685 16.1013 11.1424C16.1134 11.1819 16.122 11.2214 16.1271 11.261V11.3005C16.1753 11.6305 15.9449 11.9382 15.6149 11.9846C15.6081 11.9863 15.6012 11.9863 15.5926 11.988C15.352 12.0258 15.1079 11.9347 14.9532 11.7457Z" fill="#422B0D"/>
</g>
<defs>
<radialGradient id="paint0_radial_2549_19863" cx="0" cy="0" r="1" gradientUnits="userSpaceOnUse" gradientTransform="translate(10.9297 13.4062) scale(8.70696)">
<stop offset="0.5" stop-color="#FDE030"/>
<stop offset="0.92" stop-color="#F7C02B"/>
<stop offset="1" stop-color="#F4A223"/>
</radialGradient>
<radialGradient id="paint1_radial_2549_19863" cx="0" cy="0" r="1" gradientUnits="userSpaceOnUse" gradientTransform="translate(5.80944 13.411) scale(3.27384 2.93977)">
<stop stop-color="#ED7770"/>
<stop offset="0.9" stop-color="#ED7770" stop-opacity="0"/>
</radialGradient>
<radialGradient id="paint2_radial_2549_19863" cx="0" cy="0" r="1" gradientUnits="userSpaceOnUse" gradientTransform="translate(21.7456 202.039) scale(3.33953)">
<stop stop-color="#ED7770"/>
<stop offset="0.9" stop-color="#ED7770" stop-opacity="0"/>
</radialGradient>
<linearGradient id="paint3_linear_2549_19863" x1="14.1265" y1="14.7186" x2="20.5185" y2="14.7186" gradientUnits="userSpaceOnUse">
<stop stop-color="#004054"/>
<stop offset="0.99" stop-color="#45A4FF"/>
</linearGradient>
<clipPath id="clip0_2549_19863">
<rect width="22" height="22" fill="white" transform="translate(0 0.5)"/>
</clipPath>
</defs>
</svg>
