<svg width="1264" height="334" viewBox="0 0 1264 334" fill="none" xmlns="http://www.w3.org/2000/svg">
<path fill-rule="evenodd" clip-rule="evenodd" d="M253.595 64.5457C252.033 60.5959 247.562 58.6583 243.609 60.2178C239.656 61.7774 237.718 66.2436 239.28 70.1934L243.614 81.1514C225.129 88.261 210.712 104.448 206.688 125.144C206.503 126.095 206.321 127.226 205.958 129.489C205.885 129.942 205.849 130.168 205.824 130.36C205.036 136.553 209.193 142.295 215.327 143.487C215.517 143.524 215.744 143.56 216.197 143.633L315.916 159.655C316.369 159.727 316.595 159.764 316.788 159.788C322.986 160.577 328.733 156.426 329.924 150.299C329.961 150.108 329.998 149.882 330.07 149.429C330.434 147.167 330.616 146.036 330.738 145.074C333.391 124.22 324.828 104.387 309.583 91.8382L317.197 82.7117C319.918 79.4501 319.476 74.6016 316.21 71.8822C312.945 69.1629 308.092 69.6026 305.371 72.8642L296.393 83.627C292.263 81.7594 287.857 80.3402 283.225 79.4398C282.273 79.2547 281.14 79.0727 278.875 78.7089L276.729 78.364C274.464 78.0001 273.331 77.8181 272.369 77.6956C267.75 77.1077 263.181 77.0684 258.73 77.5287L253.595 64.5457ZM254.67 114.117C253.969 118.478 249.863 121.444 245.498 120.743C241.133 120.042 238.162 115.938 238.863 111.577C239.563 107.217 243.67 104.25 248.035 104.952C252.4 105.653 255.37 109.756 254.67 114.117ZM295.845 128.832C300.21 129.533 304.317 126.567 305.017 122.206C305.718 117.845 302.747 113.742 298.382 113.041C294.017 112.339 289.911 115.306 289.21 119.666C288.51 124.027 291.48 128.131 295.845 128.832Z" fill="#3C6EDF"/>
<rect x="87.9121" y="262.98" width="51.6754" height="13.5225" rx="6.76126" transform="rotate(-23.3806 87.9121 262.98)" fill="#3C6EDF"/>
<rect x="99.6877" y="276.83" width="40.5676" height="13.5225" rx="6.76126" transform="rotate(-23.3806 99.6877 276.83)" fill="#3C6EDF"/>
<path fill-rule="evenodd" clip-rule="evenodd" d="M133.276 190.226C143.12 212.995 132.642 239.432 109.873 249.276C87.1048 259.12 60.6673 248.642 50.8236 225.873C40.9799 203.105 51.4576 176.667 74.2262 166.824C96.9947 156.98 123.432 167.458 133.276 190.226ZM112.922 190.33C115.391 188.294 119.043 188.644 121.08 191.114C124.102 194.777 128.897 204.286 125.219 215.069C124.185 218.099 120.892 219.717 117.863 218.684C114.833 217.65 113.215 214.357 114.248 211.328C116.21 205.575 113.549 200.2 112.138 198.489C110.102 196.019 110.452 192.367 112.922 190.33ZM104.888 187.241C107.949 185.918 109.357 182.364 108.034 179.304C106.711 176.244 103.157 174.836 100.097 176.159C97.0367 177.482 95.6284 181.035 96.9515 184.095C98.2746 187.156 101.828 188.564 104.888 187.241Z" fill="#3C6EDF"/>
<rect x="1151.82" y="132.481" width="51.6754" height="13.5225" rx="6.76126" transform="rotate(35.8227 1151.82 132.481)" fill="#3C6EDF"/>
<rect x="1145.95" y="149.687" width="40.5676" height="13.5225" rx="6.76126" transform="rotate(35.8227 1145.95 149.687)" fill="#3C6EDF"/>
<path fill-rule="evenodd" clip-rule="evenodd" d="M1237.54 134.198C1223.02 154.311 1194.95 158.847 1174.84 144.329C1154.72 129.811 1150.19 101.737 1164.71 81.6239C1179.22 61.5109 1207.3 56.9753 1227.41 71.4933C1247.52 86.0113 1252.06 114.085 1237.54 134.198ZM1227.03 116.767C1230.05 117.846 1231.61 121.163 1230.54 124.177C1228.94 128.648 1223.22 137.635 1212.08 139.997C1208.95 140.66 1205.87 138.66 1205.21 135.528C1204.54 132.397 1206.54 129.321 1209.67 128.658C1215.62 127.398 1218.88 122.36 1219.62 120.272C1220.7 117.258 1224.02 115.689 1227.03 116.767ZM1225.57 108.285C1228.28 110.237 1232.05 109.627 1234 106.924C1235.95 104.22 1235.34 100.447 1232.64 98.4955C1229.94 96.5442 1226.16 97.1538 1224.21 99.8572C1222.26 102.561 1222.87 106.334 1225.57 108.285Z" fill="#3C6EDF"/>
<path fill-rule="evenodd" clip-rule="evenodd" d="M703.931 232.701C704.307 231.96 704.495 231.589 704.658 231.278C718.179 205.487 749.983 195.261 776.365 208.222C776.683 208.378 777.058 208.568 777.806 208.948C778.554 209.328 778.928 209.518 779.243 209.682C805.28 223.323 815.803 255.03 802.969 281.17C802.814 281.485 802.626 281.856 802.25 282.597L797.173 292.6C793.608 299.626 791.825 303.138 789.809 305.8C780.303 318.348 763.9 323.622 748.701 319.018C745.477 318.041 741.931 316.242 734.839 312.643L719.48 304.848C712.388 301.249 708.843 299.45 706.151 297.424C693.461 287.875 688.034 271.522 692.549 256.442C693.506 253.243 695.289 249.73 698.854 242.704L703.931 232.701ZM770.511 224.322C752.324 215.092 732.253 216.916 721.855 227.741L745.278 239.628L721.855 227.742C719.258 242.525 729.636 259.802 747.822 269.032C766.009 278.261 786.08 276.437 796.479 265.612L773.212 253.805L796.478 265.612C799.076 250.828 788.698 233.551 770.511 224.322ZM773.212 253.805C769.116 261.208 759.906 264.115 752.359 260.285C744.812 256.455 741.721 247.305 745.278 239.628C745.359 239.453 745.443 239.279 745.531 239.106C749.479 231.326 758.937 228.195 766.656 232.113C774.375 236.03 777.432 245.512 773.484 253.292C773.396 253.465 773.306 253.636 773.212 253.805Z" fill="#3C6EDF"/>
<path d="M940.024 171.507C935.88 167.717 933.774 163.379 932.76 159.428C931.084 152.902 926.669 146.132 920.282 148.278C914.889 150.091 911.152 153.285 909.494 154.917C902.656 160.917 901.346 171.458 898.219 174.809C895.091 178.161 886.47 179.801 881.446 185.377C874.828 192.681 872.71 203.146 875.701 212.888C881.709 232.514 906.164 244.913 923.513 247.444C931.995 248.691 941.766 249.841 946.773 244.069C951.58 238.491 951.189 234.455 957.255 227.955C963.322 221.455 967.523 221.836 972.736 216.037C978.028 210.152 976.3 201.669 974.43 193.294C973.801 190.475 972.997 187.876 972.169 185.598C970.129 179.986 963.713 178.215 957.742 178.35C952.575 178.468 946.108 177.092 940.024 171.507ZM898.48 152.746C898.11 149.919 897.281 147.027 895.989 144.327C893.265 138.639 885.712 139.563 884.333 145.716C883.701 148.536 883.491 151.472 883.799 154.182C884.125 157.14 885.039 160.48 886.602 163.555C889.166 168.599 896.041 168.152 897.669 162.734C898.648 159.475 898.896 155.96 898.48 152.746Z" fill="#3C6EDF"/>
<path fill-rule="evenodd" clip-rule="evenodd" d="M535.223 147.937C534.692 145.227 532.064 143.462 529.354 143.994C526.644 144.526 524.879 147.154 525.411 149.863L526.566 155.751L514.791 158.062C504.494 160.084 497.785 170.069 499.807 180.366L501.926 191.16L496.038 192.316C493.328 192.848 491.563 195.476 492.095 198.185C492.626 200.895 495.254 202.661 497.964 202.129L503.852 200.973L506.825 216.119L500.937 217.275C498.227 217.806 496.462 220.434 496.994 223.144C497.526 225.854 500.154 227.619 502.863 227.087L508.751 225.932L511.171 238.261C513.192 248.558 523.178 255.267 533.475 253.246L545.25 250.934L546.406 256.822C546.938 259.532 549.566 261.297 552.276 260.765C554.985 260.233 556.751 257.606 556.219 254.896L555.063 249.008L570.209 246.035L571.365 251.923C571.897 254.633 574.524 256.398 577.234 255.866C579.944 255.334 581.709 252.706 581.177 249.997L580.022 244.109L591.37 241.881C601.667 239.86 608.376 229.874 606.355 219.577L603.935 207.248L609.822 206.092C612.532 205.56 614.297 202.932 613.765 200.222C613.233 197.513 610.606 195.747 607.896 196.279L602.008 197.435L599.035 182.289L604.923 181.133C607.633 180.601 609.398 177.973 608.866 175.264C608.334 172.554 605.706 170.789 602.997 171.32L597.109 172.476L594.99 161.682C592.969 151.385 582.983 144.676 572.686 146.698L561.338 148.925L560.182 143.038C559.65 140.328 557.022 138.563 554.312 139.095C551.603 139.626 549.837 142.254 550.369 144.964L551.525 150.852L536.379 153.825L535.223 147.937ZM519.396 186.712C518.226 180.75 522.11 174.969 528.071 173.799L566.341 166.287C572.302 165.117 578.083 169.001 579.253 174.962L586.766 213.232C587.936 219.193 584.052 224.974 578.09 226.144L539.821 233.657C533.859 234.827 528.078 230.943 526.908 224.981L519.396 186.712ZM533.915 191.933C536.265 192.835 538.9 191.66 539.802 189.31C540.703 186.96 539.529 184.324 537.179 183.423C534.829 182.522 532.193 183.696 531.292 186.046C530.39 188.396 531.565 191.032 533.915 191.933Z" fill="#3C6EDF"/>
<path fill-rule="evenodd" clip-rule="evenodd" d="M323.143 325.5C320.823 324.557 318.483 323.348 315.966 321.938L315.348 321.558C297.909 311.154 292.439 288.073 292.103 286.651L292.094 286.615C285.205 251.632 305.627 227.366 329.038 218.861C352.338 210.312 383.424 215.227 400.151 245.328C410.754 264.476 408.568 284.046 408.411 285.45L408.405 285.501L408.315 285.722C405.515 299.258 399.864 307.774 391.363 311.27C378.446 316.445 364.258 307.33 362.339 306.034C359.601 304.535 357.143 304.566 354.833 305.815C352.322 307.24 350.868 309.867 350.747 311.749C350.407 317.017 349.191 320.642 347.008 322.844C340.975 328.502 332.975 329.497 323.143 325.5ZM322.79 240.659C322.436 241.53 322.257 242.461 322.263 243.401C322.269 244.34 322.46 245.27 322.826 246.135C323.191 247.001 323.723 247.786 324.392 248.446C325.061 249.106 325.853 249.628 326.723 249.982C327.594 250.336 328.525 250.515 329.465 250.509C330.405 250.503 331.334 250.312 332.199 249.946C333.065 249.581 333.851 249.049 334.511 248.38C335.171 247.711 335.692 246.919 336.046 246.049C336.4 245.178 336.579 244.247 336.573 243.307C336.567 242.367 336.376 241.438 336.011 240.573C335.645 239.707 335.113 238.922 334.444 238.261C333.776 237.601 332.983 237.08 332.113 236.726C331.243 236.372 330.311 236.193 329.371 236.199C328.432 236.205 327.503 236.396 326.637 236.762C325.771 237.127 324.986 237.659 324.326 238.328C323.666 238.996 323.144 239.789 322.79 240.659ZM347.034 242.371C346.296 240.623 346.283 238.653 346.998 236.895C347.713 235.137 349.097 233.735 350.845 232.997C352.593 232.26 354.563 232.247 356.321 232.961C358.079 233.676 359.481 235.06 360.219 236.808C360.956 238.557 360.969 240.526 360.255 242.284C359.54 244.042 358.156 245.444 356.408 246.182C354.659 246.92 352.689 246.933 350.932 246.218C349.174 245.503 347.772 244.119 347.034 242.371ZM369.868 249.808C369.071 251.769 369.085 253.967 369.908 255.918C370.731 257.869 372.295 259.412 374.257 260.21C376.218 261.007 378.416 260.993 380.367 260.17C382.317 259.347 383.861 257.783 384.659 255.821C385.456 253.86 385.442 251.662 384.619 249.712C383.796 247.761 382.231 246.217 380.27 245.42C378.309 244.622 376.111 244.637 374.16 245.46C372.209 246.283 370.666 247.847 369.868 249.808ZM371.476 284.277C370.523 282.018 370.507 279.474 371.43 277.203C372.353 274.932 374.141 273.12 376.4 272.168C378.658 271.215 381.203 271.198 383.474 272.121C385.745 273.045 387.556 274.832 388.509 277.091C389.462 279.35 389.479 281.894 388.556 284.165C387.632 286.436 385.845 288.248 383.586 289.201C381.327 290.153 378.782 290.17 376.511 289.247C374.24 288.323 372.429 286.536 371.476 284.277Z" fill="#3C6EDF"/>
<path fill-rule="evenodd" clip-rule="evenodd" d="M725.143 111.5C722.823 110.557 720.483 109.348 717.966 107.938L717.348 107.558C699.909 97.1542 694.439 74.073 694.103 72.6512L694.094 72.6153C687.205 37.6318 707.627 13.3656 731.038 4.86134C754.338 -3.68784 785.424 1.22674 802.151 31.3275C812.754 50.4756 810.568 70.0458 810.411 71.4495L810.405 71.5006L810.315 71.7216C807.515 85.2584 801.864 93.7744 793.363 97.2696C780.446 102.445 766.258 93.3297 764.339 92.0345C761.601 90.5353 759.143 90.5657 756.833 91.8149C754.322 93.2402 752.868 95.8672 752.747 97.7488C752.407 103.017 751.191 106.642 749.008 108.844C742.975 114.502 734.975 115.497 725.143 111.5ZM724.79 26.6591C724.436 27.5295 724.257 28.4611 724.263 29.4007C724.269 30.3404 724.46 31.2695 724.826 32.1353C725.191 33.001 725.723 33.7863 726.392 34.4464C727.061 35.1064 727.853 35.6283 728.723 35.9822C729.594 36.3361 730.525 36.515 731.465 36.5089C732.405 36.5027 733.334 36.3116 734.199 35.9463C735.065 35.5811 735.851 35.0489 736.511 34.3801C737.171 33.7114 737.692 32.9192 738.046 32.0487C738.4 31.1783 738.579 30.2467 738.573 29.3071C738.567 28.3675 738.376 27.4383 738.011 26.5726C737.645 25.7068 737.113 24.9215 736.444 24.2615C735.776 23.6014 734.983 23.0796 734.113 22.7257C733.243 22.3718 732.311 22.1928 731.371 22.199C730.432 22.2051 729.503 22.3963 728.637 22.7615C727.771 23.1268 726.986 23.659 726.326 24.3277C725.666 24.9965 725.144 25.7887 724.79 26.6591ZM749.034 28.3709C748.296 26.6225 748.283 24.6527 748.998 22.8947C749.713 21.1368 751.097 19.7348 752.845 18.9972C754.593 18.2595 756.563 18.2466 758.321 18.9613C760.079 19.676 761.481 21.0598 762.219 22.8082C762.956 24.5566 762.969 26.5265 762.255 28.2844C761.54 30.0423 760.156 31.4443 758.408 32.182C756.659 32.9196 754.689 32.9325 752.932 32.2178C751.174 31.5031 749.772 30.1193 749.034 28.3709ZM771.868 35.8081C771.071 37.7694 771.085 39.9672 771.908 41.9179C772.731 43.8686 774.295 45.4125 776.257 46.2099C778.218 47.0073 780.416 46.9929 782.367 46.1699C784.317 45.3469 785.861 43.7827 786.659 41.8214C787.456 39.86 787.442 37.6623 786.619 35.7116C785.796 33.7609 784.231 32.217 782.27 31.4196C780.309 30.6222 778.111 30.6366 776.16 31.4596C774.209 32.2826 772.666 33.8468 771.868 35.8081ZM773.476 70.2771C772.523 68.0184 772.507 65.4737 773.43 63.2027C774.353 60.9317 776.141 59.1205 778.4 58.1675C780.658 57.2146 783.203 57.1979 785.474 58.1212C787.745 59.0445 789.556 60.8322 790.509 63.0909C791.462 65.3496 791.479 67.8944 790.556 70.1654C789.632 72.4364 787.845 74.2475 785.586 75.2005C783.327 76.1535 780.782 76.1701 778.511 75.2468C776.24 74.3235 774.429 72.5359 773.476 70.2771Z" fill="#3C6EDF"/>
<path fill-rule="evenodd" clip-rule="evenodd" d="M506.072 31.6697L507.375 34.2912L532.89 17.5057L532.22 15.5944C530.51 10.7153 528.264 5.85792 525.252 1.27934C522.24 -3.29924 518.668 -7.28456 514.865 -10.7866L513.375 -12.1585L487.86 4.62695L489.751 6.86157C492.976 10.6721 496.031 14.5119 498.781 18.6934C501.532 22.8748 503.849 27.1995 506.072 31.6697ZM517.776 73.3132L518.352 79.9387L522.411 74.6764C531.714 62.6154 536.363 47.6027 535.507 32.3846L535.254 27.8864L511.151 43.7428L511.806 45.6467C514.925 54.7076 516.967 64.0129 517.776 73.3132ZM465.574 61.791L498.93 39.8469L497.952 37.8045C495.753 33.2105 493.387 28.6182 490.46 24.1679C487.533 19.719 484.211 15.666 480.9 11.8851L479.411 10.1853L446.063 32.124L446.989 34.1475C449.111 38.7805 451.585 43.3915 454.501 47.8243C457.418 52.2593 460.631 56.2917 464.083 60.1319L465.574 61.791ZM504.671 88.8065L508.147 90.2121L508.233 86.4637C508.489 75.1705 507.16 63.6741 503.7 52.6055L502.673 49.32L472.763 68.9972L475.373 71.2409C484.168 78.7996 494.199 84.5716 504.671 88.8065ZM409.731 44.0898L433.581 28.3996L432.983 26.5255C430.033 17.2891 427.929 8.01046 427.121 -1.27936L426.548 -7.87193L422.491 -2.64947C413.148 9.37986 408.512 24.4092 409.455 39.6223L409.731 44.0898ZM464.057 74.7246L440.19 90.4261L444.209 92.442C457.818 99.2672 473.426 100.957 488.169 97.2026L494.615 95.5609L488.754 92.4059C480.543 87.9861 472.855 82.3817 465.541 76.0162L464.057 74.7246ZM430.096 82.7789L431.586 84.1508L457.101 67.3653L455.209 65.1307C451.984 61.3201 448.93 57.4803 446.179 53.2989C443.428 49.1174 441.111 44.7927 438.889 40.3225L437.585 37.7011L412.07 54.4866L412.74 56.3979C414.451 61.2769 416.697 66.1343 419.709 70.7129C422.721 75.2915 426.292 79.2768 430.096 82.7789ZM440.247 -16.8776L436.772 -18.2832L436.686 -14.5348C436.429 -3.23606 437.802 8.32283 441.26 19.3868L442.287 22.6723L472.198 2.99504L469.587 0.751391C460.796 -6.80422 450.725 -12.6406 440.247 -16.8776ZM480.67 -2.57861L504.77 -18.4334L500.752 -20.4495C487.208 -27.2452 471.596 -28.992 456.722 -25.1672L450.334 -23.5247L456.135 -20.3762C464.458 -15.8594 472.197 -10.3406 479.18 -3.94316L480.67 -2.57861ZM529.733 16.4771L529.774 16.4505C528.12 11.7319 525.961 7.07299 523.087 2.70361C520.212 -1.66576 516.789 -5.49233 513.11 -8.87923L513.07 -8.85264C516.743 -5.46171 520.163 -1.63282 523.037 2.73611C525.911 7.10508 528.074 11.7614 529.733 16.4771ZM520.358 73.0908C520.247 71.8118 520.113 70.5329 519.957 69.2549C519.23 63.316 518.022 57.3952 516.372 51.5542C518.385 58.6348 519.752 65.8318 520.401 73.0358C520.387 73.0542 520.373 73.0725 520.358 73.0908ZM533.012 35.4129C533.004 34.4525 532.973 33.4906 532.919 32.5278L514.257 44.8044C514.265 44.8278 514.273 44.8512 514.281 44.8745L532.915 32.616C532.969 33.5493 533.001 34.4819 533.012 35.4129ZM488.295 25.5922C485.462 21.2862 482.228 17.3347 478.951 13.5932L478.94 13.6001C482.215 17.3437 485.446 21.2967 488.279 25.6025C491.112 29.9084 493.421 34.3777 495.604 38.9299L495.614 38.9229C493.434 34.369 491.128 29.8983 488.295 25.5922ZM466.019 58.3927L466.01 58.399C462.628 54.6358 459.499 50.7061 456.666 46.4C453.833 42.094 451.421 37.6016 449.346 33.0693L449.355 33.0631C451.434 37.5934 453.848 42.0843 456.681 46.39C459.513 50.696 462.641 54.6274 466.019 58.3927ZM501.248 53.4485C501.241 53.4248 501.234 53.401 501.226 53.3773L477.062 69.2744C477.08 69.2907 477.099 69.3069 477.118 69.3231L501.248 53.4485ZM411.934 36.6513C411.95 37.5585 411.987 38.4672 412.045 39.3765L430.491 27.2415C430.498 27.2652 430.506 27.2889 430.513 27.3127L412.042 39.4644C411.984 38.5257 411.948 37.5878 411.934 36.6513ZM428.758 21.4477C427.032 15.254 425.714 9.0212 424.941 2.76231C424.784 1.49026 424.65 0.217125 424.539 -1.05697C424.524 -1.03851 424.51 -1.02005 424.496 -1.00158C425.174 6.52178 426.674 14.0124 428.758 21.4477ZM447.844 91.296C447.012 90.9247 446.187 90.5339 445.369 90.1239L463.841 77.9721C463.859 77.9884 463.878 78.0047 463.897 78.021L445.451 90.156C446.242 90.5541 447.04 90.9341 447.844 91.296ZM468.557 81.9265C473.549 85.9518 478.738 89.6196 484.165 92.7997C485.276 93.4504 486.397 94.0806 487.527 94.6894C487.505 94.6951 487.482 94.7009 487.459 94.7067C480.828 91.1107 474.552 86.7755 468.557 81.9265ZM421.874 69.2886C424.748 73.658 428.172 77.4846 431.85 80.8715L431.89 80.8452C428.217 77.4543 424.797 73.6254 421.923 69.2564C419.048 64.8875 416.886 60.2312 415.226 55.5156L415.187 55.5418C416.841 60.2604 418.999 64.9192 421.874 69.2886ZM443.712 18.5436C443.719 18.5674 443.727 18.5912 443.734 18.615L467.899 2.71782C467.88 2.70156 467.861 2.68531 467.842 2.66907L443.712 18.5436ZM496.962 -19.3731C497.847 -18.981 498.723 -18.5671 499.591 -18.1316L480.93 -5.855C480.912 -5.87171 480.894 -5.88841 480.875 -5.90511L499.509 -18.1635C498.668 -18.587 497.819 -18.9903 496.962 -19.3731ZM475.607 -10.4487C469.94 -15.0704 463.858 -19.1631 457.436 -22.6725C457.414 -22.6669 457.392 -22.6612 457.37 -22.6555C458.495 -22.0446 459.611 -21.4158 460.715 -20.7693C465.936 -17.713 470.914 -14.2625 475.607 -10.4487Z" fill="#3C6EDF"/>
<path d="M1150.56 232.549C1161.09 238.978 1168.69 249.285 1171.7 261.247C1174.71 273.209 1172.9 285.868 1166.65 296.496C1160.41 307.124 1150.23 314.87 1138.32 318.062C1126.4 321.255 1113.71 319.64 1102.96 313.565L1101.57 312.747L1067.17 291.737C1056.64 285.308 1049.05 275.001 1046.03 263.039C1043.02 251.077 1044.84 238.418 1051.08 227.79C1057.32 217.162 1067.5 209.417 1079.41 206.224C1091.33 203.031 1104.03 204.646 1114.77 210.722L1116.16 211.54L1150.56 232.549ZM1122.89 274.643C1120.99 273.482 1118.7 273.122 1116.54 273.643C1114.37 274.165 1112.51 275.525 1111.35 277.424C1110.19 279.323 1109.83 281.606 1110.35 283.77C1110.88 285.934 1112.24 287.803 1114.14 288.964C1116.05 290.126 1118.33 290.486 1120.49 289.964C1122.66 289.443 1124.53 288.083 1125.69 286.184C1126.85 284.285 1127.2 282.002 1126.68 279.838C1126.16 277.673 1124.79 275.805 1122.89 274.643ZM1096.42 230.942C1095.38 230.307 1094.14 230.07 1092.94 230.273C1091.74 230.477 1090.66 231.109 1089.89 232.051L1089.49 232.611L1084.25 241.192L1075.64 235.936C1074.55 235.254 1073.24 235.015 1071.98 235.267C1070.72 235.518 1069.61 236.243 1068.86 237.291C1068.12 238.339 1067.81 239.632 1067.99 240.904C1068.17 242.177 1068.83 243.333 1069.83 244.137L1070.39 244.534L1079 249.784L1073.74 258.388C1073.08 259.477 1072.85 260.778 1073.11 262.028C1073.37 263.278 1074.09 264.384 1075.14 265.122C1076.18 265.861 1077.46 266.177 1078.73 266.006C1079.99 265.836 1081.15 265.192 1081.95 264.204L1082.35 263.644L1087.61 255.04L1096.21 260.296C1097.3 260.948 1098.59 261.165 1099.84 260.904C1101.08 260.644 1102.17 259.924 1102.91 258.89C1103.64 257.856 1103.96 256.583 1103.79 255.326C1103.62 254.068 1102.99 252.919 1102.02 252.107L1101.45 251.709L1092.85 246.448L1098.1 237.866C1098.44 237.302 1098.67 236.676 1098.77 236.022C1098.87 235.369 1098.85 234.702 1098.69 234.059C1098.53 233.416 1098.25 232.81 1097.86 232.275C1097.47 231.74 1096.98 231.287 1096.42 230.942ZM1146.61 261.602C1144.71 260.44 1142.42 260.08 1140.26 260.602C1138.09 261.123 1136.23 262.483 1135.07 264.382C1133.91 266.281 1133.55 268.564 1134.07 270.728C1134.6 272.893 1135.96 274.761 1137.86 275.923C1139.76 277.084 1142.05 277.444 1144.21 276.923C1146.38 276.401 1148.25 275.041 1149.41 273.142C1150.57 271.243 1150.92 268.96 1150.4 266.796C1149.88 264.632 1148.51 262.763 1146.61 261.602Z" fill="#3C6EDF"/>
<path d="M75.5567 5.54919C86.0937 11.9784 93.686 22.2849 96.6967 34.247C99.7075 46.209 97.8957 58.8685 91.6518 69.4964C85.408 80.1244 75.2322 87.8696 63.3181 91.0625C51.404 94.2553 38.7057 92.64 27.9607 86.5649L26.57 85.7468L-7.8255 64.7372C-18.3625 58.308 -25.9547 48.0015 -28.9655 36.0394C-31.9763 24.0774 -30.1644 11.4179 -23.9206 0.789953C-17.6768 -9.83801 -7.50099 -17.5832 4.41312 -20.7761C16.3272 -23.9689 29.0255 -22.3536 39.7705 -16.2785L41.1612 -15.4604L75.5567 5.54919ZM47.8912 47.6432C45.9895 46.4816 43.7048 46.122 41.5398 46.6434C39.3748 47.1649 37.5069 48.5247 36.3469 50.4238C35.1869 52.3229 34.8298 54.6057 35.3543 56.7699C35.8788 58.9342 37.2418 60.8026 39.1436 61.9643C41.0453 63.1259 43.33 63.4855 45.4949 62.9641C47.6599 62.4426 49.5279 61.0828 50.6879 59.1837C51.8479 57.2846 52.2049 55.0018 51.6805 52.8376C51.156 50.6733 49.7929 48.8049 47.8912 47.6432ZM21.4172 3.94223C20.3775 3.30723 19.1433 3.06965 17.943 3.27345C16.7426 3.47724 15.6573 4.10861 14.8876 5.05081L14.4906 5.61058L9.24898 14.1917L0.644368 8.93582C-0.446634 8.25409 -1.75663 8.01466 -3.01737 8.26654C-4.27811 8.51843 -5.3942 9.24257 -6.13709 10.2907C-6.87999 11.3388 -7.19349 12.6316 -7.01338 13.9043C-6.83328 15.177 -6.17321 16.3334 -5.16833 17.1367L-4.60771 17.5342L4.0004 22.7843L-1.25518 31.3884C-1.91975 32.4771 -2.14569 33.7779 -1.88737 35.0278C-1.62904 36.2778 -0.905703 37.3838 0.136497 38.1222C1.17869 38.8607 2.46204 39.1766 3.72722 39.0062C4.99241 38.8358 6.14509 38.1917 6.95237 37.2041L7.34943 36.6443L12.605 28.0402L21.2096 33.2962C22.299 33.9477 23.5938 34.1648 24.8353 33.9042C26.0768 33.6436 27.1736 32.9244 27.9068 31.8903C28.6399 30.8562 28.9553 29.5832 28.7901 28.3257C28.6248 27.0682 27.991 25.9187 27.0153 25.1068L26.4547 24.7093L17.8536 19.4476L23.0952 10.8665C23.4398 10.3023 23.6698 9.67564 23.772 9.02232C23.8741 8.369 23.8465 7.70181 23.6907 7.05883C23.5349 6.41586 23.2539 5.80969 22.8638 5.27494C22.4737 4.74019 21.9821 4.28734 21.4172 3.94223ZM71.6107 34.6017C69.709 33.4401 67.4243 33.0804 65.2593 33.6019C63.0943 34.1234 61.2264 35.4832 60.0664 37.3823C58.9064 39.2814 58.5493 41.5641 59.0738 43.7284C59.5983 45.8926 60.9613 47.7611 62.8631 48.9227C64.7648 50.0843 67.0495 50.444 69.2144 49.9225C71.3794 49.4011 73.2474 48.0412 74.4074 46.1421C75.5674 44.2431 75.9244 41.9603 75.4 39.796C74.8755 37.6318 73.5124 35.7633 71.6107 34.6017Z" fill="#3C6EDF"/>
<path fill-rule="evenodd" clip-rule="evenodd" d="M1044.64 -7.06298C1045.17 -9.77269 1047.8 -11.5382 1050.51 -11.0063C1053.22 -10.4743 1054.98 -7.8465 1054.45 -5.13679L1053.29 0.750849L1065.07 3.06228C1075.37 5.08352 1082.07 15.0693 1080.05 25.3663L1077.93 36.1602L1083.82 37.316C1086.53 37.8479 1088.3 40.4757 1087.77 43.1854C1087.23 45.8951 1084.61 47.6606 1081.9 47.1287L1076.01 45.973L1073.04 61.1189L1078.92 62.2746C1081.63 62.8065 1083.4 65.4343 1082.87 68.1441C1082.33 70.8538 1079.71 72.6192 1077 72.0873L1071.11 70.9316L1068.69 83.2614C1066.67 93.5583 1056.68 100.267 1046.38 98.2458L1034.61 95.9344L1033.45 101.822C1032.92 104.532 1030.29 106.297 1027.58 105.765C1024.87 105.233 1023.11 102.606 1023.64 99.8959L1024.8 94.0082L1009.65 91.0351L1008.5 96.9228C1007.96 99.6325 1005.34 101.398 1002.63 100.866C999.916 100.334 998.151 97.7063 998.682 94.9966L999.838 89.1089L988.49 86.8813C978.193 84.86 971.484 74.8742 973.505 64.5773L975.925 52.2475L970.038 51.0918C967.328 50.5599 965.563 47.932 966.094 45.2223C966.626 42.5126 969.254 40.7472 971.964 41.2791L977.852 42.4348L980.825 27.2889L974.937 26.1332C972.227 25.6013 970.462 22.9734 970.994 20.2637C971.526 17.554 974.153 15.7885 976.863 16.3204L982.751 17.4762L984.87 6.68216C986.891 -3.61475 996.877 -10.3235 1007.17 -8.30227L1018.52 -6.07458L1019.68 -11.9622C1020.21 -14.6719 1022.84 -16.4373 1025.55 -15.9054C1028.26 -15.3735 1030.02 -12.7457 1029.49 -10.036L1028.33 -4.14839L1043.48 -1.17535L1044.64 -7.06298ZM1060.46 31.7117C1061.63 25.7504 1057.75 19.9691 1051.79 18.7989L1013.52 11.2867C1007.56 10.1166 1001.78 14.0006 1000.61 19.9619L993.094 58.2316C991.924 64.193 995.808 69.9742 1001.77 71.1444L1040.04 78.6566C1046 79.8268 1051.78 75.9428 1052.95 69.9814L1060.46 31.7117ZM1045.95 36.9331C1043.6 37.8345 1040.96 36.6602 1040.06 34.3102C1039.16 31.9603 1040.33 29.3244 1042.68 28.423C1045.03 27.5215 1047.67 28.6958 1048.57 31.0458C1049.47 33.3958 1048.3 36.0316 1045.95 36.9331Z" fill="#3C6EDF"/>
</svg>
