<svg width="73" height="52" viewBox="0 0 73 52" fill="none" xmlns="http://www.w3.org/2000/svg">
<path d="M35.8122 26.5307C36.7055 26.9762 37.4963 27.5319 38.0106 28.0755C38.525 28.619 38.7207 29.106 38.5548 29.4293C38.4737 29.5902 38.3059 29.7061 38.0611 29.7702C37.8163 29.8343 37.4992 29.8454 37.1281 29.8029C36.7569 29.7604 36.339 29.6651 35.8982 29.5225C35.4574 29.3798 35.0025 29.1927 34.5594 28.9717C33.6661 28.5263 32.8753 27.9706 32.361 27.427C31.8466 26.8834 31.6509 26.3965 31.8168 26.0732C31.9827 25.7499 32.4967 25.6169 33.2457 25.7033C33.9946 25.7897 34.9172 26.0885 35.8105 26.534L35.8122 26.5307ZM30.6293 28.1222C30.5086 28.7247 30.0548 29.2296 29.3674 29.526C28.6801 29.8224 27.8155 29.886 26.9635 29.7028C26.1117 29.5198 25.3422 29.105 24.824 28.5496C24.3058 27.9942 24.0814 27.3436 24.2 26.7407C24.3202 26.1384 24.7734 25.6335 25.4601 25.3368C26.1467 25.0402 27.0108 24.976 27.8624 25.1585C28.7143 25.3415 29.4838 25.7562 30.002 26.3116C30.5202 26.867 30.7446 27.5177 30.626 28.1205L30.6293 28.1222ZM22.3106 26.321C22.8256 26.9811 22.8868 27.913 22.4806 28.9121C22.0744 29.9111 21.2341 30.8957 20.1441 31.6497C19.6037 32.0236 19.0182 32.3295 18.4208 32.5498C17.8235 32.7702 17.2261 32.9008 16.6628 32.9341C16.0994 32.9675 15.5812 32.9029 15.1377 32.7441C14.6942 32.5854 14.3341 32.3355 14.0779 32.0087C13.5618 31.3485 13.5003 30.416 13.9069 29.4161C14.3135 28.4163 15.1548 27.4309 16.246 26.6768C16.7865 26.3032 17.3721 25.9976 17.9695 25.7775C18.5668 25.5574 19.1641 25.4271 19.7272 25.3941C20.2904 25.3611 20.8084 25.4259 21.2516 25.585C21.6949 25.744 22.0547 25.9941 22.3106 26.321ZM8.93814 34.7199C7.45595 36.2508 5.80917 37.5087 4.35963 38.2172C2.91008 38.9257 1.77634 39.0268 1.2075 38.4984C0.925373 38.2366 0.790753 37.8277 0.811332 37.2951C0.83191 36.7626 1.00728 36.1167 1.32743 35.3946C1.64758 34.6724 2.10621 33.888 2.67714 33.0863C3.24806 32.2847 3.92007 31.4813 4.65477 30.7223C5.38927 29.9636 6.17198 29.264 6.9582 28.6636C7.74441 28.0631 8.51872 27.5735 9.23691 27.2228C9.9551 26.8721 10.6031 26.667 11.1439 26.6194C11.6847 26.5718 12.1077 26.6826 12.3887 26.9453C12.6708 27.2072 12.8054 27.6161 12.7849 28.1486C12.7643 28.6812 12.5889 29.327 12.2688 30.0492C11.9486 30.7714 11.49 31.5557 10.9191 32.3574C10.3481 33.1591 9.67612 33.9624 8.94143 34.7215L8.93814 34.7199ZM32.1002 23.1855C32.2647 23.3577 32.4138 23.5413 32.5389 23.7258C32.664 23.9103 32.7626 24.092 32.8292 24.2605C32.8957 24.4291 32.9289 24.5812 32.9267 24.7081C32.9245 24.835 32.8871 24.9342 32.8165 25.0001C32.7463 25.0663 32.6443 25.0979 32.5164 25.0931C32.3884 25.0882 32.2371 25.047 32.071 24.9717C31.9049 24.8965 31.7273 24.7887 31.5484 24.6546C31.3695 24.5204 31.1929 24.3626 31.0286 24.1901C30.6975 23.8434 30.436 23.4581 30.3014 23.1185C30.1669 22.779 30.1701 22.5129 30.3106 22.3788C30.3808 22.3125 30.4828 22.2809 30.6107 22.2858C30.7387 22.2906 30.89 22.3319 31.0561 22.4071C31.2222 22.4824 31.3998 22.5902 31.5787 22.7243C31.7576 22.8584 31.9342 23.0163 32.0985 23.1888L32.1002 23.1855ZM28.9283 21.918C29.1535 22.0991 29.3574 22.3019 29.5284 22.5147C29.6993 22.7275 29.8339 22.9462 29.9245 23.1582C30.015 23.3702 30.0597 23.5714 30.056 23.7502C30.0523 23.929 30.0003 24.082 29.903 24.2003C29.7079 24.4397 29.3406 24.5243 28.8817 24.4356C28.4229 24.3468 27.9101 24.092 27.4561 23.7271C27.2308 23.546 27.0269 23.3432 26.856 23.1304C26.685 22.9176 26.5504 22.6989 26.4599 22.4869C26.3693 22.2749 26.3246 22.0738 26.3283 21.8949C26.332 21.7161 26.384 21.5632 26.4814 21.4448C26.6765 21.2054 27.0438 21.1208 27.5026 21.2095C27.9615 21.2983 28.4743 21.5531 28.9283 21.918ZM29.1382 19.1815C29.3376 19.6081 29.4511 20.0545 29.4541 20.423C29.4571 20.7916 29.3492 21.0525 29.1541 21.1489C28.9576 21.2444 28.6894 21.166 28.4084 20.9309C28.1273 20.6958 27.8566 20.3234 27.6556 19.8954C27.4555 19.4671 27.342 19.0191 27.34 18.6498C27.3379 18.2806 27.4475 18.0204 27.6446 17.9264C27.8415 17.8325 28.1097 17.9121 28.3903 18.1477C28.6709 18.3833 28.941 18.7557 29.1415 19.1831L29.1382 19.1815ZM16.3829 23.3282C15.4875 24.1853 14.4549 24.8339 13.5121 25.1314C12.5692 25.429 11.7932 25.3512 11.3547 24.9152C11.1373 24.6991 11.0094 24.4015 10.9783 24.0393C10.9473 23.6771 11.0136 23.2574 11.1735 22.8041C11.3335 22.3509 11.5839 21.873 11.9105 21.3978C12.2371 20.9226 12.6335 20.4593 13.077 20.0344C13.5208 19.6095 14.003 19.2314 14.4961 18.9218C14.9893 18.6121 15.4836 18.377 15.9509 18.2297C16.4181 18.0825 16.8492 18.0261 17.2194 18.0637C17.5896 18.1014 17.8918 18.2323 18.1085 18.4491C18.3259 18.6652 18.4537 18.9628 18.4848 19.325C18.5159 19.6872 18.4496 20.1069 18.2896 20.5602C18.1297 21.0134 17.8793 21.4913 17.5527 21.9665C17.2261 22.4417 16.8297 22.905 16.3862 23.3298L16.3829 23.3282ZM24.9025 21.3351C24.971 21.6729 24.9621 22.0229 24.876 22.3649C24.79 22.707 24.6287 23.0345 24.4012 23.3286C24.1737 23.6228 23.8846 23.8778 23.5503 24.0792C23.2161 24.2805 22.8433 24.4242 22.4532 24.5021C21.6672 24.6598 20.8586 24.5407 20.205 24.1711C19.5513 23.8015 19.1061 23.2116 18.967 22.5308C18.8977 22.1932 18.906 21.8433 18.9914 21.5012C19.0767 21.1591 19.2374 20.8314 19.4642 20.537C19.6911 20.2425 19.9797 19.9871 20.3135 19.7852C20.6473 19.5834 21.0198 19.4391 21.4096 19.3606C21.7992 19.2821 22.1985 19.2709 22.5848 19.3276C22.971 19.3842 23.3366 19.5077 23.6606 19.6909C23.9847 19.8741 24.2609 20.1135 24.4734 20.3953C24.6859 20.6771 24.8306 20.9959 24.8992 21.3335L24.9025 21.3351ZM26.8845 16.7349C26.9518 17.0473 26.9779 17.366 26.9613 17.6728C26.9447 17.9796 26.8857 18.2684 26.7877 18.5228C26.6896 18.7771 26.5545 18.9921 26.3899 19.1553C26.2254 19.3186 26.0347 19.4269 25.8287 19.4742C25.6227 19.5219 25.4054 19.5076 25.1892 19.4319C24.973 19.3563 24.7622 19.2209 24.5688 19.0334C24.3754 18.846 24.2032 18.6102 24.0621 18.3396C23.921 18.0689 23.8137 17.7687 23.7464 17.456C23.679 17.1436 23.6529 16.8249 23.6695 16.5182C23.6861 16.2114 23.7452 15.9226 23.8432 15.6682C23.9412 15.4138 24.0764 15.1989 24.2409 15.0356C24.4055 14.8724 24.5962 14.764 24.8022 14.7168C25.0082 14.669 25.2255 14.6834 25.4417 14.759C25.6578 14.8347 25.8687 14.9701 26.0621 15.1575C26.2555 15.345 26.4276 15.5808 26.5687 15.8514C26.7099 16.1221 26.8172 16.4223 26.8845 16.7349ZM27.8216 13.0792C27.8775 13.5916 27.852 14.0911 27.7507 14.4688C27.6495 14.8465 27.4806 15.0719 27.2809 15.0956C27.0803 15.1184 26.8652 14.9361 26.6828 14.5888C26.5004 14.2414 26.3657 13.7574 26.3082 13.243C26.2801 12.9879 26.2718 12.7332 26.2839 12.4935C26.296 12.2537 26.3283 12.0336 26.3788 11.8458C26.4293 11.6579 26.4971 11.5059 26.5783 11.3986C26.6596 11.2912 26.7526 11.2305 26.8522 11.22C27.0528 11.1986 27.2677 11.382 27.4497 11.7299C27.6318 12.0778 27.7661 12.5619 27.8232 13.0759L27.8216 13.0792ZM23.0284 15.1793C22.7205 15.5412 22.3769 15.868 22.0174 16.141C21.6579 16.414 21.2894 16.6278 20.9332 16.7702C20.577 16.9126 20.2399 16.9808 19.9414 16.9709C19.6429 16.9609 19.3887 16.8731 19.1935 16.7123C18.8005 16.3884 18.6701 15.789 18.8308 15.0456C18.9914 14.3022 19.4301 13.4756 20.0505 12.7472C20.358 12.3858 20.7011 12.0595 21.0601 11.7868C21.4191 11.514 21.7871 11.3003 22.1429 11.1578C22.4987 11.0153 22.8355 10.9468 23.1339 10.9562C23.4323 10.9656 23.6865 11.0527 23.8821 11.2126C24.2766 11.5355 24.4083 12.1348 24.2482 12.8787C24.0881 13.6225 23.6493 14.4501 23.0284 15.1793ZM28.5879 8.42389C28.3614 8.80756 28.1074 9.17009 27.8404 9.4908C27.5735 9.81151 27.2988 10.0841 27.0321 10.293C26.7654 10.5019 26.5118 10.6431 26.2859 10.7084C26.0601 10.7737 25.8663 10.7619 25.7156 10.6737C25.4124 10.4948 25.3029 10.0164 25.4112 9.34335C25.5196 8.67032 25.8369 7.85768 26.2936 7.08377C26.5201 6.7001 26.7741 6.33756 27.041 6.01686C27.308 5.69616 27.5827 5.42356 27.8494 5.21465C28.1161 5.00573 28.3697 4.86459 28.5955 4.79927C28.8214 4.73396 29.0152 4.74575 29.1659 4.83397C29.4691 5.01283 29.5786 5.49128 29.4703 6.16431C29.3619 6.83734 29.0446 7.64998 28.5879 8.42389Z" fill="white"/>
<path d="M66.198 20.101C66.8437 20.101 67.5481 19.8784 68.1278 19.5244L67.8233 18.6923C67.4466 18.9196 67.0164 19.0442 66.5759 19.0536C65.8055 19.0536 65.3285 18.6083 65.3836 17.7544H68.5974C68.6597 17.6339 68.7368 17.3821 68.7845 17.123C69.0596 15.6997 68.5166 14.6487 67.0822 14.6487C65.8422 14.6487 64.448 15.6961 64.1252 17.3748C63.795 19.0901 64.7342 20.101 66.198 20.101ZM65.5376 16.8456C65.7871 16.0939 66.3448 15.707 66.8951 15.707C67.5701 15.707 67.8012 16.1522 67.6655 16.8456H65.5376ZM59.4476 20.101C60.1557 20.101 60.7243 19.7579 61.2746 19.2251H61.3113L61.2746 19.9696H62.3899L63.3915 14.78H62.023L61.3443 18.2835C60.9041 18.747 60.5886 18.9332 60.1593 18.9332C59.6567 18.9332 59.488 18.6412 59.642 17.8493L60.2327 14.78H58.8643L58.2406 18.0244C57.9838 19.32 58.3213 20.101 59.4513 20.101H59.4476ZM54.6049 21.9622H55.9623L57.3491 14.78H56.2778L56.0687 15.291H56.032C55.8893 15.0827 55.6954 14.9143 55.4687 14.8019C55.2419 14.6895 54.99 14.6367 54.737 14.6487C53.6107 14.6487 52.3486 15.6888 52.0221 17.3748C51.6919 19.0791 52.334 20.101 53.629 20.101C54.1426 20.101 54.704 19.8419 55.1295 19.4806L54.9204 20.3127L54.6049 21.9622ZM54.2013 18.9769C53.5116 18.9769 53.2218 18.4405 53.4309 17.3639C53.6327 16.3274 54.2307 15.769 54.8177 15.769C55.1479 15.769 55.4597 15.8712 55.7239 16.1595L55.2836 18.4405C54.8984 18.831 54.5645 18.9769 54.2013 18.9769ZM48.8891 19.9696H50.2612L51.2627 14.78H49.8906L48.8891 19.9696ZM50.7418 13.948C51.2077 13.948 51.5892 13.6487 51.6773 13.1925C51.7653 12.7473 51.4938 12.4517 51.0279 12.4517C50.551 12.4517 50.1694 12.7509 50.0851 13.1925C49.997 13.6487 50.2685 13.9443 50.7418 13.9443V13.948ZM42.8173 19.966H44.1894L44.8792 16.3968C45.3341 16.0172 45.6423 15.8128 46.0715 15.8128C46.5851 15.8128 46.7539 16.0902 46.5998 16.8967L46.0055 19.966H47.3775L48.0012 16.7325C48.2507 15.426 47.9168 14.645 46.7906 14.645C46.0825 14.645 45.4808 15.0173 44.9379 15.4625H44.9085L44.9379 14.7764H43.8226L42.8173 19.966ZM38.4883 20.0973C40.1759 20.0973 41.3315 19.1594 41.7718 16.8785L42.5018 13.0976H41.1811L40.4254 17.0026C40.1502 18.4259 39.5339 18.9113 38.7157 18.9113C37.9123 18.9113 37.5051 18.4295 37.7802 16.9989L38.5323 13.0976H37.1529L36.4228 16.8785C35.9825 19.1594 36.808 20.0973 38.4846 20.0973H38.4883Z" fill="white"/>
<path d="M70.2888 30.3486C71.4848 30.3486 72.7101 29.429 72.9596 27.8305C73.2091 26.2247 72.2699 25.2978 71.0739 25.2978C69.8779 25.2978 68.6525 26.2247 68.3994 27.8268C68.1536 29.4326 69.0928 30.3486 70.2888 30.3486ZM70.4172 29.5275C69.6614 29.5275 69.2909 28.8524 69.4487 27.8268C69.6064 26.8123 70.1861 26.1298 70.9455 26.1298C71.7086 26.1298 72.0791 26.8123 71.9214 27.8268C71.7636 28.8487 71.1803 29.5275 70.4172 29.5275ZM65.846 30.2355H66.8549L67.6033 25.4182H66.5907L65.846 30.2355ZM67.2328 24.5204C67.6033 24.5204 67.9041 24.2832 67.9628 23.9146C68.0179 23.5569 67.7904 23.3197 67.4199 23.3197C67.053 23.3197 66.7595 23.5569 66.7045 23.9146C66.6458 24.2795 66.8659 24.5204 67.2328 24.5204ZM61.9535 30.3486C62.5001 30.3486 63.0468 30.0603 63.465 29.6917H63.5017L63.4943 30.2355H64.3235L65.4057 23.2577H64.3932L64.1144 25.0459L64.0373 25.8415C63.6924 25.5094 63.3733 25.2978 62.8193 25.2978C61.737 25.2978 60.5887 26.2685 60.3466 27.8268C60.1008 29.4326 60.7391 30.3486 61.9535 30.3486ZM62.3204 29.5166C61.5646 29.5166 61.2271 28.9144 61.3958 27.8196C61.5573 26.7758 62.203 26.1408 62.8817 26.1408C63.2412 26.1408 63.5677 26.2503 63.8759 26.5787L63.509 28.9326C63.0981 29.3341 62.7239 29.5166 62.3204 29.5166ZM56.2523 30.3486C56.9127 30.3486 57.4373 30.0165 57.9583 29.5093H57.9839L57.9473 30.2355H58.7764L59.5248 25.4182H58.5122L57.9949 28.7648C57.5107 29.272 57.1695 29.4837 56.7219 29.4837C56.1496 29.4837 55.9625 29.1516 56.0909 28.3268L56.5421 25.4218H55.5296L55.06 28.4509C54.8692 29.6735 55.2141 30.3486 56.2523 30.3486ZM52.9688 30.3486C53.321 30.3486 53.6585 30.2611 53.9484 30.1735L53.875 29.429C53.7282 29.491 53.5081 29.5421 53.3394 29.5421C52.8367 29.5421 52.679 29.2465 52.7707 28.6662L53.1486 26.2247H54.4069L54.5354 25.4218H53.277L53.4824 24.0898H52.6386L52.3158 25.4218L51.5527 25.4729L51.4353 26.2247H52.1397L51.7618 28.6589C51.6041 29.6735 51.8755 30.3486 52.9688 30.3486ZM48.1738 30.3486C49.5899 30.3486 50.5805 29.5093 50.7419 28.4765C50.8887 27.5276 50.4081 27.0568 49.6927 26.732L48.8599 26.3561C48.3646 26.1481 47.8803 25.9364 47.9647 25.378C48.0454 24.8671 48.526 24.5533 49.1864 24.5533C49.7587 24.5533 50.1733 24.7722 50.5218 25.1299L51.1601 24.4839C50.9327 24.2223 50.6501 24.0137 50.3324 23.873C50.0147 23.7323 49.6698 23.6631 49.3221 23.6701C48.0894 23.6701 47.0732 24.4328 46.9154 25.4474C46.7687 26.3853 47.3924 26.8707 47.9757 27.1371L48.8122 27.5203C49.3698 27.7831 49.7807 27.9692 49.6927 28.5531C49.6083 29.1005 49.1093 29.4655 48.3279 29.4655C48.0206 29.4613 47.7178 29.391 47.4404 29.2593C47.163 29.1277 46.9176 28.9378 46.721 28.7027L46.0093 29.4071C46.2764 29.7145 46.6088 29.9591 46.9825 30.1232C47.3562 30.2873 47.7618 30.3668 48.1701 30.3559L48.1738 30.3486Z" fill="white"/>
</svg>
