<svg width="24" height="24" viewBox="0 0 24 24" fill="none" xmlns="http://www.w3.org/2000/svg">
<path fill-rule="evenodd" clip-rule="evenodd" d="M21.5 5.39941C21.5 5.9517 21.0523 6.39941 20.5 6.39941H3.5C2.94772 6.39941 2.5 5.9517 2.5 5.39941C2.5 4.84713 2.94771 4.39941 3.5 4.39941H20.5C21.0523 4.39941 21.5 4.84713 21.5 5.39941ZM21.5 11.9994C21.5 12.5517 21.0523 12.9994 20.5 12.9994H3.5C2.94772 12.9994 2.5 12.5517 2.5 11.9994C2.5 11.4471 2.94771 10.9994 3.5 10.9994H20.5C21.0523 10.9994 21.5 11.4471 21.5 11.9994ZM21.5 18.5994C21.5 19.1517 21.0523 19.5994 20.5 19.5994H3.5C2.94772 19.5994 2.5 19.1517 2.5 18.5994C2.5 18.0471 2.94771 17.5994 3.5 17.5994H20.5C21.0523 17.5994 21.5 18.0471 21.5 18.5994Z" fill="white"/>
</svg>
