<svg width="20" height="20" viewBox="0 0 20 20" fill="none" xmlns="http://www.w3.org/2000/svg">
<g clip-path="url(#clip0_2634_5938)">
<path d="M19.0422 11.9688C17.9734 8.37977 14.6688 7.91258 13.8313 5.28446C13.3641 4.45164 13.1531 3.75789 12.7484 2.89227C11.8313 0.218831 8.52501 0.584456 7.81407 2.82039C6.71407 4.80477 4.28751 3.22977 4.12969 7.15946C4.11094 7.20789 3.81876 7.66258 3.59844 7.74539C1.57969 8.56102 2.18594 9.82977 2.05001 10.9751C1.73438 11.4548 1.19219 11.7548 0.948443 12.4454C0.325006 16.1298 5.32657 19.036 8.27501 19.0032C9.29219 19.011 9.92032 17.4735 9.92032 17.4735C11.0188 17.1657 11.6313 16.8329 12.0125 16.0907C12.1719 15.8157 12.4438 15.8391 12.5641 16.136C13.0031 17.2282 14.1156 17.9954 14.9672 16.7391C16.2984 14.772 19.8156 14.5704 19.0422 11.9688Z" fill="url(#paint0_radial_2634_5938)"/>
<path d="M10.2016 7.05008C9.90625 6.81258 12.3375 6.39539 12.7328 4.00476C12.7422 3.94539 12.9703 3.92195 13.0109 3.97664C13.7187 4.93914 14.0578 6.14226 14.8203 7.06258C15.1844 7.5032 15.6391 7.69383 16.0656 8.07508C16.4922 8.45633 17.0312 8.85164 17.2937 9.35789C17.5562 9.86414 18.3219 11.5626 16.5016 11.7157C16.0141 11.7563 15.6406 11.4329 14.2891 12.0891C14.2891 12.0907 13.1422 9.42195 10.2016 7.05008Z" fill="url(#paint1_linear_2634_5938)"/>
<path d="M8.27188 16.9407C8.29688 16.9079 8.32188 16.8751 8.34844 16.8438C8.38126 16.8032 8.41719 16.7595 8.46563 16.7392C8.52188 16.7157 8.58751 16.7298 8.64532 16.7501C8.81563 16.811 8.95938 16.9392 9.13594 16.9798C9.41719 17.0454 9.69532 16.8798 9.92501 16.7048C10.3016 16.4173 10.6484 16.0829 10.9 15.6813C11.0875 15.3829 11.2203 15.047 11.2641 14.697C11.2797 14.5782 11.2266 14.3845 11.3141 14.2845C11.4156 14.1688 11.625 14.211 11.7672 14.1767C12.0641 14.1079 12.3203 13.9204 12.5516 13.722C13.1234 13.2298 13.6063 12.6313 13.9656 11.9673C14.1125 12.3079 14.2094 12.6813 14.3422 13.0313C14.4109 13.211 14.4797 13.3954 14.4781 13.5876C14.475 13.8298 14.3578 14.0563 14.2172 14.2517C13.875 14.7282 13.2859 15.1017 12.7203 14.947C12.5859 14.9095 12.4266 14.8501 12.3234 14.9423C12.2688 14.9907 12.25 15.0657 12.2359 15.1376C12.1672 15.4907 12.1375 15.8548 12.0266 16.197C11.9156 16.5392 11.7047 16.872 11.3766 17.0235C10.9047 17.2423 10.25 17.0735 9.91719 17.472C9.79376 17.6204 9.74844 17.8157 9.67813 17.997C9.43907 18.6142 8.91876 19.0751 8.25938 19.1829C7.94688 19.2329 7.59844 19.211 7.30157 19.097C6.91563 18.9501 6.50001 18.8751 6.12344 18.6876C6.45469 18.6595 6.80157 18.6267 7.07344 18.436C7.19688 18.3501 7.29688 18.2345 7.39376 18.1204C7.71094 17.7438 7.97188 17.3313 8.27188 16.9407Z" fill="url(#paint2_linear_2634_5938)"/>
<path d="M11.4359 2.72801C11.6688 2.72801 11.7391 2.35926 11.425 2.28426C9.51095 1.81864 8.67501 3.36395 8.46251 3.91395C8.34689 4.21395 8.6422 4.37957 8.75939 4.17801C8.87501 3.97645 9.42345 3.33895 9.98595 3.05614C10.6125 2.74207 11.3688 2.72801 11.4359 2.72801Z" fill="#EDBD82"/>
<path d="M19.2281 11.778C18.8375 10.5359 18.3156 9.71241 17.6094 8.97648L17.1234 9.35304C17.5125 9.7546 17.8594 10.1937 18.1281 10.6937C18.5688 11.514 19.1063 12.6843 18.4328 13.5155C18.3781 13.5827 18.3188 13.6468 18.2563 13.7062C17.9547 13.9952 17.575 14.1999 17.2047 14.3984C16.675 14.6827 16.2063 15.0265 15.7578 15.4187C15.3219 15.7999 14.95 16.2484 14.5703 16.6874C14.4125 16.8702 14.2344 17.0859 13.9719 17.0859C13.7391 17.0843 13.5172 16.953 13.3281 16.8296C13.0875 16.6734 12.9859 16.2921 12.9813 16.0218C12.9781 15.8249 13.0219 15.6265 13.1094 15.4484C13.2156 15.2327 13.3047 15.203 13.5063 15.1046C13.9531 14.889 14.8781 14.0249 14.9406 13.4937C14.9813 13.1546 14.8984 12.753 14.6813 12.4905C14.8719 12.1468 15.2969 12.0093 15.6891 11.9718C16.0813 11.9343 16.4875 11.9624 16.8547 11.8218C16.9141 11.7999 16.9813 11.7546 16.9703 11.6921C16.9641 11.6562 16.9328 11.6312 16.9031 11.6109C16.5656 11.3734 16.1406 11.2843 15.7281 11.2874C15.3156 11.2905 14.9078 11.378 14.5047 11.464C14.8719 10.7859 14.9734 9.96866 14.7844 9.22179C14.7563 9.10773 14.6813 8.97023 14.5672 8.99054C14.4859 9.0046 14.4406 9.0921 14.4125 9.17023C14.2531 9.6171 14.2188 10.1202 13.9453 10.5093C13.9188 10.5484 13.8844 10.5874 13.8391 10.5968C13.7031 10.6218 13.5906 9.99991 12.7875 9.04835C12.3203 8.49366 11.6141 8.0421 11.4641 7.89835C11.1063 7.54991 11.275 7.01241 11.5313 6.62648C11.7297 6.32804 12.0469 6.13116 12.2984 5.87491C12.6641 5.50148 12.8703 4.96085 13 4.46554C13.5078 5.35773 13.9375 6.3171 14.5672 7.13585L14.5797 7.12648C14.8859 7.49991 15.2734 7.79523 15.6813 8.10773C15.8797 8.25929 16.0844 8.41554 16.2953 8.59054C16.4938 8.75616 17.0125 9.2546 17.2 9.43273L17.6859 9.05773C17.4734 8.81241 16.9266 8.32804 16.6844 8.12648C16.4641 7.9421 16.2531 7.78273 16.05 7.62648C15.6063 7.28741 15.2234 6.99523 14.9547 6.62179L14.9469 6.62804C14.4484 5.91398 13.4969 4.17491 12.8188 2.72491C11.9797 0.935851 10.6625 0.368663 9.00782 1.08273C8.07657 1.48429 7.7922 2.15148 7.56407 2.68898C7.46095 2.93273 7.3672 3.14366 7.23438 3.2921C6.89845 3.52491 6.59063 3.65304 6.26563 3.78585C5.90001 3.93585 5.52032 4.0921 5.09688 4.40148C4.03907 5.17491 3.95001 6.01085 3.82657 7.1671L3.80626 7.35148C3.78751 7.40148 3.67501 7.60773 3.45001 7.6921C1.75001 8.33741 1.83126 9.56085 1.88438 10.3702C1.90157 10.6218 1.91876 10.8812 1.86407 10.9984C1.81095 11.114 1.67657 11.2468 1.52345 11.4015C1.25782 11.6687 0.928134 11.9999 0.735946 12.503C0.354696 13.4984 1.04688 14.964 1.42032 15.4796C2.21407 16.5734 3.37345 17.5109 4.41251 18.1296L4.77188 17.6359C3.88438 17.1171 2.73438 16.2609 1.91095 15.1249C1.55157 14.6296 1.04063 13.403 1.30157 12.7218C1.44845 12.339 1.71563 12.0687 1.95313 11.8312C2.13907 11.6437 2.31563 11.4671 2.41407 11.2562C2.53438 10.9984 2.51251 10.6749 2.49063 10.3312C2.43907 9.55148 2.38595 8.74679 3.66563 8.26085C4.14532 8.07804 4.38595 7.63116 4.40782 7.43273L4.4297 7.23273C4.54845 6.12023 4.61407 5.50616 5.4547 4.8921C5.81876 4.62648 6.14845 4.49054 6.49532 4.34679C6.85001 4.20148 7.2172 4.04835 7.62813 3.76085C7.63282 3.75616 7.63751 3.75148 7.6422 3.74679C7.64845 3.7421 7.6547 3.73741 7.66251 3.73273L7.65938 3.72804C7.87813 3.49835 8.00313 3.20773 8.12345 2.92491C8.33751 2.42023 8.54063 1.94523 9.24845 1.63898C10.4031 1.14054 11.2969 1.39991 11.9656 2.43116C12.4813 3.40304 12.5656 4.20929 12.2234 4.89366C11.9594 5.42179 11.2938 5.86554 10.6063 5.97335C10.0141 6.06554 9.54688 6.08429 9.16407 5.5671C9.00001 5.34679 8.8797 5.09679 8.73438 4.86398C8.68282 4.78116 8.60782 4.69054 8.51095 4.70148C8.40157 4.71398 8.35313 4.84523 8.34063 4.9546C8.26876 5.60929 8.77032 6.19679 9.19063 6.65773C9.73907 7.26085 10.3859 7.77179 11.0172 8.28429C11.5594 8.72491 12.0703 9.1421 12.3344 9.44523C13.5484 10.8421 14.3922 13.0077 14.3438 13.4202C14.3141 13.6374 13.6422 14.3655 13.2469 14.5562C13.0984 14.628 12.6688 14.6437 12.1422 14.3796C11.4906 14.053 10.8906 13.528 10.3422 13.0593C9.39376 12.2484 8.46407 11.2937 7.79063 10.2452C7.7297 10.1499 7.64532 10.0437 7.53282 10.0546C7.47345 10.0609 7.42345 10.0984 7.37813 10.1359C7.30157 10.1968 7.22657 10.2577 7.15001 10.3187C7.07501 10.3796 6.9922 10.4499 6.98282 10.5468C6.97032 10.6624 7.06563 10.7593 7.15313 10.8359C7.58907 11.2109 8.00313 11.489 8.35313 11.9374C8.73438 12.4265 9.21407 12.8624 9.67501 13.2734C10.0578 13.6155 10.4563 13.9405 10.8672 14.2468C10.9891 14.3374 11.6625 14.6812 11.6922 14.8187C11.8031 15.3155 11.9328 16.364 11.1516 16.7155C10.5063 17.0046 9.26407 16.9577 8.97345 16.814C8.27188 16.4655 7.67501 15.7937 7.12501 15.2515C6.40782 14.5452 5.54688 13.853 5.01563 12.9999C4.9922 12.9609 4.96251 12.9171 4.9172 12.9109C4.87813 12.9062 4.8422 12.9296 4.81095 12.953C4.73126 13.0109 4.65157 13.0687 4.57032 13.1265C4.49376 13.1827 4.41095 13.2452 4.38907 13.339C4.3547 13.4796 4.47345 13.6062 4.58595 13.6968C4.9797 14.0124 5.31563 14.2499 5.66251 14.6202C6.00782 14.9874 6.35938 15.3499 6.71876 15.7046C7.30938 16.2874 7.94688 16.9827 8.70157 17.3577C8.88438 17.4484 9.18438 17.5062 9.5297 17.528C9.2797 18.3093 8.63438 18.6109 8.23751 18.6109C7.43282 18.6109 6.34845 18.3859 5.60313 18.064C5.45313 17.9999 4.87657 17.6859 4.6797 17.5796L4.3297 18.078C4.5547 18.1999 5.15938 18.5312 5.36251 18.6187C6.18907 18.9749 7.34376 19.2155 8.23751 19.2155C9.1797 19.2155 9.72344 18.528 10.0922 17.7593C10.2078 17.5187 10.3047 17.5749 10.5641 17.5327C10.8047 17.4937 11.0359 17.4093 11.2531 17.2984C11.7078 17.064 12.0953 16.6999 12.3891 16.2827C12.5703 16.9843 13.2078 17.5452 13.9266 17.6359C14.1188 17.6609 14.3484 17.653 14.5281 17.5749C14.7109 17.4952 14.8594 17.3499 14.9922 17.2046C15.7703 16.3484 16.4875 15.4296 17.5547 14.9093C17.9438 14.7187 18.3656 14.5812 18.7 14.3062C19.4422 13.6968 19.4953 12.6265 19.2281 11.778Z" fill="#EDBD82"/>
</g>
<defs>
<radialGradient id="paint0_radial_2634_5938" cx="0" cy="0" r="1" gradientUnits="userSpaceOnUse" gradientTransform="translate(10.6022 11.1453) scale(14.5407)">
<stop offset="0.5949" stop-color="#F9DDBD"/>
<stop offset="0.8723" stop-color="#FFD29C"/>
</radialGradient>
<linearGradient id="paint1_linear_2634_5938" x1="16.4249" y1="11.8626" x2="12.1941" y2="6.05862" gradientUnits="userSpaceOnUse">
<stop stop-color="#FFD29C" stop-opacity="0"/>
<stop offset="1" stop-color="#FFD29C"/>
</linearGradient>
<linearGradient id="paint2_linear_2634_5938" x1="12.4931" y1="17.8095" x2="10.3129" y2="15.6002" gradientUnits="userSpaceOnUse">
<stop offset="0.3533" stop-color="#F9DDBD"/>
<stop offset="0.8723" stop-color="#FFD29C"/>
</linearGradient>
<clipPath id="clip0_2634_5938">
<rect width="20" height="20" fill="white"/>
</clipPath>
</defs>
</svg>
