<svg width="48" height="48" viewBox="0 0 48 48" fill="none" xmlns="http://www.w3.org/2000/svg">
<path d="M8.875 2H30.875L41.875 13V43.2501C41.875 44.7689 40.6438 46.0001 39.125 46.0001H8.875C7.35618 46.0001 6.125 44.7689 6.125 43.2501V4.75C6.125 3.23118 7.35618 2 8.875 2Z" fill="#FA5C5C"/>
<path fill-rule="evenodd" clip-rule="evenodd" d="M25.8863 28.7925L26.0556 28.7574L26.0598 28.7614C26.1074 28.8069 26.1766 28.8714 26.2641 28.9487C26.4388 29.1031 26.6873 29.3094 26.9824 29.5167C28.2904 30.4353 29.7298 30.8673 30.8548 30.865C31.4161 30.8639 31.9145 30.7545 32.2789 30.5274C32.651 30.2955 32.8804 29.9407 32.8804 29.4812C32.8804 29.1384 32.7875 28.8136 32.5756 28.5319C32.3647 28.2516 32.0454 28.0261 31.6123 27.8639C30.7519 27.5417 29.4119 27.4575 27.4592 27.7123L26.3356 27.8589L25.4156 26.7146C24.8934 26.0585 24.3056 25.2464 24.1088 24.9124L23.7765 24.3483L24.178 22.8048C24.4366 21.8104 24.5787 20.9131 24.6002 20.1511C24.6217 19.3922 24.5241 18.752 24.2891 18.283C23.9858 17.6777 23.4441 17.3344 22.9051 17.2936C22.3612 17.2525 21.829 17.5228 21.5838 18.1148C21.4937 18.3323 21.444 18.6306 21.4237 18.9651C21.4031 19.3031 21.4116 19.6919 21.4456 20.0983C21.5136 20.9102 21.6845 21.8068 21.9391 22.5284L22.3212 23.6117L21.7582 25.0978C21.4372 25.9451 20.8548 27.3382 20.4652 28.1907L19.7802 29.6893L18.0112 30.5684C16.5544 31.2924 15.5317 32.0069 14.9996 32.6826C14.7323 33.0222 14.5774 33.3664 14.5696 33.7076C14.5617 34.0545 14.7063 34.3699 14.9811 34.6447C15.2771 34.9407 15.7059 35.0648 16.1696 35.0471C16.6343 35.0294 17.1489 34.8698 17.6444 34.5795C18.0931 34.3165 18.617 33.834 19.1516 33.2192C19.6887 32.6016 20.2453 31.8405 20.7582 31.0096C20.8931 30.7911 21.0648 30.5303 21.2034 30.3232C21.2726 30.2199 21.3333 30.1303 21.3767 30.0666L21.4124 30.0144C22.5641 29.6256 22.9663 29.4905 23.7634 29.2757C24.1538 29.1704 24.7489 29.0363 25.2492 28.9279C25.4988 28.8738 25.7237 28.8264 25.8863 28.7925ZM29.7016 29.7789C29.0056 29.5658 28.0498 29.1484 27.6643 28.9282C27.5219 28.8467 27.2861 28.6926 27.0805 28.555C27.5525 28.4923 28.2856 28.4094 28.8077 28.3736C30.0456 28.3555 30.3905 28.4076 30.825 28.6263C31.3307 28.8809 31.3733 29.4811 30.9525 29.7758L30.9511 29.7768C30.716 29.945 30.3844 29.9879 29.7016 29.7789ZM22.2916 28.8409C22.1688 28.8794 22.0534 28.9161 21.9514 28.9487L22.0034 28.85L22.8767 26.6913C23.0184 26.3568 23.1742 25.9155 23.2938 25.5607C23.3245 25.4695 23.353 25.3837 23.3783 25.3065C23.4954 25.489 23.6619 25.7342 23.8779 26.0176C24.2349 26.5567 24.7945 27.2795 25.1321 27.6357L25.4652 28.044C25.3222 28.0729 25.1373 28.1107 24.9345 28.1532C24.4789 28.2486 23.9292 28.3683 23.5641 28.4637C23.2191 28.5538 22.7108 28.7091 22.2916 28.8409ZM22.7961 18.1717C22.894 18.1826 23.0175 18.242 23.1513 18.3842C23.2322 18.5198 23.2766 18.7383 23.285 19.0297C23.2934 19.3233 23.2651 19.6632 23.2236 20.0115C23.112 20.7153 22.9172 21.6399 22.7923 22.0641L22.7255 22.2906L22.5713 21.8015C22.395 21.2421 22.2602 20.3198 22.2175 19.7774C22.1547 18.9786 22.3151 18.494 22.5126 18.2892C22.6053 18.1931 22.7016 18.1613 22.7961 18.1717ZM18.9363 31.0068C18.5574 31.6021 18.0994 32.2176 17.6677 32.7281C17.2198 33.2579 16.8158 33.6558 16.5648 33.811C16.2105 34.0299 15.9747 34.1269 15.8054 34.141C15.7258 34.1477 15.6635 34.1357 15.609 34.11C15.553 34.0836 15.4952 34.038 15.4329 33.963C15.3411 33.8524 15.3148 33.7288 15.3563 33.5757C15.4006 33.4122 15.5241 33.2125 15.7466 32.982C16.1903 32.5224 16.9766 31.9921 18.0784 31.4382L18.9363 31.0068Z" fill="#FFFEFD"/>
<path d="M30.875 2L41.875 13H33.625C32.1062 13 30.875 11.7688 30.875 10.25V2Z" fill="#FCB5B5"/>
</svg>
