<svg width="16" height="16" viewBox="0 0 16 16" fill="none" xmlns="http://www.w3.org/2000/svg">
<path fill-rule="evenodd" clip-rule="evenodd" d="M2.66666 8.00016C2.66666 5.05464 5.05448 2.66683 7.99999 2.66683C10.9455 2.66683 13.3333 5.05464 13.3333 8.00016C13.3333 10.9457 10.9455 13.3335 7.99999 13.3335C5.05448 13.3335 2.66666 10.9457 2.66666 8.00016ZM7.99999 1.3335C4.3181 1.3335 1.33333 4.31826 1.33333 8.00016C1.33333 11.6821 4.3181 14.6668 7.99999 14.6668C11.6819 14.6668 14.6667 11.6821 14.6667 8.00016C14.6667 4.31826 11.6819 1.3335 7.99999 1.3335ZM6.86667 6.6597V6.50597C6.86747 6.32307 6.93288 6.12017 7.07883 5.96764C7.21362 5.82675 7.47635 5.66683 7.99617 5.66683C8.48431 5.66683 8.82375 5.89989 8.99686 6.16448C9.18173 6.44705 9.1453 6.68413 9.05756 6.80259C8.94814 6.95031 8.81228 7.08676 8.64808 7.23457C8.59812 7.27954 8.53655 7.33312 8.47053 7.39057L8.47052 7.39058C8.35246 7.49331 8.22019 7.60841 8.11472 7.70877C7.74023 8.06511 7.33345 8.56244 7.33345 9.3335L7.33562 9.67111L8.66893 9.66255L8.6668 9.33167C8.66729 9.10365 8.76076 8.93452 9.03383 8.6747C9.12562 8.58736 9.20812 8.51598 9.30253 8.4343L9.30257 8.43427C9.3724 8.37386 9.44873 8.30782 9.54015 8.22552C9.73027 8.05437 9.94184 7.84887 10.129 7.59621C10.6344 6.9139 10.5162 6.05137 10.1126 5.43451C9.69729 4.79967 8.94161 4.3335 7.99617 4.3335C7.17801 4.3335 6.5437 4.59826 6.11544 5.04587C5.69856 5.48157 5.53485 6.03054 5.53334 6.5026V6.6597H6.86667ZM7.33561 10.3335V11.6694H8.66894V10.3335H7.33561Z" fill="#C9CDD4"/>
</svg>
