<svg width="188" height="24" viewBox="0 0 188 24" fill="none" xmlns="http://www.w3.org/2000/svg">
<path d="M52.0311 18.7633C53.142 18.7633 54.354 18.3888 55.3513 17.7932L54.8274 16.3934C54.1793 16.7757 53.4391 16.9854 52.6812 17.0012C51.3557 17.0012 50.5351 16.2522 50.6298 14.8155H56.1593C56.2666 14.6129 56.3991 14.1892 56.4812 13.7533C56.9546 11.3588 56.0204 9.59062 53.5523 9.59062C51.4188 9.59062 49.0202 11.3527 48.4647 14.177C47.8966 17.0626 49.5125 18.7633 52.0311 18.7633ZM50.8949 13.2867C51.3241 12.0219 52.2836 11.3711 53.2304 11.3711C54.3919 11.3711 54.7895 12.1202 54.556 13.2867H50.8949ZM40.4167 18.7633C41.635 18.7633 42.6133 18.1862 43.5602 17.2898H43.6233L43.5602 18.5423H45.4791L47.2023 9.81165H44.8479L43.6801 15.7057C42.9226 16.4855 42.3798 16.7986 41.6413 16.7986C40.7765 16.7986 40.4861 16.3074 40.7512 14.9751L41.7675 9.81165H39.4131L38.34 15.2698C37.8981 17.4494 38.4789 18.7633 40.423 18.7633H40.4167ZM32.0846 21.8945H34.4201L36.8061 9.81165H34.963L34.6032 10.6712H34.5401C34.2946 10.3209 33.9608 10.0376 33.5708 9.84843C33.1807 9.65926 32.7473 9.57049 32.3119 9.59062C30.374 9.59062 28.2026 11.3404 27.6409 14.177C27.0728 17.0442 28.1774 18.7633 30.4056 18.7633C31.2893 18.7633 32.2551 18.3274 32.9873 17.7196L32.6275 19.1194L32.0846 21.8945ZM31.3903 16.8723C30.2036 16.8723 29.7049 15.9697 30.0647 14.1585C30.4119 12.4149 31.4408 11.4755 32.4507 11.4755C33.0188 11.4755 33.5554 11.6474 34.0098 12.1324L33.2524 15.9697C32.5896 16.6267 32.0152 16.8723 31.3903 16.8723ZM22.2503 18.5423H24.611L26.3343 9.81165H23.9735L22.2503 18.5423ZM25.4379 8.4118C26.2396 8.4118 26.896 7.90834 27.0475 7.14089C27.199 6.39184 26.7319 5.89453 25.9303 5.89453C25.1097 5.89453 24.4532 6.39798 24.308 7.14089C24.1565 7.90834 24.6237 8.40566 25.4379 8.40566V8.4118ZM11.8036 18.5361H14.1644L15.3511 12.5315C16.1338 11.893 16.664 11.5492 17.4025 11.5492C18.2862 11.5492 18.5766 12.0158 18.3115 13.3727L17.2889 18.5361H19.6497L20.7227 13.0964C21.152 10.8984 20.5776 9.58448 18.6397 9.58448C17.4215 9.58448 16.3863 10.2107 15.4521 10.9598H15.4016L15.4521 9.80551H13.5332L11.8036 18.5361ZM4.35527 18.7572C7.25887 18.7572 9.2472 17.1793 10.0047 13.342L11.2608 6.98125H8.98841L7.6881 13.5507C7.21469 15.9452 6.15424 16.7618 4.74663 16.7618C3.36426 16.7618 2.66361 15.9513 3.13702 13.5446L4.43102 6.98125H2.05764L0.801519 13.342C0.0440582 17.1793 1.4643 18.7572 4.34896 18.7572H4.35527Z" fill="white"/>
<path d="M130.842 12.492C131.178 13.692 131.634 14.79 132.21 15.786C132.786 16.77 133.5 17.724 134.352 18.648L132.66 19.404C131.484 18 130.53 16.272 129.798 14.22C129.39 15.216 128.88 16.158 128.268 17.046C127.656 17.934 126.972 18.696 126.216 19.332L124.686 18.576C125.646 17.736 126.474 16.8 127.17 15.768C127.866 14.724 128.37 13.632 128.682 12.492H125.766L125.946 10.908H129.006L129.348 8.244H126.612L126.792 6.696H128.232L127.62 3.978H129.222L129.834 6.696H131.202L132.228 3.978H133.938L132.894 6.696H134.352L134.19 8.244H131.094L130.698 10.908H134.334L134.154 12.492H130.842ZM122.922 16.092C121.494 16.416 120.084 16.698 118.692 16.938L118.908 15.336L119.664 15.192L120.762 6.192H119.844L120.024 4.662H126.792L126.612 6.192H125.766L124.812 14.04L125.442 13.878L126.072 13.716L125.892 15.318L124.614 15.678L124.182 19.26H122.526L122.922 16.092ZM124.182 6.192H122.31L122.076 8.01H123.948L124.182 6.192ZM123.768 9.45H121.896L121.68 11.232H123.534L123.768 9.45ZM121.23 14.868C121.434 14.832 121.752 14.766 122.184 14.67L123.138 14.454L123.354 12.672H121.5L121.23 14.868ZM150.3 17.964C150.252 18.408 150.108 18.744 149.868 18.972C149.64 19.2 149.334 19.314 148.95 19.314C148.746 19.314 148.548 19.29 148.356 19.242C147.24 18.966 146.394 18.702 145.818 18.45L146.052 16.794C147.024 17.118 147.762 17.352 148.266 17.496L148.446 17.532C148.518 17.532 148.566 17.514 148.59 17.478C148.614 17.43 148.638 17.346 148.662 17.226L150.192 3.834H151.92L150.3 17.964ZM144.396 10.188C144.432 10.344 144.45 10.524 144.45 10.728C144.45 10.944 144.432 11.208 144.396 11.52C144.324 12.072 144.24 12.672 144.144 13.32C144.132 13.416 144.108 13.596 144.072 13.86C144.048 14.124 143.982 14.358 143.874 14.562C143.766 14.766 143.616 14.934 143.424 15.066C143.184 15.222 142.89 15.3 142.542 15.3C142.326 15.3 142.086 15.27 141.822 15.21C141.558 15.15 141.318 15.09 141.102 15.03L140.22 14.76L140.454 13.194C141.078 13.386 141.612 13.53 142.056 13.626C142.08 13.638 142.116 13.644 142.164 13.644C142.32 13.644 142.422 13.524 142.47 13.284C142.518 13.08 142.578 12.678 142.65 12.078C142.698 11.658 142.734 11.22 142.758 10.764H139.626L138.87 17.046V17.136C138.87 17.232 138.894 17.304 138.942 17.352C138.99 17.388 139.074 17.406 139.194 17.406H140.472C141.264 17.406 141.99 17.34 142.65 17.208C143.31 17.064 143.958 16.836 144.594 16.524L144.27 18.468C143.178 18.9 141.846 19.116 140.274 19.116H138.618C138.114 19.116 137.736 18.99 137.484 18.738C137.232 18.486 137.106 18.126 137.106 17.658C137.106 17.49 137.112 17.364 137.124 17.28L137.952 10.422C137.964 10.362 137.988 10.23 138.024 10.026L136.422 9.756L139.5 4.86C139.752 4.416 140.088 4.194 140.508 4.194H142.902C143.094 4.194 143.28 4.248 143.46 4.356C143.652 4.464 143.796 4.626 143.892 4.842L145.998 9.918L144.396 10.188ZM146.898 5.436H148.554L147.384 15.372H145.692L146.898 5.436ZM143.1 9.108C143.4 9.108 143.658 9.18 143.874 9.324L142.542 5.832H140.832L138.834 9.162C138.954 9.126 139.104 9.108 139.284 9.108H143.1ZM155.97 19.188C155.586 19.188 155.172 19.128 154.728 19.008C154.296 18.888 153.9 18.732 153.54 18.54L153.756 16.83C154.38 17.166 154.92 17.334 155.376 17.334C155.484 17.334 155.562 17.316 155.61 17.28C155.658 17.232 155.694 17.142 155.718 17.01L156.168 13.23C155.424 13.458 154.704 13.674 154.008 13.878L154.242 11.988C154.926 11.832 155.646 11.634 156.402 11.394L156.78 8.316H154.692L154.89 6.624H156.978L157.32 3.888H159.03L158.706 6.624H160.308L160.11 8.316H158.49L158.202 10.8L158.994 10.512C159.174 10.452 159.444 10.35 159.804 10.206L159.606 12.078L158.796 12.348L157.968 12.636L157.356 17.82C157.296 18.264 157.146 18.6 156.906 18.828C156.666 19.068 156.354 19.188 155.97 19.188ZM160.884 6.048L161.064 4.41H168.012C168.528 4.41 168.888 4.512 169.092 4.716C169.308 4.92 169.416 5.262 169.416 5.742C169.416 6.114 169.362 6.69 169.254 7.47L169.164 8.154C169.08 8.886 168.966 9.558 168.822 10.17C168.726 10.542 168.558 10.836 168.318 11.052C168.09 11.268 167.802 11.376 167.454 11.376C167.226 11.376 166.95 11.352 166.626 11.304C166.314 11.256 166.014 11.202 165.726 11.142C165.066 11.01 164.61 10.884 164.358 10.764L164.592 9.18C164.808 9.3 165.198 9.414 165.762 9.522C166.362 9.642 166.698 9.702 166.77 9.702C166.926 9.702 167.034 9.678 167.094 9.63C167.154 9.57 167.202 9.462 167.238 9.306C167.286 9.09 167.37 8.562 167.49 7.722L167.598 6.786C167.61 6.594 167.622 6.444 167.634 6.336C167.646 6.216 167.658 6.12 167.67 6.048H164.916C164.664 7.008 164.166 8.112 163.422 9.36C162.786 10.404 162.126 11.256 161.442 11.916L159.966 10.998C160.758 10.278 161.424 9.498 161.964 8.658C162.516 7.818 162.924 6.948 163.188 6.048H160.884ZM167.922 19.224H159.408L160.074 13.968C160.134 13.416 160.296 13.008 160.56 12.744C160.836 12.468 161.238 12.33 161.766 12.33H167.22C168.228 12.33 168.678 12.87 168.57 13.95L167.922 19.224ZM161.334 17.64H166.338L166.842 13.914H161.784L161.334 17.64ZM179.946 5.292L179.766 6.768H172.62L172.782 5.292H175.536L175.176 3.816H176.904L177.3 5.292H179.946ZM180.882 6.426C180.93 5.994 181.038 5.676 181.206 5.472C181.386 5.268 181.668 5.142 182.052 5.094C182.532 5.034 183.3 4.908 184.356 4.716C185.112 4.572 186.036 4.374 187.128 4.122L186.93 5.832C185.61 6.144 184.164 6.396 182.592 6.588L182.268 9.216H187.236L187.056 10.782H185.634L184.734 19.314H183.096L183.996 10.782H182.088L181.854 12.744C181.722 13.956 181.464 15.21 181.08 16.506C180.708 17.79 180.318 18.762 179.91 19.422L178.29 18.936C178.638 18.324 178.908 17.754 179.1 17.226H177.732L177.066 14.238H178.506L179.172 17.064C179.652 15.816 179.982 14.364 180.162 12.708L180.882 6.426ZM179.748 10.62H176.796L176.652 12.042H179.334L179.136 13.554H176.49L176.022 18.054C175.902 18.93 175.452 19.338 174.672 19.278C173.928 19.206 173.274 19.104 172.71 18.972L172.908 17.424C173.244 17.52 173.634 17.598 174.078 17.658C174.114 17.67 174.156 17.676 174.204 17.676C174.3 17.676 174.366 17.592 174.402 17.424L174.816 13.554H171.864L172.044 12.042H174.978L175.14 10.62H171.828L172.026 9.144H173.952L173.484 7.182H174.906L175.428 9.144H176.814L177.588 7.182H179.046L178.308 9.144H179.91L179.748 10.62ZM172.458 14.22H173.988L172.53 17.604H170.91L172.458 14.22Z" fill="white"/>
<path fill-rule="evenodd" clip-rule="evenodd" d="M64.4122 9.93185L64.397 10.1368C64.3986 10.2651 64.4229 10.376 64.4634 10.4739C64.5246 10.6217 64.6275 10.7508 64.7672 10.869C64.8388 10.9296 64.9184 10.986 65.0047 11.0395C65.2634 11.2 65.582 11.3344 65.924 11.4753L65.9285 11.4771L67.4396 12.1461C68.1021 12.4411 68.6802 12.8125 69.055 13.3447C69.4339 13.8829 69.5902 14.5639 69.4512 15.4456C69.1458 17.3617 67.2986 18.8982 64.7169 18.9426L64.6051 18.9455C63.8367 18.9655 63.0733 18.8187 62.37 18.5159C61.6667 18.213 61.0411 17.7615 60.5383 17.1939L60.4233 17.0642L61.9838 15.5496L62.1142 15.7025C62.4536 16.1005 62.8773 16.422 63.3563 16.645C63.8349 16.8678 64.3573 16.9869 64.8876 16.9941C66.2499 16.9937 67.0436 16.3785 67.1777 15.5264C67.2142 15.2893 67.1973 15.104 67.1454 14.9526C67.0937 14.8017 67.0033 14.673 66.8748 14.554C66.6108 14.3096 66.2086 14.1237 65.6982 13.8879L65.6872 13.8828L65.6853 13.8819L64.1697 13.201C63.6273 12.958 63.049 12.6081 62.6409 12.0911C62.2277 11.5676 61.9977 10.8837 62.1388 9.99899C62.4426 8.0835 64.3843 6.68188 66.6884 6.68112C67.3459 6.66837 67.9982 6.797 68.5991 7.05794C69.2005 7.31912 69.7357 7.70645 70.1664 8.19244L70.2801 8.32074L68.8661 9.72409L68.7331 9.59024C68.1305 8.98382 67.4248 8.61954 66.444 8.61954C66.2605 8.61954 66.087 8.63304 65.9243 8.65893C65.6063 8.70957 65.3302 8.80761 65.1033 8.9448C64.7212 9.17589 64.479 9.51806 64.4122 9.93185ZM109.763 14.2963C109.297 17.2253 107 18.9325 104.733 18.9325C103.599 18.9325 102.575 18.506 101.893 17.6934C101.211 16.8804 100.89 15.7028 101.12 14.2338C101.592 11.2995 103.889 9.5776 106.157 9.5776C107.291 9.5776 108.316 10.0096 108.996 10.827C109.677 11.6448 109.996 12.8272 109.763 14.2963ZM107.51 14.2334C107.649 13.3541 107.55 12.6455 107.273 12.1649C107.002 11.6952 106.551 11.4251 105.924 11.4251C104.682 11.4251 103.673 12.5237 103.393 14.2894C103.253 15.179 103.353 15.8893 103.628 16.369C103.898 16.8377 104.345 17.1045 104.966 17.1045C106.215 17.1045 107.23 16.0111 107.51 14.2334ZM96.4533 18.7312L97.8624 9.79191H100.078L98.6622 18.7312H96.4533ZM100.697 7.32848C100.575 8.08001 99.9449 8.56109 99.1876 8.56109C98.8144 8.56109 98.4918 8.44013 98.2787 8.20367C98.0648 7.96628 97.9844 7.63826 98.0443 7.27134C98.1594 6.53955 98.7758 6.05767 99.5271 6.05767C99.9023 6.05767 100.228 6.17602 100.446 6.40709C100.666 6.64015 100.754 6.96502 100.697 7.32848ZM93.2397 10.3455L93.3445 9.28458L93.8754 5.94727H96.0909L94.0692 18.7312H92.2151L92.2262 17.9213C91.4834 18.4963 90.5542 18.9325 89.6089 18.9325C88.4561 18.9325 87.5509 18.503 87.001 17.6772C86.4571 16.8604 86.2817 15.6867 86.5084 14.2338C86.9588 11.3912 89.1049 9.5776 91.1798 9.5776C91.7081 9.5776 92.1328 9.67703 92.5095 9.85861C92.7745 9.98632 93.0111 10.1525 93.2397 10.3455ZM82.2506 15.8454C81.4046 16.7066 80.8385 17.0266 80.1166 17.0266C79.6328 17.0266 79.3707 16.8917 79.2312 16.6427C79.0778 16.3689 79.0408 15.9082 79.1564 15.1795L80.0087 9.79841H77.793L76.9164 15.3438C76.7412 16.4448 76.8034 17.3423 77.1861 17.9705C77.579 18.6155 78.2803 18.9325 79.2645 18.9325C80.4064 18.9325 81.3273 18.4235 82.1986 17.655L82.1432 18.7312H84.0044L85.4205 9.79191H83.2047L82.2506 15.8454ZM75.2854 18.5694L75.1383 18.613C74.6091 18.7698 73.9748 18.9325 73.3069 18.9325C72.2767 18.9325 71.5835 18.6182 71.2022 18.02C70.8305 17.4369 70.787 16.6299 70.9321 15.7141L71.5843 11.5939H70.306L70.5758 9.89953L71.9727 9.80781L72.5608 7.42797H74.4569L74.0841 9.79841H76.3686L76.0758 11.5939H73.7934L73.1323 15.7833C73.0508 16.2887 73.0899 16.6227 73.2179 16.8252C73.3355 17.0111 73.5585 17.1305 73.9792 17.1305C74.257 17.1305 74.6317 17.0459 74.8783 16.9437L75.1123 16.8466L75.2854 18.5694ZM88.9707 16.4009C89.2191 16.8448 89.6463 17.085 90.2745 17.085C90.9272 17.085 91.5495 16.8047 92.2561 16.1403L92.8978 12.1023C92.3961 11.6076 91.8737 11.4446 91.293 11.4446C90.1897 11.4446 89.067 12.4686 88.7819 14.2765C88.6314 15.2339 88.7133 15.941 88.9707 16.4009Z" fill="white"/>
</svg>
