<svg width="48" height="48" viewBox="0 0 48 48" fill="none" xmlns="http://www.w3.org/2000/svg">
<path d="M8.875 2H30.875L41.875 13V43.25C41.875 44.7688 40.6438 46 39.125 46H8.875C7.35618 46 6.125 44.7688 6.125 43.25V4.75C6.125 3.23118 7.35618 2 8.875 2Z" fill="#4876F9"/>
<path d="M20.3914 35L23.7046 22.8541H23.7657L27.0585 35H28.9082L33.075 20.425H31.205L28.0139 32.6526H27.9325L24.6397 20.425H22.8307L19.5175 32.6526H19.4361L16.245 20.425H14.375L18.5418 35H20.3914Z" fill="white"/>
<path d="M30.875 2L41.875 13H33.625C32.1062 13 30.875 11.7688 30.875 10.25V2Z" fill="#B5C8FC"/>
</svg>
